STARTFONT 2.1
COMMENT
COMMENT Converted from OpenType font "quattrocento.regular.ttf" by "otf2bdf 3.0".
COMMENT
FONT -FreeType-Quattrocento-Medium-R-Normal--89-640-100-100-P-393-ISO10646-1
SIZE 64 100 100
FONTBOUNDINGBOX 102 99 -3 -23
STARTPROPERTIES 19
FOUNDRY "FreeType"
FAMILY_NAME "Quattrocento"
WEIGHT_NAME "Medium"
SLANT "R"
SETWIDTH_NAME "Normal"
ADD_STYLE_NAME ""
PIXEL_SIZE 89
POINT_SIZE 640
RESOLUTION_X 100
RESOLUTION_Y 100
SPACING "P"
AVERAGE_WIDTH 393
CHARSET_REGISTRY "ISO10646"
CHARSET_ENCODING "1"
FONT_ASCENT 75
FONT_DESCENT 23
COPYRIGHT "Copyright (c) 2011, Pablo Impallari (www.impallari.com|impallari@gmail.com),  Copyright (c) 2011, Igino Marini. (www.ikern.com|mail@iginomarini.com),  Copyright (c) 2011, Brenda Gallo. (gbrenda1987@gmail.com),  with Reserved Font Name Quattrocento."
_OTF_FONTFILE "quattrocento.regular.ttf"
_OTF_PSNAME "Quattrocento"
ENDPROPERTIES
CHARS 245
STARTCHAR 0000
ENCODING 0
SWIDTH 0 0
DWIDTH 0 0
BBX 0 0 0 0
BITMAP
ENDCHAR
STARTCHAR 000D
ENCODING 13
SWIDTH 258 0
DWIDTH 23 0
BBX 0 0 0 0
BITMAP
ENDCHAR
STARTCHAR 0020
ENCODING 32
SWIDTH 236 0
DWIDTH 21 0
BBX 0 0 0 0
BITMAP
ENDCHAR
STARTCHAR 0021
ENCODING 33
SWIDTH 247 0
DWIDTH 22 0
BBX 8 62 7 -1
BITMAP
01
1F
FF
FF
FF
FF
FF
FF
FE
FE
7E
7E
7E
7E
7E
7E
7E
7E
7E
7E
7E
7E
7E
7E
7E
7E
7E
7C
7C
7C
7C
7C
7C
3C
3C
3C
3C
3C
3C
3C
3C
3C
3C
3C
3C
3C
38
20
00
00
00
00
00
10
7E
FE
FF
FF
FF
FF
7E
10
ENDCHAR
STARTCHAR 0022
ENCODING 34
SWIDTH 303 0
DWIDTH 27 0
BBX 18 19 5 46
BITMAP
3C03C0
FC0FC0
FC0F80
FC0F80
F80F80
F80F80
F80F80
F80F80
F80F80
F80F80
780F80
780F80
780F80
780F80
780F80
780780
780780
780780
600600
ENDCHAR
STARTCHAR 0023
ENCODING 35
SWIDTH 618 0
DWIDTH 55 0
BBX 48 58 4 0
BITMAP
00007F803FC0
00007F003F80
00007F003F80
00007F003F80
00007E003F00
00007E003F00
00007E003F00
00007C003E00
0000FC007E00
0000FC007E00
0000FC007C00
0000F8007C00
0000F8007C00
0000F800FC00
0001F800F800
0001F000F800
0001F000F800
0001F000F800
1FFFFFFFFFFF
1FFFFFFFFFFF
1FFFFFFFFFFE
1FFFFFFFFFFE
3FFFFFFFFFFE
0003E001F000
0007C003E000
0007C003E000
0007C003E000
0007C003E000
0007C003C000
000F8007C000
000F8007C000
000F8007C000
000F8007C000
000F800F8000
FFFFFFFFFFF8
FFFFFFFFFFF8
FFFFFFFFFFF8
FFFFFFFFFFF0
FFFFFFFFFFF0
003E001F0000
003E001F0000
003E001F0000
003E003F0000
007E003E0000
007C003E0000
007C003E0000
007C007E0000
00FC007E0000
00FC007E0000
00FC007C0000
00F800FC0000
01F800FC0000
01F800FC0000
01F800FC0000
03F801FC0000
03F801FC0000
03F801F80000
07F003F80000
ENDCHAR
STARTCHAR 0024
ENCODING 36
SWIDTH 528 0
DWIDTH 47 0
BBX 40 75 4 -9
BITMAP
00007E0000
00007E0000
00007E0000
00007E0000
00003E0000
00003C0000
00003C0000
00003C0000
00003C0000
001FFFFC00
00FFFFFFC0
01FFFFFFF0
07FFFFFFF0
0FFC3C3FF0
0FF03C07F0
1FC03C03F0
1F803C01E0
3F803C01E0
3F003C00E0
3F003C00E0
7F003C0000
7F003C0000
7F003C0000
7F003C0000
7F003C0000
7F003C0000
3F803C0000
3FC03C0000
3FE03C0000
1FF03C0000
1FFE3C0000
0FFFFC0000
07FFFC0000
03FFFF0000
01FFFFE000
007FFFF800
001FFFFE00
0003FFFF80
0000FFFFC0
00003FFFE0
00003DFFF0
00003C7FF8
00003C1FFC
00003C07FC
00003C03FE
00003C01FE
00003C00FE
00003C00FF
00003C007F
00003C007F
00003C007F
30003C007F
38003C007F
38003C007F
78003C007E
78003C00FE
7C003C00FE
7C003C01FC
7E003C01FC
7F003C03F8
FF803C07F0
FFE03C3FE0
7FFFBFFFC0
0FFFFFFF00
01FFFFF800
001FFFC000
00003C0000
00003C0000
00003C0000
00003E0000
00007E0000
00007E0000
00007E0000
00007E0000
00007E0000
ENDCHAR
STARTCHAR 0025
ENCODING 37
SWIDTH 787 0
DWIDTH 70 0
BBX 62 61 4 -1
BITMAP
0000000000007F00
007F00000000FE00
01FFE0000000FC00
03FFF0000001F800
0FF7F8000003F000
0F80FC000003E000
1F003E000007E000
3E001E00000FC000
3C001F00000F8000
7C000F00001F0000
78000F80003E0000
78000780003E0000
F8000780007C0000
F800078000F80000
F00007C001F00000
F00007C001F00000
F00007C003E00000
F00007C007C00000
F00007C007C00000
F00007C00F800000
F00007801F000000
F80007803E000000
F80007803E000000
78000F807C000000
7C000F00F8000000
7C000F01F0000000
3E001F01F0000000
3E003E03E0000000
1F007C07C003F800
0FC1FC07C01FFE00
07FFF80F803FFF00
03FFE01F007F7F80
00FF803E00F807C0
0000003E01F003E0
0000007C01E001F0
000000F803E000F0
000001F003C000F8
000001F007C00078
000003E007800078
000007C00780007C
00000FC00780007C
00000F800F80003C
00001F000F80003C
00003E000F80003C
00007E000F80003C
00007C000F80003C
0000F8000F80003C
0001F8000F80007C
0003F0000780007C
0003E00007800078
0007E00007800078
000FC00007C000F8
001F800003C000F0
003F800003E001F0
007F000001F003E0
007E000001F807E0
00FE000000FC0FC0
01FC0000007FFF80
00000000003FFF00
00000000000FFC00
0000000000008000
ENDCHAR
STARTCHAR 0026
ENCODING 38
SWIDTH 753 0
DWIDTH 67 0
BBX 58 60 5 -1
BITMAP
0000FF0000000000
0007FFE000000000
001FFFF000000000
003FFFF800000000
007FFFFC00000000
00FF01FE00000000
00FE00FE00000000
01FC007F00000000
01F8003F00000000
01F8003F00000000
03F0001E00000000
03F0001E00000000
03F0001E00000000
03F0001E00000000
03F0000E00000000
03F8000000000000
03F8000000000000
01F8000000000000
01FC000000000000
01FC000000000000
00FE000000000000
00FE000000000040
007F0000078001C0
003F80003FFFFFC0
003F80007FFFFF80
001FC000FFFFFF00
001FE001FFFFFE00
007FF001EFFFF800
01FFF80387C00000
03FFFC0107E00000
07FFFE0003E00000
0FF0FE0003E00000
1FE07F0003F00000
1FC07F8001F00000
3F803FC001F00000
3F001FE001F00000
7F000FF001F00000
7E0007F801F00000
FE0003FC01F00000
FE0001FE01F00000
FC0000FF01F00000
FC00007F81F00000
FC00003FC3F00000
FC00001FE3F00000
FC00000FF3E00000
FC000007FFE00000
FE000003FFE00000
FE000001FFC00000
FE000000FFC00000
7F000000FF800000
7F8000007FC00000
3FC00000FFE00000
3FF00003FFF00000
1FF8000FFFF80000
0FFF807FF7FE0000
07FFFFFFE3FF0000
01FFFFFF80FFE000
007FFFFE007FFF00
001FFFF8003FFF80
0001FF80000FFF80
ENDCHAR
STARTCHAR 0027
ENCODING 39
SWIDTH 168 0
DWIDTH 15 0
BBX 6 19 5 46
BITMAP
3C
FC
FC
FC
F8
F8
F8
F8
F8
F8
78
78
78
78
78
78
78
78
60
ENDCHAR
STARTCHAR 0028
ENCODING 40
SWIDTH 270 0
DWIDTH 24 0
BBX 19 79 4 -10
BITMAP
000040
0000E0
0001C0
0003C0
000780
000700
000E00
001E00
003C00
007C00
007800
00F800
01F000
01F000
03E000
03E000
07C000
07C000
0FC000
0F8000
1F8000
1F8000
1F0000
3F0000
3F0000
3F0000
7F0000
7E0000
7E0000
7E0000
FE0000
FE0000
FE0000
FE0000
FE0000
FE0000
FE0000
FE0000
FE0000
FE0000
FE0000
FE0000
FE0000
FE0000
FE0000
FE0000
FE0000
FE0000
FE0000
FE0000
7E0000
7E0000
7F0000
7F0000
3F0000
3F0000
3F0000
1F8000
1F8000
1F8000
0F8000
0FC000
07C000
07C000
03E000
03E000
01F000
01F000
00F800
007800
007C00
003C00
001E00
000F00
000700
000380
0003C0
0001C0
000060
ENDCHAR
STARTCHAR 0029
ENCODING 41
SWIDTH 270 0
DWIDTH 24 0
BBX 20 79 1 -10
BITMAP
400000
E00000
700000
380000
3C0000
1E0000
0E0000
0F0000
078000
07C000
03C000
01E000
01F000
01F000
00F800
00F800
007C00
007C00
007E00
003E00
003F00
003F00
001F80
001F80
001F80
001FC0
001FC0
000FC0
000FC0
000FE0
000FE0
000FE0
000FE0
000FE0
000FE0
000FE0
000FE0
000FE0
000FF0
000FF0
000FF0
000FF0
000FE0
000FE0
000FE0
000FE0
000FE0
000FE0
000FE0
000FE0
000FC0
000FC0
001FC0
001FC0
001F80
001F80
001F80
003F00
003F00
003F00
003E00
007E00
007C00
007C00
00F800
00F800
01F000
01F000
03E000
03C000
07C000
078000
0F0000
0E0000
1C0000
3C0000
780000
700000
E00000
ENDCHAR
STARTCHAR 002A
ENCODING 42
SWIDTH 438 0
DWIDTH 39 0
BBX 28 29 6 33
BITMAP
003F0000
001F0000
001E0000
001E0000
001E0100
101E0180
380E0380
7C0E07C0
7E0E1FC0
FF8E3FE0
3FCE7F00
0FEEFC00
01FFF000
007FC000
001F0000
007FC000
01FFF000
07FFFC00
3FCE7F80
FF8E3FF0
FE0E0FE0
7C0E07C0
380E01C0
200F0080
001F0000
001F0000
001F0000
001F0000
001F0000
ENDCHAR
STARTCHAR 002B
ENCODING 43
SWIDTH 495 0
DWIDTH 44 0
BBX 36 34 4 4
BITMAP
0000F00000
0000F00000
0000F00000
0000F00000
0000F00000
0000F00000
0000F00000
0000F00000
0000F00000
0000F00000
0000F00000
0000F00000
0000F00000
0000F00000
7FFFFFFFF0
7FFFFFFFE0
7FFFFFFFE0
7FFFFFFFE0
FFFFFFFFE0
0000F00000
0000F00000
0000F00000
0000F00000
0000F00000
0000F00000
0000F00000
0000F00000
0000F00000
0000F00000
0000F00000
0000F00000
0000F00000
0000F00000
0000F00000
ENDCHAR
STARTCHAR 002C
ENCODING 44
SWIDTH 213 0
DWIDTH 19 0
BBX 8 16 5 -9
BITMAP
1E
7F
7F
7F
7F
7F
3F
3E
7E
7C
7C
78
70
F0
E0
80
ENDCHAR
STARTCHAR 002D
ENCODING 45
SWIDTH 472 0
DWIDTH 42 0
BBX 30 5 6 19
BITMAP
7FFFFFFC
7FFFFFFC
FFFFFFFC
FFFFFFF8
FFFFFFF8
ENDCHAR
STARTCHAR 002E
ENCODING 46
SWIDTH 213 0
DWIDTH 19 0
BBX 8 9 6 -1
BITMAP
10
7C
FE
FF
FF
FF
FE
7C
10
ENDCHAR
STARTCHAR 002F
ENCODING 47
SWIDTH 438 0
DWIDTH 39 0
BBX 31 67 4 -5
BITMAP
000000FE
000000FE
000001FC
000001FC
000001F8
000001F8
000003F0
000003F0
000003E0
000007E0
000007E0
000007C0
00000FC0
00000F80
00000F80
00001F80
00001F00
00001F00
00003E00
00003E00
00003E00
00007C00
00007C00
0000FC00
0000F800
0000F800
0001F800
0001F000
0001F000
0003E000
0003E000
0003E000
0007C000
0007C000
000FC000
000F8000
000F8000
001F0000
001F0000
001F0000
003E0000
003E0000
007E0000
007C0000
007C0000
00F80000
00F80000
00F80000
01F00000
01F00000
03F00000
03E00000
03E00000
07E00000
07C00000
07C00000
0FC00000
0F800000
1F800000
1F800000
3F000000
3F000000
3F000000
7F000000
7E000000
FE000000
FE000000
ENDCHAR
STARTCHAR 0030
ENCODING 48
SWIDTH 652 0
DWIDTH 58 0
BBX 47 60 5 -1
BITMAP
00001FF80000
0000FFFF0000
0003FFFFC000
000FFFFFF000
001FFFFFF800
007FF01FFC00
00FF8003FE00
01FE0001FF00
01FC00007F80
03F800003FC0
07F000001FC0
07F000000FE0
0FE000000FE0
0FC0000007F0
1FC0000007F0
1FC0000003F8
3F80000003F8
3F80000001FC
3F80000001FC
7F00000001FC
7F00000001FC
7F00000000FE
7F00000000FE
7E00000000FE
FE00000000FE
FE00000000FE
FE00000000FE
FE00000000FE
FE000000007E
FE000000007E
FE000000007E
FE00000000FE
FE00000000FE
FE00000000FE
FE00000000FE
FE00000000FE
7F00000000FE
7F00000000FE
7F00000000FC
7F00000001FC
7F00000001FC
3F80000001FC
3F80000003F8
3F80000003F8
1FC0000003F8
1FC0000007F0
1FE0000007F0
0FF000000FE0
07F000001FE0
07F800003FC0
03FC00007F80
01FE0000FF00
01FF8001FE00
00FFC007FC00
007FFFFFF800
001FFFFFF000
000FFFFFE000
0003FFFF8000
0000FFFC0000
000003000000
ENDCHAR
STARTCHAR 0031
ENCODING 49
SWIDTH 360 0
DWIDTH 32 0
BBX 25 59 4 0
BITMAP
00030000
000F8000
001F8000
003F8000
00FF8000
01FF0000
07FF0000
1FFF0000
7FFF0000
FE3F0000
E03F0000
003F0000
003F0000
003F0000
003F0000
003F0000
003F0000
003F0000
003F0000
003F0000
003F0000
003F0000
003F0000
003F0000
003F0000
003F0000
003F0000
003F0000
003F0000
003F0000
003F0000
003F0000
003F0000
003F0000
003F0000
003F0000
003F0000
003F0000
003F0000
003F0000
003F0000
003F0000
003F0000
003F0000
003F0000
003F0000
003F0000
003F0000
003F0000
003F0000
003F0000
007F0000
007F8000
007F8000
00FFC000
00FFC000
03FFF000
7FFFFF80
7FFFFF80
ENDCHAR
STARTCHAR 0032
ENCODING 50
SWIDTH 540 0
DWIDTH 48 0
BBX 39 59 4 0
BITMAP
0001FFC000
001FFFF800
007FFFFE00
00FFFFFF80
03FFFFFFC0
07FE01FFE0
0FF0003FE0
1FC0000FF0
1F800007F0
3F000007F8
7F000003F8
7E000003F8
3E000001F8
3C000001F8
3C000001F8
3C000001F8
3C000001F8
00000003F8
00000003F8
00000003F8
00000007F0
00000007F0
0000000FE0
0000000FE0
0000001FC0
0000003FC0
0000003F80
0000007F00
000000FF00
000001FE00
000003FC00
000003F800
000007F000
00000FF000
00001FE000
00003FC000
00007F8000
0000FF0000
0000FE0000
0001FC0000
0003FC0000
0007F80000
000FF00000
001FE00000
003FC00000
007F800000
00FF000000
00FF00000E
01FE00000C
03FC00001C
07F800001C
0FF000003C
1FF000007C
3FE00001FC
7FFFFFFFFC
7FFFFFFFFC
FFFFFFFFF8
FFFFFFFFF8
FFFFFFFFF8
ENDCHAR
STARTCHAR 0033
ENCODING 51
SWIDTH 540 0
DWIDTH 48 0
BBX 38 60 5 -1
BITMAP
0003FF0000
001FFFE000
007FFFF800
01FFFFFC00
03FFFFFF00
07F803FF80
0FE000FF80
1F80003FC0
3F80001FC0
3F00000FE0
7E00000FE0
7E00000FE0
3E00000FE0
3C000007E0
3C000007E0
3C000007E0
3C00000FE0
0000000FE0
0000000FE0
0000000FC0
0000001FC0
0000001F80
0000003F00
0000007F00
000001FE00
000007F800
0000FFE000
0000FFF000
0000FFFE00
00000FFF00
0000007FC0
0000003FE0
0000000FE0
00000007F0
00000007F8
00000003F8
00000003FC
00000001FC
00000001FC
00000001FC
00000000FC
00000000FC
00000000FC
00000000FC
00000001FC
70000001FC
70000001FC
F0000001FC
F8000003F8
F8000007F8
FC000007F0
FE00000FE0
7F80003FE0
3FE000FFC0
1FFFFFFF80
0FFFFFFE00
07FFFFFC00
01FFFFF000
003FFF8000
0000C00000
ENDCHAR
STARTCHAR 0034
ENCODING 52
SWIDTH 506 0
DWIDTH 45 0
BBX 39 59 2 0
BITMAP
0000003E00
000001FE00
000001FE00
000003FE00
000007FE00
00000FFE00
00000FFE00
00001FFE00
00003FFE00
00003E7E00
00007C7E00
0000F87E00
0000F87E00
0001F07E00
0003E07E00
0003C07E00
0007C07E00
000F807E00
000F007E00
001F007E00
003E007E00
003C007E00
007C007E00
00F8007E00
00F8007E00
01F0007E00
03E0007E00
03E0007E00
07C0007E00
0780007E00
0F80007E00
1F00007E00
1F00007E00
3E00007E00
3E00007E00
7FFFFFFFFE
FFFFFFFFFE
FFFFFFFFFC
FFFFFFFFFC
7FFFFFFFFC
0000007E00
0000007E00
0000007E00
0000007E00
0000007E00
0000007E00
0000007E00
0000007E00
0000007E00
000000FE00
000000FE00
000000FE00
000000FE00
000000FF00
000001FF00
000003FF80
00000FFFE0
0001FFFFFE
0001FFFFFE
ENDCHAR
STARTCHAR 0035
ENCODING 53
SWIDTH 528 0
DWIDTH 47 0
BBX 38 61 5 -1
BITMAP
0000000300
07FFFFFF00
07FFFFFF00
07FFFFFF80
07FFFFFF80
0FFFFFFF80
0FC0000F80
0FC0000780
0FC0000380
0FC0000380
0FC0000180
0FC00001C0
0F80000000
0F80000000
0F80000000
0F80000000
1F80000000
1F80000000
1F80000000
1F80000000
1F80000000
1F80000000
1F80000000
1F00000000
1F00000000
1F07FF8000
3F7FFFF000
3FFFFFFE00
3FFFFFFF00
3FFFFFFF80
3FF001FFC0
3F00003FE0
0C00001FF0
0000000FF0
00000007F8
00000003F8
00000001F8
00000001FC
00000001FC
00000001FC
00000001FC
00000001FC
00000001FC
00000001FC
00000001FC
00000001FC
70000001F8
F0000001F8
F0000003F8
F8000003F0
F8000007F0
FC00000FE0
FE00001FE0
FF00003FC0
7FC000FF80
3FFFFFFF00
1FFFFFFE00
0FFFFFF800
03FFFFE000
00FFFF0000
0001800000
ENDCHAR
STARTCHAR 0036
ENCODING 54
SWIDTH 540 0
DWIDTH 48 0
BBX 38 60 6 -1
BITMAP
0000FFC000
0007FFFC00
001FFFFF00
007FFFFFC0
00FFFFFFE0
01FF807FC0
03FE000FC0
03F80003C0
07F00001C0
0FE0000180
0FC0000000
1FC0000000
1F80000000
1F00000000
3F00000000
3F00000000
3E00000000
7E00000000
7E00000000
7E00000000
7C00000000
7C00000000
7C00000000
FC01FF8000
FC0FFFF000
FC3FFFFC00
FC7FFFFF00
FCFFFFFF80
FDFE00FFC0
FFF8003FE0
FFE0000FE0
FFC00007F0
FF800003F0
FF800003F8
FF000001F8
FF000001F8
FE000000FC
FE000000FC
FE000000FC
FE000000FC
FE000000FC
7E000000FC
7E000000FC
7E000000FC
7E000000FC
7F000001FC
3F000001F8
3F000001F8
3F800003F8
1F800007F0
1FC00007F0
0FE0000FE0
07F0003FE0
07FC007FC0
03FFFFFF80
01FFFFFF00
00FFFFFC00
003FFFF000
000FFFC000
0000300000
ENDCHAR
STARTCHAR 0037
ENCODING 55
SWIDTH 517 0
DWIDTH 46 0
BBX 42 58 3 0
BITMAP
3FFFFFFFFFC0
7FFFFFFFFFC0
7FFFFFFFFFC0
7FFFFFFFFF80
7FFFFFFFFF80
7C000000FF00
70000000FE00
70000001FE00
E0000001FC00
E0000003FC00
40000003F800
00000007F000
00000007F000
0000000FE000
0000000FE000
0000001FC000
0000001FC000
0000003F8000
0000003F8000
0000007F0000
0000007F0000
000000FE0000
000000FC0000
000001FC0000
000001F80000
000003F80000
000003F00000
000007F00000
000007E00000
00000FE00000
00000FC00000
00001FC00000
00001F800000
00003F800000
00003F000000
00007F000000
0000FE000000
0000FE000000
0001FC000000
0001FC000000
0003F8000000
0003F8000000
0007F8000000
0007F0000000
000FF0000000
001FE0000000
001FE0000000
003FC0000000
003FC0000000
007FC0000000
007F80000000
00FF80000000
00FF80000000
01FF00000000
03FF00000000
03FF00000000
07FE00000000
07FE00000000
ENDCHAR
STARTCHAR 0038
ENCODING 56
SWIDTH 562 0
DWIDTH 50 0
BBX 40 60 5 -1
BITMAP
0001FF8000
001FFFF000
007FFFFC00
00FFFFFE00
01FFFFFF80
03FF00FF80
07F8003FC0
07F0001FE0
0FE0000FE0
0FE00007F0
0FC00007F0
1FC00007F0
1FC00003F0
1FC00003F0
1FC00003F0
1FC00003F0
1FC00003F0
1FC00007F0
0FC00007F0
0FE00007F0
0FE0000FE0
07F0001FE0
07F8003FC0
03FC007F80
00FF01FF00
007FFFFC00
001FFFF800
007FFFFE00
01FFFFFF80
03FF00FFC0
0FF8003FE0
0FF0000FF0
1FE00007F8
3FC00003F8
3F800003FC
7F800001FC
7F000000FE
7F000000FE
FE000000FE
FE000000FE
FE0000007E
FE0000007E
FE0000007F
FE0000007E
FE0000007E
FE000000FE
7F000000FE
7F000000FE
7F800001FE
7F800001FC
3FC00003FC
3FE00007F8
1FF0000FF0
0FFC003FF0
07FFFFFFE0
03FFFFFFC0
01FFFFFF00
007FFFFC00
000FFFF000
0000380000
ENDCHAR
STARTCHAR 0039
ENCODING 57
SWIDTH 540 0
DWIDTH 48 0
BBX 38 60 4 -1
BITMAP
0003FF0000
001FFFE000
007FFFF800
01FFFFFE00
03FFFFFF00
07FE01FF80
0FF8007F80
0FE0001FC0
1FC0000FE0
3F800007E0
3F800007F0
3F000003F0
7F000003F8
7E000001F8
7E000001F8
7E000001F8
FE000001FC
FC000001FC
FC000001FC
FC000001FC
FC000001FC
7E000001FC
7E000001FC
7E000001FC
7E000003FC
7F000003FC
3F800007FC
3F80000FFC
1FC0001FFC
0FF0003FFC
0FFC01FFFC
03FFFFFEFC
01FFFFFCFC
00FFFFF0FC
003FFFE0FC
0007FF00FC
00000000FC
00000000FC
00000000FC
00000000F8
00000000F8
00000001F8
00000001F8
00000001F8
00000001F0
00000003F0
00000003F0
00000007E0
00000007E0
0600000FC0
0600001FC0
0700003F80
0F80007F00
0FF001FF00
0FFFFFFE00
0FFFFFFC00
03FFFFF000
01FFFFE000
003FFF8000
0000600000
ENDCHAR
STARTCHAR 003A
ENCODING 58
SWIDTH 225 0
DWIDTH 20 0
BBX 8 42 6 -1
BITMAP
3C
7E
FF
FF
FF
FF
7E
3C
00
00
00
00
00
00
00
00
00
00
00
00
00
00
00
00
00
00
00
00
00
00
00
00
00
08
7E
7F
FF
FF
FF
FF
7E
08
ENDCHAR
STARTCHAR 003B
ENCODING 59
SWIDTH 236 0
DWIDTH 21 0
BBX 9 49 6 -9
BITMAP
3C00
7F00
7F00
FF80
FF80
7F00
7F00
3E00
0000
0000
0000
0000
0000
0000
0000
0000
0000
0000
0000
0000
0000
0000
0000
0000
0000
0000
0000
0000
0000
0000
0000
0000
0000
3F00
7F00
7F00
7F00
7F00
3F00
3F00
3E00
3E00
7C00
7C00
7800
7000
E000
C000
8000
ENDCHAR
STARTCHAR 003C
ENCODING 60
SWIDTH 416 0
DWIDTH 37 0
BBX 26 33 4 5
BITMAP
000000C0
000001C0
000003C0
00000FC0
00001FC0
00007F00
0000FC00
0003F800
0007E000
001FC000
003F0000
00FC0000
03F80000
07E00000
1FC00000
7F000000
FE000000
7F000000
1FC00000
0FE00000
03F80000
00FC0000
007F0000
001F8000
000FE000
0003F800
0001FC00
00007F00
00003FC0
00000FC0
000007C0
000001C0
000000C0
ENDCHAR
STARTCHAR 003D
ENCODING 61
SWIDTH 483 0
DWIDTH 43 0
BBX 30 18 7 12
BITMAP
FFFFFFFC
FFFFFFF8
FFFFFFF8
FFFFFFF8
FFFFFFF8
00000000
00000000
00000000
00000000
00000000
00000000
00000000
00000000
FFFFFFFC
FFFFFFF8
FFFFFFF8
FFFFFFF8
FFFFFFF8
ENDCHAR
STARTCHAR 003E
ENCODING 62
SWIDTH 416 0
DWIDTH 37 0
BBX 27 33 6 5
BITMAP
60000000
70000000
78000000
FE000000
7F000000
1FC00000
0FE00000
03F80000
00FC0000
007F0000
001F8000
000FE000
0003F000
0001FC00
00007F00
00003F80
00000FE0
00001FC0
00007F00
0000FC00
0003F800
0007E000
001FC000
007F0000
00FC0000
03F80000
07E00000
1FC00000
7F000000
FE000000
78000000
70000000
60000000
ENDCHAR
STARTCHAR 003F
ENCODING 63
SWIDTH 427 0
DWIDTH 38 0
BBX 29 62 4 -1
BITMAP
003FC000
03FFF800
1FFFFE00
7FFDFF00
FF803FC0
FF000FC0
FC0007E0
FC0003F0
F80003F0
700001F0
700001F8
600001F8
600001F8
600001F8
000001F8
000001F8
000003F8
000003F8
000003F0
000007F0
000007F0
00000FE0
00001FE0
00001FC0
00003FC0
00007F80
00007F00
0000FF00
0001FE00
0001FC00
0003F800
0007F800
0007F000
000FE000
000FC000
001FC000
001F8000
001F8000
001F0000
001F0000
001F0000
001F0000
001F0000
001F0000
001F0000
001F0000
001E0000
00100000
00000000
00000000
00000000
00000000
00000000
00040000
001F0000
003F8000
007FC000
007FC000
007FC000
003F8000
001F0000
00040000
ENDCHAR
STARTCHAR 0040
ENCODING 64
SWIDTH 720 0
DWIDTH 64 0
BBX 56 57 5 -9
BITMAP
000001FFFE0000
00000FFFFFC000
00003FFFFFF000
0000FFC00FFC00
0003FC0000FE00
0007F000003F80
000FC000001FC0
003F8000000FE0
007F00000007E0
007C00000003F0
00F800000001F8
01F000000000F8
03F000000000FC
03E00007E0007C
07C0003FFC007C
0FC000FFFF003E
0F8003F83F803E
1F0007E03F803E
1F000FC03F003E
3F001F803F003E
3E003F007F001E
3E003F007F001F
7E007E007F001E
7C00FE007E001E
7C00FC007E003E
7C00FC00FE003E
FC01FC00FE003E
F801F800FC003E
F801F800FC003C
F801F800FC007C
F801F801FC007C
F801F801FC00F8
F801F803F800F8
F801F807F801F0
F801F807F803E0
F800F80FF807C0
F800FC1DF80F80
FC007C79FC3F00
7C007FF9FFFE00
7C003FE0FFF800
7C001FC07FE000
3E000000000000
3E000000000000
1F000000000000
1F000000000000
0F800000000000
0FC00000000200
07E00000000700
03F00000000E00
01F80000003E00
00FE000000FC00
007F000003F800
001FE0001FE000
000FFFCFFF8000
0003FFFFFE0000
00007FFFF00000
00000FFF000000
ENDCHAR
STARTCHAR 0041
ENCODING 65
SWIDTH 675 0
DWIDTH 60 0
BBX 63 60 -2 -1
BITMAP
0000000060000000
00000001F0000000
00000007F0000000
00000007F0000000
0000000FF8000000
0000000FF8000000
0000001FF8000000
0000001FFC000000
0000003FFC000000
0000003DFE000000
0000003CFE000000
0000007CFE000000
000000787F000000
000000F87F000000
000000F07F000000
000000F03F800000
000001F03F800000
000001E03F800000
000003E01FC00000
000003E01FC00000
000003C01FE00000
000007C00FE00000
000007800FE00000
00000F8007F00000
00000F8007F00000
00000F0007F00000
00001F0003F80000
00001F0003F80000
00001E0003F80000
00003E0001FC0000
00003C0001FC0000
00007FFFFFFE0000
00007FFFFFFE0000
00007FFFFFFE0000
0000F800007F0000
0000F000007F0000
0001F000007F0000
0001F000003F8000
0001E000003F8000
0003E000001F8000
0003E000001FC000
0007C000001FC000
0007C000000FE000
00078000000FE000
000F8000000FE000
000F80000007F000
001F00000007F000
001F00000003F000
001F00000003F800
003E00000003F800
003E00000001FC00
007E00000001FC00
007C00000001FE00
00FC00000001FE00
01FE00000001FF00
03FE00000001FF80
07FF00000007FFE0
FFFFF000007FFFFE
FFFFF800007FFFFE
C000000000000006
ENDCHAR
STARTCHAR 0042
ENCODING 66
SWIDTH 585 0
DWIDTH 52 0
BBX 44 59 4 0
BITMAP
F00000000000
FFFFFFE00000
FFFFFFFC0000
07FFFFFF0000
03FFFFFFC000
01FC003FE000
01FC0007F000
01FC0003F000
01FC0001F800
00FC0000F800
00FC0000FC00
00FC0000FC00
00FC00007C00
00FC00007C00
00FC00007C00
00FC00007C00
00FC00007C00
00FC0000FC00
00FC0000FC00
00FC0000F800
00FC0001F800
00FC0001F000
00FC0003F000
00FC0007E000
00FC001FC000
00FC00FF0000
00FFFFFE0000
00FFFFFF0000
00FFFFFFE000
00FC01FFF800
00FC0007FE00
00FC0001FF00
00FC00007F80
00FC00003F80
00FC00001FC0
00FC00000FC0
00FC00000FE0
00FC000007E0
00FC000007E0
00FC000007E0
00FC000007F0
00FC000007F0
00FC000007F0
00FC000007F0
00FC000007E0
00FC000007E0
00FC000007E0
00FC00000FE0
00FC00000FE0
00FC00001FC0
01FC00003FC0
01FC0000FF80
01FE0001FF00
01FE001FFE00
03FFFFFFFC00
03FFFFFFF800
0FFFFFFFE000
FFFFFFFF0000
FFFFFFF00000
ENDCHAR
STARTCHAR 0043
ENCODING 67
SWIDTH 652 0
DWIDTH 58 0
BBX 49 60 5 -1
BITMAP
000001FFFE0000
00001FFFFFE000
0000FFFFFFFC00
0003FFFFFFFF00
0007FFFFFFFF00
001FFE001FFF00
003FF00001FF00
007FC000007F00
00FF0000003E00
01FE0000001E00
03FC0000000E00
07F80000000E00
07F00000000000
0FE00000000000
1FC00000000000
1FC00000000000
3FC00000000000
3F800000000000
3F800000000000
7F000000000000
7F000000000000
7F000000000000
7F000000000000
FE000000000000
FE000000000000
FE000000000000
FE000000000000
FE000000000000
FE000000000000
FE000000000000
FE000000000000
FE000000000000
FE000000000000
FE000000000000
FE000000000000
FE000000000000
FF000000000000
7F000000000000
7F000000000000
7F000000000000
7F800000000000
3F800000000000
3FC00000000000
1FC00000000000
1FE00000000000
0FE00000000000
0FF00000000000
07F80000000000
07FC0000000000
03FE0000000000
01FF8000000180
00FFC000000780
007FF000001F00
003FFE0001FF00
000FFFFFFFFE00
0007FFFFFFFC00
0001FFFFFFF000
00007FFFFF8000
000007FFFC0000
0000000C000000
ENDCHAR
STARTCHAR 0044
ENCODING 68
SWIDTH 731 0
DWIDTH 65 0
BBX 56 59 4 0
BITMAP
C0000000000000
FFFFFFFF800000
FFFFFFFFF80000
07FFFFFFFF0000
03FFFFFFFFC000
01FC0000FFF000
01FC00001FF800
01FC000003FC00
01FC000001FF00
00FC0000007F80
00FC0000003F80
00FC0000001FC0
00FC0000000FE0
00FC00000007F0
00FC00000007F0
00FC00000003F8
00FC00000003F8
00FC00000001FC
00FC00000001FC
00FC00000000FE
00FC00000000FE
00FC00000000FE
00FC00000000FF
00FC000000007F
00FC000000007F
00FC000000007F
00FC000000007F
00FC000000007F
00FC000000007F
00FC000000007F
00FC000000007F
00FC000000007F
00FC000000007F
00FC000000007F
00FC000000007F
00FC000000007F
00FC00000000FF
00FC00000000FF
00FC00000000FE
00FC00000000FE
00FC00000001FE
00FC00000001FC
00FC00000003FC
00FC00000003F8
00FC00000007F8
00FC00000007F0
00FC0000000FF0
00FC0000001FE0
00FC0000003FC0
01FC0000007FC0
01FC000001FF80
01FC000003FF00
01FE00000FFC00
01FF0000FFF800
03FFFFFFFFF000
03FFFFFFFFC000
0FFFFFFFFF0000
FFFFFFFFF80000
FFFFFFFF800000
ENDCHAR
STARTCHAR 0045
ENCODING 69
SWIDTH 573 0
DWIDTH 51 0
BBX 43 59 4 0
BITMAP
FFFFFFFFFF80
FFFFFFFFFF80
0FFFFFFFFF80
03FFFFFFFF80
03FFFFFFFF80
01FC00001F80
01FC00000780
01FC00000780
00FC00000380
00FC00000380
00FC00000380
00FC00000000
00FC00000000
00FC00000000
00FC00000000
00FC00000000
00FC00000000
00FC00000000
00FC00000000
00FC00000000
00FC00000000
00FC0000C000
00FC0000C000
00FC0001C000
00FC0001C000
00FC0003C000
00FC007FC000
00FFFFFFC000
00FFFFFFC000
00FFFFFFC000
00FC0007C000
00FC0003C000
00FC0001C000
00FC0001C000
00FC0000C000
00FC0000C000
00FC00000000
00FC00000000
00FC00000000
00FC00000000
00FC00000000
00FC00000000
00FC00000000
00FC00000000
00FC00000000
00FC00000000
00FC00000000
00FC000000E0
00FC000000E0
01FC000000E0
01FC000001E0
01FC000001C0
01FC000003C0
01FE00003FC0
03FFFFFFFFC0
03FFFFFFFFC0
0FFFFFFFFFC0
FFFFFFFFFFC0
FFFFFFFFFF80
ENDCHAR
STARTCHAR 0046
ENCODING 70
SWIDTH 528 0
DWIDTH 47 0
BBX 41 59 4 0
BITMAP
FFFFFFFFFF80
FFFFFFFFFF80
0FFFFFFFFF80
03FFFFFFFF80
03FFFFFFFF80
01FC00001F80
01FC00000780
01FC00000780
01FC00000380
01FC00000380
00FC00000380
00FC00000000
00FC00000000
00FC00000000
00FC00000000
00FC00000000
00FC00000000
00FC00000000
00FC00000000
00FC00000000
00FC00000000
00FC0000C000
00FC0000C000
00FC0001C000
00FC0001C000
00FC0003C000
00FC007FC000
00FFFFFFC000
00FFFFFFC000
00FFFFFFC000
00FC0007C000
00FC0003C000
00FC0001C000
00FC0001C000
00FC0000C000
00FC0000C000
00FC00000000
00FC00000000
00FC00000000
00FC00000000
00FC00000000
00FC00000000
00FC00000000
00FC00000000
00FC00000000
00FC00000000
00FC00000000
00FC00000000
00FC00000000
00FC00000000
01FC00000000
01FC00000000
01FC00000000
01FE00000000
01FE00000000
03FF00000000
0FFF80000000
FFFFFC000000
FFFFFE000000
ENDCHAR
STARTCHAR 0047
ENCODING 71
SWIDTH 708 0
DWIDTH 63 0
BBX 55 60 5 -1
BITMAP
000000FFFF0000
00000FFFFFF800
00007FFFFFFF80
0001FFFFFFFFC0
0007FFFFFFFFC0
000FFF0007FF80
003FF00000FF80
007FC000003F80
00FF0000001F80
01FE0000000F80
03FC0000000700
07F80000000700
07F00000000000
0FE00000000000
1FE00000000000
1FC00000000000
3FC00000000000
3F800000000000
3F800000000000
7F000000000000
7F000000000000
7F000000000000
7F000000000000
FE000000000000
FE000000000000
FE000000000000
FE000000000000
FE000000000000
FE000000000000
FE000000000000
FE000000000000
FE000000000000
FE000000000000
FE000000000000
FE0000003FFFFE
FE0000003FFFFE
FF00000001FFF0
7F000000007FE0
7F000000003FC0
7F000000003FC0
7F800000003FC0
3F800000001FC0
3FC00000001F80
3FC00000001F80
1FE00000001F80
1FE00000001F80
0FF00000001F80
07F80000001F80
07FC0000001F80
03FE0000001F80
01FF0000001F80
00FFC000001F80
007FF000003F80
003FFE0000FF80
000FFFFFFFFF80
0007FFFFFFFF80
0001FFFFFFFF80
00003FFFFFF800
000007FFFF8000
00000007000000
ENDCHAR
STARTCHAR 0048
ENCODING 72
SWIDTH 765 0
DWIDTH 68 0
BBX 60 58 4 0
BITMAP
FFFFFC0003FFFFF0
FFFFFC0003FFFFF0
07FF8000001FFE00
03FF0000000FFC00
01FE00000007F800
01FE00000007F800
01FC00000007F000
01FC00000007F000
01FC00000007F000
01FC00000003F000
00FC00000003F000
00FC00000003F000
00FC00000003F000
00FC00000003F000
00FC00000003F000
00FC00000003F000
00FC00000003F000
00FC00000003F000
00FC00000003F000
00FC00000003F000
00FC00000003F000
00FC00000003F000
00FC00000003F000
00FC00000003F000
00FC00000003F000
00FFFFFFFFFFF000
00FFFFFFFFFFF000
00FFFFFFFFFFF000
00FC00000003F000
00FC00000003F000
00FC00000003F000
00FC00000003F000
00FC00000003F000
00FC00000003F000
00FC00000003F000
00FC00000003F000
00FC00000003F000
00FC00000003F000
00FC00000003F000
00FC00000003F000
00FC00000003F000
00FC00000003F000
00FC00000003F000
00FC00000003F000
00FC00000003F000
00FC00000003F000
00FC00000003F000
00FC00000003F000
00FC00000003F000
01FC00000007F000
01FC00000007F000
01FC00000007F000
01FE00000007F800
01FE0000000FF800
03FF0000000FFC00
0FFF8000003FFE00
FFFFFC0003FFFFF0
FFFFFC0003FFFFF0
ENDCHAR
STARTCHAR 0049
ENCODING 73
SWIDTH 337 0
DWIDTH 30 0
BBX 22 58 4 0
BITMAP
FFFFFC
FFFFFC
07FF80
03FF00
01FE00
01FE00
01FC00
01FC00
01FC00
01FC00
00FC00
00FC00
00FC00
00FC00
00FC00
00FC00
00FC00
00FC00
00FC00
00FC00
00FC00
00FC00
00FC00
00FC00
00FC00
00FC00
00FC00
00FC00
00FC00
00FC00
00FC00
00FC00
00FC00
00FC00
00FC00
00FC00
00FC00
00FC00
00FC00
00FC00
00FC00
00FC00
00FC00
00FC00
00FC00
00FC00
00FC00
00FC00
00FC00
01FC00
01FC00
01FC00
01FE00
01FE00
03FF00
0FFF80
FFFFFC
FFFFFC
ENDCHAR
STARTCHAR 004A
ENCODING 74
SWIDTH 315 0
DWIDTH 28 0
BBX 23 72 2 -14
BITMAP
7FFFFE
7FFFFE
03FFE0
01FF80
00FF00
00FF00
007F00
007F00
007F00
007F00
007E00
007E00
007E00
007E00
007E00
007E00
007E00
007E00
007E00
007E00
007E00
007E00
007E00
007E00
007E00
007E00
007E00
007E00
007E00
007E00
007E00
007E00
007E00
007E00
007E00
007E00
007E00
007E00
007E00
007E00
007E00
007E00
007E00
007E00
007E00
007E00
007E00
007E00
007E00
007E00
007E00
007E00
007E00
007E00
007E00
007E00
007E00
007E00
007C00
00FC00
00FC00
00FC00
00F800
00F800
01F000
01F000
03E000
07C000
0FC000
FF0000
FE0000
F80000
ENDCHAR
STARTCHAR 004B
ENCODING 75
SWIDTH 652 0
DWIDTH 58 0
BBX 56 60 4 -1
BITMAP
0000000003F800
FFFFFC03FFFFC0
FFFFFC03FFFFC0
07FF80007FFE00
03FF00001FF000
01FE00001FE000
01FE00001FC000
01FC00001F8000
01FC00003F0000
00FC00003E0000
00FC00007C0000
00FC0000F80000
00FC0001F00000
00FC0001E00000
00FC0003C00000
00FC0007800000
00FC000F000000
00FC001E000000
00FC003C000000
00FC0078000000
00FC00F8000000
00FC01F0000000
00FC07E0000000
00FC0FC0000000
00FC1F80000000
00FC3F00000000
00FCFE00000000
00FDFF00000000
00FFFF00000000
00FFFF80000000
00FF9FC0000000
00FE1FC0000000
00FC0FE0000000
00FC07F0000000
00FC07F8000000
00FC03F8000000
00FC01FC000000
00FC00FE000000
00FC00FF000000
00FC007F000000
00FC003F800000
00FC003FC00000
00FC001FE00000
00FC000FF00000
00FC0007F80000
00FC0007F80000
00FC0003FC0000
00FC0001FE0000
00FC0000FF0000
00FC0000FF8000
01FC00007FC000
01FC00003FE000
01FC00001FF000
01FE00000FF800
01FE000007FC00
03FF000003FF80
0FFF800001FFF0
FFFFFC0000FFFE
FFFFFC00003FFF
000000000003FE
ENDCHAR
STARTCHAR 004C
ENCODING 76
SWIDTH 517 0
DWIDTH 46 0
BBX 41 58 4 0
BITMAP
FFFFFC000000
FFFFFC000000
07FF80000000
03FF00000000
01FE00000000
01FE00000000
01FC00000000
01FC00000000
01FC00000000
01FC00000000
00FC00000000
00FC00000000
00FC00000000
00FC00000000
00FC00000000
00FC00000000
00FC00000000
00FC00000000
00FC00000000
00FC00000000
00FC00000000
00FC00000000
00FC00000000
00FC00000000
00FC00000000
00FC00000000
00FC00000000
00FC00000000
00FC00000000
00FC00000000
00FC00000000
00FC00000000
00FC00000000
00FC00000000
00FC00000000
00FC00000000
00FC00000000
00FC00000000
00FC00000000
00FC00000000
00FC00000000
00FC00000000
00FC00000000
00FC00000000
00FC00000000
00FC00000000
00FC00000380
00FC00000300
00FC00000700
00FC00000700
01FC00000700
01FC00000F00
01FE00003F00
03FFFFFFFF00
03FFFFFFFE00
0FFFFFFFFE00
FFFFFFFFFE00
FFFFFFFFFE00
ENDCHAR
STARTCHAR 004D
ENCODING 77
SWIDTH 900 0
DWIDTH 80 0
BBX 76 59 2 -1
BITMAP
0FFFFC00000000FFFF80
0FFFFC00000001FFFF00
00FFFC00000001FFF000
003FFC00000001FFC000
001FFE00000001FFC000
001FFE00000003FF8000
001FFE00000003FF8000
001FFF00000003FF8000
001FFF00000007FF8000
001FFF00000007FF8000
001FFF80000007FF8000
001FBF8000000FBF8000
001FBF8000000FBF8000
001FBFC000000F9F8000
001F9FC000001F1F8000
001F9FC000001F1F8000
001F0FE000001E1F8000
001F0FE000003E1F8000
001F0FF000003E1F8000
001F07F000007C1F8000
001F07F000007C1F8000
001F07F80000781FC000
001F03F80000F81FC000
003F03F80000F81FC000
003F01FC0000F01FC000
003F01FC0001F00FC000
003F01FE0001E00FC000
003F00FE0003E00FC000
003F00FE0003C00FC000
003E00FF0003C00FC000
003E007F0007C00FC000
003E007F0007800FC000
003E003F800F800FC000
003E003F800F000FC000
003E003FC00F000FC000
003E001FC01F000FC000
003E001FC01E000FE000
003E000FE03E000FE000
007E000FE03C000FE000
007E000FE07C0007E000
007E0007F07C0007E000
007E0007F0780007E000
007C0007F8F80007E000
007C0003F8F00007E000
007C0003FDF00007E000
007C0001FDF00007E000
007C0001FFE00007E000
007C0001FFE00007E000
007C0000FFC00007F000
00FC0000FFC00007F000
00FC0000FF800007F000
00FC00007F800007F000
00FC00007F800007F000
01FE00003F00000FF800
03FE00003F00000FFC00
07FF80003E00001FFE00
FFFFF0001E0003FFFFF0
FFFFF800000003FFFFF0
0000F800000000000000
ENDCHAR
STARTCHAR 004E
ENCODING 78
SWIDTH 742 0
DWIDTH 66 0
BBX 59 60 4 -1
BITMAP
F001000003C00060
FFFF000003FFFFE0
FFFF800003FFFFE0
07FF8000001FFC00
03FFC000000FF800
01FFC0000007F000
01FFE0000007F000
01FFF0000007F000
01FFF0000007F000
00FFF8000003F000
00FFF8000003F000
00FFFC000003E000
00FBFC000003E000
00FBFE000003E000
00F9FF000003E000
00F8FF000003E000
00F8FF800003E000
00F87F800003E000
00F83FC00003E000
00F83FE00003E000
00F81FE00003E000
00F80FF00003E000
00F80FF80003E000
00F807F80003E000
00F803FC0003E000
00F803FE0003E000
00F801FE0003E000
00F800FF0003E000
00F800FF0003E000
00F8007F8003E000
00F8003FC003E000
00F8003FC003E000
00F8001FE003E000
00F8000FF003E000
00F8000FF003E000
00F80007F803E000
00F80003FC03E000
00F80003FE03E000
00F80001FE03E000
00F80000FF03E000
00F80000FF83E000
00F800007FC3E000
00F800003FC3E000
00F800003FE3E000
00F800001FF3E000
00F800000FF3E000
00F8000007FBE000
00F8000007FFE000
00F8000003FFE000
00F8000001FFE000
00F8000001FFE000
01F8000000FFE000
01FC0000007FF000
01FC0000007FF000
01FC0000003FF000
03FE0000001FF000
0FFF0000001FF000
FFFFF800000FF000
FFFFF8000007F000
000000000007F000
ENDCHAR
STARTCHAR 004F
ENCODING 79
SWIDTH 765 0
DWIDTH 68 0
BBX 58 60 5 -1
BITMAP
000001FFE0000000
00001FFFFE000000
0000FFFFFFC00000
0003FFFFFFF00000
0007FFFFFFF80000
001FFE003FFE0000
003FF00007FF0000
007FC00001FF8000
00FF0000007FC000
01FE0000003FE000
03FC0000000FF000
07F800000007F800
07F000000003F800
0FE000000003FC00
0FE000000001FC00
1FC000000000FE00
1FC000000000FE00
3F80000000007F00
3F80000000007F00
7F00000000003F80
7F00000000003F80
7F00000000003F80
7F00000000003F80
FE00000000001FC0
FE00000000001FC0
FE00000000001FC0
FE00000000001FC0
FE00000000001FC0
FE00000000001FC0
FE00000000001FC0
FE00000000001FC0
FE00000000001FC0
FE00000000001FC0
FE00000000001FC0
FE00000000001FC0
FE00000000001FC0
FE00000000003F80
7F00000000003F80
7F00000000003F80
7F00000000003F80
7F80000000007F00
3F80000000007F00
3F8000000000FF00
3FC000000000FE00
1FE000000001FE00
1FE000000001FC00
0FF000000003F800
07F800000007F800
07FC0000000FF000
03FE0000001FE000
01FF0000003FC000
00FFC00000FF8000
007FE00003FF0000
003FFC000FFE0000
001FFFFFFFFC0000
0007FFFFFFF00000
0001FFFFFFC00000
00007FFFFF000000
00000FFFF8000000
0000001800000000
ENDCHAR
STARTCHAR 0050
ENCODING 80
SWIDTH 551 0
DWIDTH 49 0
BBX 42 59 4 0
BITMAP
F00000000000
FFFFFFE00000
FFFFFFFF0000
07FFFFFFC000
03FFFFFFF000
01FC001FF800
01FC0003FC00
01FC0000FE00
01FC00007F00
00FC00003F00
00FC00003F80
00FC00001F80
00FC00001FC0
00FC00000FC0
00FC00000FC0
00FC00000FC0
00FC00000FC0
00FC00000FC0
00FC00000FC0
00FC00000FC0
00FC00000FC0
00FC00001FC0
00FC00001F80
00FC00001F80
00FC00003F00
00FC00003F00
00FC00007E00
00FC0000FC00
00FC0003F800
00FE001FF000
00FFFFFFC000
00FFFFFF0000
00FFFFF00000
00FC00000000
00FC00000000
00FC00000000
00FC00000000
00FC00000000
00FC00000000
00FC00000000
00FC00000000
00FC00000000
00FC00000000
00FC00000000
00FC00000000
00FC00000000
00FC00000000
00FC00000000
00FC00000000
00FC00000000
01FC00000000
01FC00000000
01FC00000000
01FE00000000
01FE00000000
03FF00000000
0FFF80000000
FFFFFC000000
FFFFFC000000
ENDCHAR
STARTCHAR 0051
ENCODING 81
SWIDTH 765 0
DWIDTH 68 0
BBX 66 71 5 -12
BITMAP
000001FFE000000000
00001FFFFE00000000
0000FFFFFFC0000000
0003FFFFFFF0000000
0007FFFFFFF8000000
001FFE003FFE000000
003FF00007FF000000
007FC00001FF800000
00FF0000007FC00000
01FE0000003FE00000
03FC0000001FF00000
07F80000000FF80000
07F000000007F80000
0FE000000003FC0000
0FE000000001FC0000
1FC000000001FE0000
1FC000000000FE0000
3F80000000007F0000
3F80000000007F0000
7F00000000007F0000
7F00000000003F8000
7F00000000003F8000
7F00000000003F8000
FE00000000001F8000
FE00000000001FC000
FE00000000001FC000
FE00000000001FC000
FE00000000001FC000
FE00000000001FC000
FE00000000001FC000
FE00000000001FC000
FE00000000001FC000
FE00000000001FC000
FE00000000001FC000
FE00000000001FC000
FE00000000001FC000
FE00000000001F8000
7E00000000003F8000
7F00000000003F8000
7F00000000003F8000
7F00000000003F0000
3F80000000007F0000
3F80000000007F0000
3F8000000000FE0000
1FC000000000FE0000
1FC000000001FC0000
0FE000000001FC0000
07F000000003F80000
07F000000007F80000
03F80000000FF00000
01FC0000001FE00000
00FF0000003FC00000
007F8000007F800000
003FE00001FF000000
001FF80007FE000000
0007FF003FF8000000
0003FFFFFFF0000000
0000FFFFFFC0000000
00001FFFFF00000000
0000001FE000000000
000003FFFE00000000
00000FFFFFC0000000
00003FFFFFF8000000
0000FC00FFFE000000
0001E0000FFFC00040
0000800003FFFC03C0
00000000007FFFFF80
00000000001FFFFF00
000000000003FFFE00
000000000000FFF800
0000000000001FE000
ENDCHAR
STARTCHAR 0052
ENCODING 82
SWIDTH 641 0
DWIDTH 57 0
BBX 56 60 4 -1
BITMAP
C0000000000000
F8000000000000
FFFFFFE0000000
FFFFFFFF000000
07FFFFFFC00000
03FFFFFFF00000
01FC001FFC0000
01FC0003FE0000
01FC0000FF0000
01FC00007F0000
01FC00003F8000
00FC00001F8000
00FC00001FC000
00FC00001FC000
00FC00000FC000
00FC00000FC000
00FC00000FC000
00FC00000FC000
00FC00000FC000
00FC00000FC000
00FC00000FC000
00FC00001F8000
00FC00001F8000
00FC00001F0000
00FC00003F0000
00FC00007E0000
00FC0000FC0000
00FC0001F80000
00FC0007F00000
00FF01FFE00000
00FFFFFF800000
00FFFFFC000000
00FFFFE0000000
00FC07F0000000
00FC07F8000000
00FC03F8000000
00FC01FC000000
00FC00FE000000
00FC00FF000000
00FC007F000000
00FC003F800000
00FC003FC00000
00FC001FE00000
00FC000FF00000
00FC000FF00000
00FC0007F80000
00FC0003FC0000
00FC0001FE0000
00FC0001FF0000
00FC0000FF8000
01FC00007FC000
01FC00003FE000
01FC00003FF000
01FE00001FF800
01FE00000FFC00
03FF000007FF80
0FFF800003FFF0
FFFFFC0001FFFE
FFFFFC00007FFF
00000000001FFE
ENDCHAR
STARTCHAR 0053
ENCODING 83
SWIDTH 551 0
DWIDTH 49 0
BBX 40 60 5 -1
BITMAP
0003FFE000
003FFFFF00
00FFFFFFE0
03FFFFFFF0
07FE007FF0
0FF0000FF0
1FE00007F0
1F800003F0
3F800001E0
3F000000E0
7F000000E0
7E000000E0
7E00000000
7E00000000
7E00000000
7E00000000
7F00000000
7F00000000
7F80000000
7F80000000
3FE0000000
3FF0000000
1FFC000000
1FFF800000
0FFFF00000
07FFFE0000
01FFFFC000
00FFFFF800
003FFFFE00
000FFFFF80
0001FFFFC0
00007FFFE0
00000FFFF0
000001FFF8
0000003FFC
0000000FFC
00000007FE
00000003FE
00000001FE
00000000FF
00000000FF
000000007F
000000007F
000000007F
000000007F
700000007F
700000007F
700000007E
78000000FE
78000000FE
7C000000FC
FC000001FC
FE000003F8
FF000007F0
FFC0001FE0
FFFC00FFC0
3FFFFFFF00
07FFFFFC00
007FFFE000
0000700000
ENDCHAR
STARTCHAR 0054
ENCODING 84
SWIDTH 585 0
DWIDTH 52 0
BBX 50 59 1 0
BITMAP
60000000000180
7FFFFFFFFFFF80
7FFFFFFFFFFF80
7FFFFFFFFFFF80
7FFFFFFFFFFFC0
7C0003F8000FC0
700003F80003C0
700003F00001C0
600003F00001C0
600003F00001C0
E00003F00001C0
000003F0000000
000003F0000000
000003F0000000
000003F0000000
000003F0000000
000003F0000000
000003F0000000
000003F0000000
000003F0000000
000003F0000000
000003F0000000
000003F0000000
000003F0000000
000003F0000000
000003F0000000
000003F0000000
000003F0000000
000003F0000000
000003F0000000
000003F0000000
000003F0000000
000003F0000000
000003F0000000
000003F0000000
000003F0000000
000003F0000000
000003F0000000
000003F0000000
000003F0000000
000003F0000000
000003F0000000
000003F0000000
000003F0000000
000003F0000000
000003F0000000
000003F0000000
000003F0000000
000003F0000000
000003F8000000
000003F8000000
000003F8000000
000003F8000000
000007F8000000
000007FC000000
00000FFE000000
00001FFF000000
0007FFFFF80000
0007FFFFFC0000
ENDCHAR
STARTCHAR 0055
ENCODING 85
SWIDTH 720 0
DWIDTH 64 0
BBX 60 60 2 -1
BITMAP
FFFFFC0001FFFFF0
7FFFFC0001FFFFF0
07FFC000000FFE00
03FF00000007FC00
01FF00000003F800
00FE00000003F800
00FE00000001F800
00FE00000001F800
00FE00000001F000
00FE00000001F000
00FE00000001F000
00FE00000001F000
00FE00000001F000
00FC00000001F000
00FC00000001F000
00FC00000001F000
00FC00000001F000
00FC00000001F000
00FC00000001F000
00FC00000001F000
00FC00000001F000
00FC00000001F000
00FC00000001F000
00FC00000001F000
00FC00000001F000
00FC00000001F000
00FC00000001F000
00FC00000001F000
00FC00000001F000
00FC00000001F000
00FC00000001F000
00FC00000001F000
00FC00000001F000
00FC00000001F000
00FC00000001F000
00FC00000001F000
00FC00000001F000
00FC00000001F000
00FE00000001F000
00FE00000001F000
00FE00000001F000
00FE00000001F000
00FE00000001F000
007E00000003F000
007E00000003F000
007F00000003E000
007F00000007E000
003F80000007E000
003F8000000FC000
003FC000001FC000
001FE000001F8000
000FF000007F8000
000FFC0000FF0000
0007FF0007FE0000
0003FFFFFFFC0000
0000FFFFFFF80000
00007FFFFFE00000
00001FFFFF800000
000003FFFC000000
0000000700000000
ENDCHAR
STARTCHAR 0056
ENCODING 86
SWIDTH 675 0
DWIDTH 60 0
BBX 63 60 -1 -1
BITMAP
C000000000000006
FFFFFC00003FFFFE
FFFFFC00001FFFFE
0FFFC0000001FFC0
03FF00000000FF80
01FF00000000FF00
00FF000000007E00
00FF00000000FC00
007F00000000FC00
007F00000000F800
003F80000000F800
003F80000001F000
001F80000001F000
001FC0000001F000
001FC0000003E000
000FC0000003E000
000FE0000003C000
000FE0000007C000
0007F0000007C000
0007F000000F8000
0003F000000F8000
0003F800000F0000
0003F800001F0000
0001F800001F0000
0001FC00001E0000
0001FC00003E0000
0000FE00003C0000
0000FE00003C0000
0000FE00007C0000
00007F0000780000
00007F0000F80000
00003F0000F00000
00003F8000F00000
00003F8001F00000
00001FC001E00000
00001FC001E00000
00001FC003C00000
00000FE003C00000
00000FE007C00000
00000FE007800000
000007F007800000
000007F00F000000
000003F00F000000
000003F80F000000
000003F81E000000
000001FC1E000000
000001FC3E000000
000001FC3C000000
000000FE3C000000
000000FE78000000
000000FE78000000
0000007F70000000
0000007FF0000000
0000003FF0000000
0000003FE0000000
0000003FE0000000
0000001FE0000000
0000001FC0000000
0000001FC0000000
0000000E00000000
ENDCHAR
STARTCHAR 0057
ENCODING 87
SWIDTH 1102 0
DWIDTH 98 0
BBX 100 60 -1 -1
BITMAP
C0000000018000000000000030
FFFFFC0001FFFFF80000FFFFF0
FFFFFC0001FFFFF00000FFFFF0
0FFFC000003FFF8000000FFF00
03FF0000000FFE00000003FC00
01FF00000007FC00000003F800
00FF00000003FC00000003F000
00FF00000003FC00000003F000
007F00000001FC00000003E000
007F00000001FC00000003E000
003F80000001FC00000007C000
003F80000000FE00000007C000
001F80000001FE00000007C000
001FC0000001FE0000000F8000
001FC0000001FF0000000F8000
000FC0000003FF0000000F0000
000FE0000003FF0000001F0000
000FE0000007FF8000001F0000
0007F0000007FF8000003E0000
0007F0000007BFC000003E0000
0003F000000F9FC000003C0000
0003F800000F9FC000007C0000
0003F800000F0FE000007C0000
0001F800001F0FE00000780000
0001FC00001E0FE00000F80000
0001FC00003E07F00000F00000
0000FE00003E07F00001F00000
0000FE00003C07F00001F00000
0000FE00007C03F80001E00000
00007F00007803F80003E00000
00007F00007801FC0003C00000
00003F0000F801FC0003C00000
00003F8000F001FC0007C00000
00003F8001F000FE0007800000
00001FC001E000FE000F800000
00001FC001E000FE000F000000
00001FC003E0007F000F000000
00000FE003C0007F001F000000
00000FE003C0003F801E000000
00000FE00780003F801E000000
000007F00780003F803C000000
000007F00F80001FC03C000000
000003F00F00001FC03C000000
000003F80F00001FC078000000
000003F81E00000FE078000000
000001FC1E00000FE0F0000000
000001FC1E00000FE0F0000000
000001FC3C000007F0F0000000
000000FE3C000007F1E0000000
000000FE78000003F9E0000000
000000FE78000003FBC0000000
0000007F78000003FBC0000000
0000007FF0000001FFC0000000
0000003FF0000001FF80000000
0000003FE0000001FF80000000
0000003FE0000000FF00000000
0000001FE0000000FF00000000
0000001FC00000007F00000000
0000001FC00000007E00000000
0000000E000000007800000000
ENDCHAR
STARTCHAR 0058
ENCODING 88
SWIDTH 663 0
DWIDTH 59 0
BBX 59 59 0 -1
BITMAP
3FFFFF803FFFFF80
3FFFFF803FFFFF80
03FFF00007FFF800
00FFE00000FFE000
003FC000007FC000
003FC000007F0000
001FE000007F0000
000FE00000FE0000
000FF00000FC0000
0007F80001F80000
0003F80001F80000
0003FC0003F00000
0001FC0003E00000
0000FE0007C00000
0000FF0007C00000
00007F000F800000
00003F801F000000
00003F801F000000
00001FC03E000000
00000FE03C000000
000007E07C000000
000007F0F8000000
000003F9F0000000
000001F9F0000000
000001FFE0000000
000000FFC0000000
0000007F80000000
0000007F80000000
0000003F80000000
0000003F80000000
0000007FC0000000
0000007FE0000000
000000FFE0000000
000001F3F0000000
000003F3F8000000
000003E1F8000000
000007C0FC000000
00000F80FE000000
00000F807E000000
00001F003F000000
00003E003F800000
00007C001FC00000
00007C000FC00000
0000F8000FE00000
0001F00007F00000
0001F00003F00000
0003E00003F80000
0007C00001FC0000
000FC00001FC0000
001F800000FE0000
001F000000FF0000
003F0000007F8000
007F0000007F8000
00FF0000007FE000
03FF0000007FF000
0FFFC00001FFFE00
FFFFFE000FFFFFE0
FFFFFE001FFFFFE0
800002000C000060
ENDCHAR
STARTCHAR 0059
ENCODING 89
SWIDTH 607 0
DWIDTH 54 0
BBX 57 58 -1 0
BITMAP
FFFFFE003FFFFF80
7FFFFC001FFFFF00
07FF800000FFF000
01FF0000007FC000
00FF0000007F8000
007F8000007F0000
007F8000007E0000
003FC00000FC0000
001FC00000FC0000
001FE00001F80000
000FE00001F00000
0007F00003F00000
0007F00003E00000
0003F80007C00000
0003F80007C00000
0001FC000F800000
0000FE000F000000
0000FE001F000000
00007F001E000000
00003F003E000000
00003F803C000000
00001F8078000000
00001FC078000000
00000FC0F0000000
000007E1F0000000
000007F1E0000000
000003F3E0000000
000003FBC0000000
000001FF80000000
000001FF80000000
000000FF00000000
000000FF00000000
0000007F00000000
0000007E00000000
0000007E00000000
0000007E00000000
0000007E00000000
0000007E00000000
0000007E00000000
0000007E00000000
0000007E00000000
0000007E00000000
0000007E00000000
0000007E00000000
0000007E00000000
0000007E00000000
0000007E00000000
0000007E00000000
0000007F00000000
0000007F00000000
0000007F00000000
0000007F00000000
000000FF00000000
000000FF00000000
000001FF80000000
000003FFE0000000
00007FFFFE000000
00007FFFFE000000
ENDCHAR
STARTCHAR 005A
ENCODING 90
SWIDTH 618 0
DWIDTH 55 0
BBX 48 59 3 0
BITMAP
0FFFFFFFFFFE
1FFFFFFFFFFE
1FFFFFFFFFFC
1FFFFFFFFFFC
1FFFFFFFFFF8
1F8000003FF0
1E0000003FE0
3C0000007FE0
380000007FC0
38000000FF80
30000000FF00
00000001FE00
00000001FE00
00000003FC00
00000007F800
00000007F800
0000000FF000
0000000FE000
0000001FC000
0000003FC000
0000003F8000
0000007F0000
0000007E0000
000000FE0000
000001FC0000
000001F80000
000003F80000
000007F00000
000007E00000
00000FE00000
00001FC00000
00001F800000
00003F800000
00007F000000
00007E000000
0000FE000000
0001FC000000
0001F8000000
0003F8000000
0007F0000000
000FE0000000
000FE0000000
001FC0000000
003FC0000000
003F80000000
007F00000000
00FF00000000
01FE00000007
01FE0000000E
03FC0000000E
07F80000000E
0FF80000001E
1FF00000007E
1FF0000003FE
3FFFFFFFFFFE
7FFFFFFFFFFE
FFFFFFFFFFFC
FFFFFFFFFFFC
FFFFFFFFFFFC
ENDCHAR
STARTCHAR 005B
ENCODING 91
SWIDTH 281 0
DWIDTH 25 0
BBX 16 75 7 -9
BITMAP
FFFF
FFFF
FFC0
FF80
7F00
7E00
7E00
7E00
7E00
7E00
7E00
7E00
7E00
7E00
7E00
7E00
7E00
7E00
7E00
7E00
7E00
7E00
7E00
7E00
7E00
7E00
7E00
7E00
7E00
7E00
7E00
7E00
7E00
7E00
7E00
7E00
7E00
7E00
7E00
7E00
7E00
7E00
7E00
7E00
7E00
7E00
7E00
7E00
7E00
7E00
7E00
7E00
7E00
7E00
7E00
7E00
7E00
7E00
7E00
7E00
7E00
7E00
7E00
7E00
7E00
7E00
7E00
7E00
7E00
7E00
FF00
FF80
FFC0
FFFF
FFFF
ENDCHAR
STARTCHAR 005C
ENCODING 92
SWIDTH 438 0
DWIDTH 39 0
BBX 32 67 3 -5
BITMAP
FF000000
7F000000
7F000000
3F000000
3F800000
1F800000
1F800000
1FC00000
0FC00000
0FC00000
07E00000
07E00000
07E00000
03F00000
03F00000
01F00000
01F80000
01F80000
00F80000
00FC0000
007C0000
007C0000
007E0000
003E0000
003F0000
001F0000
001F0000
001F8000
000F8000
000F8000
000FC000
0007C000
0007C000
0003E000
0003E000
0003E000
0001F000
0001F000
0001F800
0000F800
0000F800
0000FC00
00007C00
00007C00
00003E00
00003E00
00003F00
00001F00
00001F00
00001F80
00000F80
00000F80
00000FC0
000007C0
000007E0
000007E0
000003E0
000003F0
000003F0
000001F8
000001F8
000001FC
000000FC
000000FE
000000FE
000000FF
0000007F
ENDCHAR
STARTCHAR 005D
ENCODING 93
SWIDTH 281 0
DWIDTH 25 0
BBX 17 75 1 -9
BITMAP
FFFF80
7FFF00
01FF00
00FF00
007F00
007F00
003F00
003F00
003F00
003F00
003F00
003F00
003F00
003F00
003F00
003F00
003F00
003F00
003F00
003F00
003F00
003F00
003F00
003F00
003F00
003F00
003F00
003F00
003F00
003F00
003F00
003F00
003F00
003F00
003F00
003F00
003F00
003F00
003F00
003F00
003F00
003F00
003F00
003F00
003F00
003F00
003F00
003F00
003F00
003F00
003F00
003F00
003F00
003F00
003F00
003F00
003F00
003F00
003F00
003F00
003F00
003F00
003F00
003F00
003F00
003F00
003F00
003F00
003F00
007F00
007F00
00FF00
03FF00
7FFF80
FFFF80
ENDCHAR
STARTCHAR 005E
ENCODING 94
SWIDTH 348 0
DWIDTH 31 0
BBX 21 11 5 49
BITMAP
002000
00F800
01FC00
03FE00
07FF00
0FFF80
1F9FC0
3F07E0
7C01F0
F00078
E00038
ENDCHAR
STARTCHAR 005F
ENCODING 95
SWIDTH 461 0
DWIDTH 41 0
BBX 39 5 1 -5
BITMAP
FFFFFFFFFE
FFFFFFFFFE
FFFFFFFFFE
FFFFFFFFFE
FFFFFFFFFE
ENDCHAR
STARTCHAR 0060
ENCODING 96
SWIDTH 213 0
DWIDTH 19 0
BBX 19 12 0 48
BITMAP
700000
FC0000
FF0000
FF8000
FFE000
3FF800
07FE00
00FF80
003FE0
0007E0
0000E0
000020
ENDCHAR
STARTCHAR 0061
ENCODING 97
SWIDTH 495 0
DWIDTH 44 0
BBX 40 43 3 -1
BITMAP
0007FE0000
00FFFFC000
07FFFFF000
0FFFBFF800
0FE003FC00
0F8000FE00
0F00007F00
0F00003F00
0600003F80
0600001F80
0000001F80
0000001F80
0000001F80
0000001F80
0000001F80
0000001F80
0000001F80
0003FFFF80
001FFFFF80
00FFFFFF80
03FFE01F80
07FC001F80
0FF0001F80
1FC0001F80
3F80001F80
7F00001F80
7E00001F80
7E00001F80
FE00001F80
FE00001F80
FE00003F80
FE00003F80
FE00007F80
7E0000FF80
7F0003DF80
7F8007BF80
3FC03F3F80
3FFFFE3F80
1FFFFC3FC0
0FFFF83FE0
07FFE03FFF
01FF803FFF
0010000000
ENDCHAR
STARTCHAR 0062
ENCODING 98
SWIDTH 596 0
DWIDTH 53 0
BBX 47 67 2 -1
BITMAP
001800000000
FFFC00000000
FFF800000000
0FF800000000
03F800000000
03F800000000
01F800000000
01F800000000
01F800000000
01F800000000
01F800000000
01F800000000
01F800000000
01F800000000
01F800000000
01F800000000
01F800000000
01F800000000
01F800000000
01F800000000
01F800000000
01F800000000
01F800000000
01F800000000
01F800FF8000
01F807FFF000
01F81FFFFC00
01F83FFFFE00
01F8FFFFFF80
01F9FE01FFC0
01FBF8007FC0
01FBE0001FE0
01FFC0000FF0
01FF000007F8
01FF000003F8
01FE000003F8
01FC000001FC
01FC000001FC
01F8000001FC
01F8000000FE
01F8000000FE
01F8000000FE
01F8000000FE
01F8000000FE
01F8000000FE
01F8000000FE
01F8000000FE
01F8000000FE
01F8000000FE
01F8000000FE
01F8000000FE
01F8000001FC
01FC000001FC
01FC000001FC
01FE000003F8
01FE000003F8
01FF000007F0
01FF80000FF0
01FFC0001FE0
01FBF0003FC0
03F9F800FFC0
03F9FFFFFF80
03F8FFFFFE00
07F83FFFFC00
FFFC1FFFF000
FFFC03FFC000
000000100000
ENDCHAR
STARTCHAR 0063
ENCODING 99
SWIDTH 506 0
DWIDTH 45 0
BBX 38 43 4 -1
BITMAP
00003FF800
0003FFFF80
000FFFFFF0
003FFDFFF8
00FF0007F8
01FC0001F8
03F80000F0
07F0000070
0FE0000070
0FC0000030
1F80000000
3F80000000
3F00000000
7F00000000
7F00000000
7E00000000
FE00000000
FE00000000
FE00000000
FE00000000
FE00000000
FE00000000
FE00000000
FE00000000
FE00000000
FE00000000
7F00000000
7F00000000
7F00000000
3F80000000
3FC0000000
3FC0000000
1FE0000000
0FF0000000
0FF8000008
07FE00003C
03FF8001F8
01FFFFFFF8
007FFFFFF0
003FFFFFC0
000FFFFF00
0001FFF000
0000060000
ENDCHAR
STARTCHAR 0064
ENCODING 100
SWIDTH 596 0
DWIDTH 53 0
BBX 47 67 4 -1
BITMAP
000000000180
0000000FFF80
0000000FFF80
00000000FF80
000000007F80
000000003F80
000000003F80
000000003F80
000000003F00
000000003F00
000000003F00
000000003F00
000000003F00
000000003F00
000000003F00
000000003F00
000000003F00
000000003F00
000000003F00
000000003F00
000000003F00
000000003F00
000000003F00
000000003F00
0001FF003F00
000FFFE03F00
003FFFF83F00
007FFFFC3F00
01FFFFFE3F00
03FF80FF3F00
07FC001FBF00
0FF8000FDF00
0FF00003DF00
1FE00001FF00
1FC00001FF00
3F800000FF00
3F8000007F00
7F0000007F00
7F0000003F00
7F0000003F00
7F0000003F00
FE0000003F00
FE0000003F00
FE0000003F00
FE0000003F00
FE0000003F00
FE0000003F00
FE0000003F00
FE0000003F00
FE0000003F00
7E0000003F00
7F0000003F00
7F0000003F00
7F0000007F00
3F8000007F00
3F800000FF80
1FC00001FF80
1FE00003FF80
0FF00007FF80
0FF8000FBF80
07FE003F3F80
03FFFFFF3F80
01FFFFFC3F80
007FFFF83FC0
003FFFF03FFE
0007FF803FFE
000030000000
ENDCHAR
STARTCHAR 0065
ENCODING 101
SWIDTH 528 0
DWIDTH 47 0
BBX 39 43 4 -1
BITMAP
0000FF8000
0007FFF800
001FFFFE00
007FF3FF00
00FF003FC0
01FC000FE0
03F00007E0
07E00003F0
0FC00003F8
1FC00001F8
1F800001FC
3F000001FC
3F000000FE
7F000000FE
7E000001FE
7FFFFFFFFE
7FFFFFFFFE
FFFFFFFFFE
FE00000000
FE00000000
FE00000000
FE00000000
FE00000000
FE00000000
FE00000000
FE00000000
7F00000000
7F00000000
7F00000000
7F80000000
3F80000000
3FC0000000
1FE0000000
1FF0000000
0FF8000000
07FE000018
03FF8000F8
01FFFFFFF0
00FFFFFFE0
003FFFFFC0
000FFFFF00
0003FFF800
00000C0000
ENDCHAR
STARTCHAR 0066
ENCODING 102
SWIDTH 337 0
DWIDTH 30 0
BBX 31 65 3 0
BITMAP
00007F80
0001FFF0
0007FFFC
000FFFFE
001F81FE
003E007C
003C003C
007C001C
0078001C
00F8001C
00F80000
00F80000
00F80000
01F80000
01F80000
01F80000
01F80000
01F80000
01F80000
01F80000
01F80000
01F80000
01F80000
01F80000
01F80000
1FFFFF80
FFFFFF80
FFFFFF80
01F80000
01F80000
01F80000
01F80000
01F80000
01F80000
01F80000
01F80000
01F80000
01F80000
01F80000
01F80000
01F80000
01F80000
01F80000
01F80000
01F80000
01F80000
01F80000
01F80000
01F80000
01F80000
01F80000
01F80000
01F80000
01F80000
01F80000
01F80000
01F80000
01F80000
01F80000
01F80000
03FC0000
03FC0000
07FE0000
FFFFF800
FFFFF800
ENDCHAR
STARTCHAR 0067
ENCODING 103
SWIDTH 506 0
DWIDTH 45 0
BBX 40 65 3 -23
BITMAP
0003FE0003
001FFFFFFF
007FFFFFFF
01FFFFFFFF
03FC03FFFF
07F000FE00
0FE0007F00
0FC0003F80
1FC0001F80
1F80001FC0
3F80000FC0
3F00000FE0
3F00000FE0
3F000007E0
7F000007E0
7F000007E0
7F000007E0
7F000007E0
7F000007E0
3F000007E0
3F00000FE0
3F80000FE0
3F80001FC0
1FC0001FC0
1FE0003F80
0FF0007F00
07F800FF00
03FE03FC00
01FFFFF800
00FFFFE000
003FFF8000
007E000000
01F8000000
03F0000000
07F0000000
07F0000000
07F8000000
07FF800000
07FFFFC000
03FFFFFC00
01FFFFFF80
007FFFFFE0
01FFFFFFF0
07F00FFFF8
0FC0001FFC
1F000007FC
3E000001FE
7E000000FE
7C0000007E
FC0000007E
FC0000007E
FC0000007E
FC0000007E
FC0000007E
FE000000FE
FE000001FC
7F800003FC
7FE0000FF8
3FFC007FF8
1FFFFFFFF0
0FFFFFFFE0
07FFFFFF80
01FFFFFF00
007FFFF800
0007FF8000
ENDCHAR
STARTCHAR 0068
ENCODING 104
SWIDTH 596 0
DWIDTH 53 0
BBX 50 66 2 0
BITMAP
00180000000000
FFF80000000000
FFF80000000000
0FF80000000000
07F80000000000
03F80000000000
03F80000000000
03F80000000000
01F80000000000
01F80000000000
01F80000000000
01F80000000000
01F80000000000
01F80000000000
01F80000000000
01F80000000000
01F80000000000
01F80000000000
01F80000000000
01F80000000000
01F80000000000
01F80000000000
01F80000000000
01F80000000000
01F801FF000000
01F807FFE00000
01F81FFFF80000
01F83FFFFC0000
01F8FFFFFE0000
01F9FE03FF0000
01F9F000FF8000
01F3E0007F8000
01F780003FC000
01FF00001FC000
01FE00001FC000
01FE00000FE000
01FC00000FE000
01F800000FE000
01F8000007E000
01F8000007E000
01F8000007E000
01F8000007E000
01F8000007E000
01F8000007E000
01F8000007E000
01F8000007E000
01F8000007E000
01F8000007E000
01F8000007E000
01F8000007E000
01F8000007E000
01F8000007E000
01F8000007E000
01F8000007E000
01F8000007E000
01F8000007E000
01F8000007E000
01F8000007E000
03F8000007E000
03F8000007E000
03F800000FE000
03F800000FE000
03FC00000FF000
0FFE00000FF800
FFFFE0000FFFC0
FFFFF0000FFFC0
ENDCHAR
STARTCHAR 0069
ENCODING 105
SWIDTH 281 0
DWIDTH 25 0
BBX 20 60 3 0
BITMAP
01E000
07F000
07F800
0FF800
0FF800
07F800
07F000
01E000
000000
000000
000000
000000
000000
000000
000000
000000
000000
000000
000800
FFF800
FFF800
0FF800
07F800
03F800
03F800
01F800
01F800
01F800
01F800
01F800
01F800
01F800
01F800
01F800
01F800
01F800
01F800
01F800
01F800
01F800
01F800
01F800
01F800
01F800
01F800
01F800
01F800
01F800
01F800
01F800
01F800
01F800
01F800
03F800
03F800
03F800
03FC00
07FE00
FFFFE0
FFFFF0
ENDCHAR
STARTCHAR 006A
ENCODING 106
SWIDTH 247 0
DWIDTH 22 0
BBX 16 83 -1 -23
BITMAP
003C
00FE
00FF
00FF
01FF
00FF
00FE
003C
0000
0000
0000
0000
0000
0000
0000
0000
0000
0000
0000
0003
1FFF
1FFF
01FF
00FF
007F
007F
007F
003F
003F
003F
003F
003F
003F
003F
003F
003F
003F
003F
003F
003F
003F
003F
003F
003F
003F
003F
003F
003F
003F
003F
003F
003F
003F
003F
003F
003F
003F
003F
003F
003F
003F
003F
003F
003F
003F
003E
007E
007E
007E
007E
007C
007C
007C
0078
0078
00F0
00F0
01E0
03C0
07C0
0F00
FE00
F800
ENDCHAR
STARTCHAR 006B
ENCODING 107
SWIDTH 528 0
DWIDTH 47 0
BBX 45 66 2 -1
BITMAP
001800000000
FFF800000000
FFF800000000
0FF800000000
07F800000000
03F800000000
03F800000000
03F800000000
01F800000000
01F800000000
01F800000000
01F800000000
01F800000000
01F800000000
01F800000000
01F800000000
01F800000000
01F800000000
01F800000000
01F800000000
01F800000000
01F800000000
01F800000000
01F800000000
01F800000000
01F800FFFF80
01F800FFFF80
01F8001FFE00
01F8000FF000
01F8000FC000
01F8000F8000
01F8001F0000
01F8003E0000
01F800780000
01F801F00000
01F803E00000
01F807C00000
01F80F800000
01F81F000000
01F83E000000
01F878000000
01F8FC000000
01FBFE000000
01FFFF000000
01FFFF000000
01FF3F800000
01FE3FC00000
01FC1FE00000
01F80FF00000
01F807F80000
01F803F80000
01F803FC0000
01F801FE0000
01F800FF0000
01F8007F8000
01F8007FC000
01F8003FC000
03F8001FE000
03F8000FF000
03F80007F800
03F80007FC00
03FC0003FF00
0FFE0001FF80
FFFFE000FFF8
FFFFF0007FF8
000000001FF8
ENDCHAR
STARTCHAR 006C
ENCODING 108
SWIDTH 270 0
DWIDTH 24 0
BBX 20 66 2 0
BITMAP
000800
FFFC00
FFFC00
0FF800
07F800
03F800
03F800
01F800
01F800
01F800
01F800
01F800
01F800
01F800
01F800
01F800
01F800
01F800
01F800
01F800
01F800
01F800
01F800
01F800
01F800
01F800
01F800
01F800
01F800
01F800
01F800
01F800
01F800
01F800
01F800
01F800
01F800
01F800
01F800
01F800
01F800
01F800
01F800
01F800
01F800
01F800
01F800
01F800
01F800
01F800
01F800
01F800
01F800
01F800
01F800
01F800
01F800
01F800
01F800
01F800
01F800
03FC00
03FC00
07FE00
FFFFF0
FFFFF0
ENDCHAR
STARTCHAR 006D
ENCODING 109
SWIDTH 922 0
DWIDTH 82 0
BBX 78 42 3 0
BITMAP
000001FE00000FF00000
FFF80FFFC0007FFE0000
FFF83FFFF001FFFF8000
0FF87FFFF803FFFFC000
07F8FFFFFC07FFFFE000
03F9FC07FE0FE03FF000
03FBF001FF1F800FF800
01FBC0007F1E0003F800
01FF80003FBC0001FC00
01FF00003FF80001FC00
01FE00001FF00000FC00
01FE00001FF00000FE00
01FC00001FE00000FE00
01F800000FC000007E00
01F800000FC000007E00
01F800000FC000007E00
01F800000FC000007E00
01F800000FC000007E00
01F800000FC000007E00
01F800000FC000007E00
01F800000FC000007E00
01F800000FC000007E00
01F800000FC000007E00
01F800000FC000007E00
01F800000FC000007E00
01F800000FC000007E00
01F800000FC000007E00
01F800000FC000007E00
01F800000FC000007E00
01F800000FC000007E00
01F800000FC000007E00
01F800000FC000007E00
01F800000FC000007E00
01F800000FC000007E00
01F800000FC000007E00
03F800000FC000007E00
03F800000FC000007E00
03F800001FE000007F00
03FC00001FE00000FF00
07FE00003FF00000FF80
FFFFE007FFFF8000FFFC
FFFFF007FFFF8000FFFC
ENDCHAR
STARTCHAR 006E
ENCODING 110
SWIDTH 607 0
DWIDTH 54 0
BBX 50 42 3 0
BITMAP
000000FF000000
FFF807FFE00000
FFF81FFFF80000
0FF83FFFFC0000
07F8FFFFFE0000
03F9FE03FF0000
03F9F000FF8000
01FBE0007F8000
01FF80003FC000
01FF00001FC000
01FE00001FC000
01FE00000FE000
01FC00000FE000
01F800000FE000
01F8000007E000
01F8000007E000
01F8000007E000
01F8000007E000
01F8000007E000
01F8000007E000
01F8000007E000
01F8000007E000
01F8000007E000
01F8000007E000
01F8000007E000
01F8000007E000
01F8000007E000
01F8000007E000
01F8000007E000
01F8000007E000
01F8000007E000
01F8000007E000
01F8000007E000
01F8000007E000
01F8000007E000
03F8000007E000
03F8000007E000
03F800000FF000
03FC00000FF000
07FE00000FF800
FFFFE0000FFFC0
FFFFF0000FFFC0
ENDCHAR
STARTCHAR 006F
ENCODING 111
SWIDTH 585 0
DWIDTH 52 0
BBX 44 43 4 -1
BITMAP
00007FE00000
0007FFFE0000
001FFFFF8000
007FFBFFC000
00FF001FF000
01FC0007F800
03F80003FC00
07F00001FE00
0FE00000FF00
1FC000007F00
1F8000003F80
3F8000003FC0
3F0000001FC0
7F0000001FC0
7F0000000FE0
7E0000000FE0
FE0000000FE0
FE00000007E0
FE00000007F0
FE00000007F0
FE00000007F0
FE00000007F0
FE00000007F0
FE00000007F0
FE00000007F0
FE00000007F0
7E0000000FE0
7F0000000FE0
7F0000000FE0
7F8000000FE0
3F8000001FC0
3FC000001FC0
1FC000003F80
0FE000007F80
0FF000007F00
07F80000FE00
03FC0003FC00
01FF0007F800
00FFC03FF000
003FFFFFC000
000FFFFF0000
0003FFFC0000
000006000000
ENDCHAR
STARTCHAR 0070
ENCODING 112
SWIDTH 596 0
DWIDTH 53 0
BBX 47 65 2 -23
BITMAP
000001FF8000
001807FFF000
FFF81FFFFC00
FFF87FFFFE00
0FF8FFFFFF00
07F9FE01FFC0
03FBF0007FC0
03FBE0001FE0
01FFC0000FF0
01FF000007F0
01FE000007F8
01FE000003F8
01FC000001FC
01FC000001FC
01F8000001FC
01F8000000FE
01F8000000FE
01F8000000FE
01F8000000FE
01F8000000FE
01F8000000FE
01F8000000FE
01F8000000FE
01F8000000FE
01F8000000FE
01F8000000FE
01F8000000FE
01F8000001FC
01F8000001FC
01FC000001FC
01FC000003F8
01FE000003F8
01FF000007F0
01FF80000FF0
01F7C0001FE0
01FBE0003FC0
01FBF800FF80
01F9FFFFFF00
01F8FFFFFE00
01F83FFFFC00
01F81FFFF000
01F803FFC000
01F800100000
01F800000000
01F800000000
01F800000000
01F800000000
01F800000000
01F800000000
01F800000000
01F800000000
01F800000000
01F800000000
01F800000000
01F800000000
01F800000000
01F800000000
01F800000000
03F800000000
03F800000000
03F800000000
03FC00000000
07FE00000000
FFFFE0000000
FFFFF0000000
ENDCHAR
STARTCHAR 0071
ENCODING 113
SWIDTH 596 0
DWIDTH 53 0
BBX 47 65 4 -23
BITMAP
0001FF000000
000FFFE03000
003FFFF83FFE
007FFFFC3FFE
01FFFFFE3FE0
03FF80FF3FC0
07FC001FBF80
0FF8000FDF80
0FF00003FF80
1FE00001FF80
1FC00001FF80
3F800000FF00
3F8000007F00
7F0000007F00
7F0000003F00
7F0000003F00
7F0000003F00
FE0000003F00
FE0000003F00
FE0000003F00
FE0000003F00
FE0000003F00
FE0000003F00
FE0000003F00
FE0000003F00
FE0000003F00
7E0000003F00
7F0000003F00
7F0000003F00
7F0000007F00
3F8000007F00
3F800000FF00
1FC00001FF00
1FE00003FF00
0FF00007DF00
0FF8000F9F00
07FE003F9F00
03FFFFFF3F00
01FFFFFC3F00
007FFFF83F00
003FFFF03F00
0007FFC03F00
000030003F00
000000003F00
000000003F00
000000003F00
000000003F00
000000003F00
000000003F00
000000003F00
000000003F00
000000003F00
000000003F00
000000003F00
000000003F80
000000003F80
000000003F80
000000003F80
000000003F80
000000003F80
000000003F80
000000007F80
00000000FFE0
0000000FFFFE
0000001FFFFE
ENDCHAR
STARTCHAR 0072
ENCODING 114
SWIDTH 405 0
DWIDTH 36 0
BBX 32 42 3 0
BITMAP
000003F8
FFF80FFE
FFF81FFF
0FF83FFE
07F87FFE
03F8FFFE
03F9F07E
01F9E01E
01FB801E
01F30000
01F70000
01FE0000
01FC0000
01FC0000
01F80000
01F80000
01F80000
01F80000
01F80000
01F80000
01F80000
01F80000
01F80000
01F80000
01F80000
01F80000
01F80000
01F80000
01F80000
01F80000
01F80000
01F80000
01F80000
01F80000
01F80000
03F80000
03F80000
03F80000
03FC0000
07FE0000
FFFFF800
FFFFF800
ENDCHAR
STARTCHAR 0073
ENCODING 115
SWIDTH 438 0
DWIDTH 39 0
BBX 32 43 4 -1
BITMAP
001FF800
01FFFF00
03FFFFE0
0FFEFFF8
1FC007F8
3F8001F8
3F0000F8
7F000070
7E000070
7E000030
7E000030
7E000000
7E000000
7F000000
7F800000
7FC00000
3FF00000
3FFF0000
1FFFF000
0FFFFF00
03FFFFC0
00FFFFE0
000FFFF8
0000FFFC
00000FFC
000003FE
000001FE
000000FE
0000007F
0000007F
3000007F
7000007E
7000007E
7800007E
780000FE
7C0000FC
7E0001F8
7F0007F8
FFC01FF0
7FFFFFC0
1FFFFF80
01FFFC00
00030000
ENDCHAR
STARTCHAR 0074
ENCODING 116
SWIDTH 326 0
DWIDTH 29 0
BBX 25 56 2 -1
BITMAP
001C0000
01FC0000
01F80000
01F80000
01F80000
01F80000
01F80000
01F80000
01F80000
01F80000
01F80000
01F80000
01F80000
01F80000
07FFFF80
FFFFFF80
FFFFFF80
01F80000
01F80000
01F80000
01F80000
01F80000
01F80000
01F80000
01F80000
01F80000
01F80000
01F80000
01F80000
01F80000
01F80000
01F80000
01F80000
01F80000
01F80000
01F80000
01F80000
01F80000
01F80000
01F80000
01F80000
01F80000
01F80000
01F80000
03F80000
03F80000
03F80000
03F80000
01F80000
01F80000
01FC0180
01FE0F00
00FFFF00
007FFE00
003FF800
00020000
ENDCHAR
STARTCHAR 0075
ENCODING 117
SWIDTH 596 0
DWIDTH 53 0
BBX 49 43 2 -1
BITMAP
00180000006000
FFF80003FFE000
FFF80003FFE000
0FF800003FE000
07F800001FE000
03F800000FE000
03F800000FE000
03F800000FE000
03F000000FC000
03F000000FC000
03F000000FC000
03F000000FC000
03F000000FC000
03F000000FC000
03F000000FC000
03F000000FC000
03F000000FC000
03F000000FC000
03F000000FC000
03F000000FC000
03F000000FC000
03F000000FC000
03F000000FC000
03F000000FC000
03F000000FC000
03F000000FC000
03F000000FC000
03F000000FC000
03F800000FC000
03F800000FC000
01F800001FC000
01F800001FC000
01FC00003FE000
01FC00007FE000
00FE0000FFE000
00FF0001EFE000
007F8003CFE000
007FC00FCFE000
003FFFFF0FE000
001FFFFE0FF000
0007FFFC0FFF80
0001FFE01FFF80
00000C00000000
ENDCHAR
STARTCHAR 0076
ENCODING 118
SWIDTH 517 0
DWIDTH 46 0
BBX 46 42 0 -1
BITMAP
800040040004
FFFFC007FFFC
FFFF0001FFF8
1FFC00007FE0
07F800003FC0
07F800003F80
03F800003F00
03F800003F00
01F800003E00
01FC00007E00
00FC00007C00
00FC00007C00
00FE00007800
007E0000F800
007E0000F800
003F0000F000
003F0001F000
003F0001E000
001F8003E000
001F8003E000
000F8003C000
000FC007C000
0007C0078000
0007E00F8000
0007E00F8000
0003E00F0000
0003F01F0000
0003F01E0000
0001F03E0000
0001F83E0000
0000F87C0000
0000FC7C0000
0000FC7C0000
00007CF80000
00007EF80000
00007FF00000
00003FF00000
00003FF00000
00001FE00000
00001FE00000
00001FC00000
000008000000
ENDCHAR
STARTCHAR 0077
ENCODING 119
SWIDTH 821 0
DWIDTH 73 0
BBX 73 42 0 -1
BITMAP
80004008001000800080
FFFFC00FFFF000FFFF80
FFFF0007FFE0003FFF00
1FFC0001FF80000FFC00
07F80000FF000007F800
07F800007F000007F000
03F800007F000007E000
03F800003F000007E000
01F800003F800007C000
01FC00007F800007C000
00FC00007F80000F8000
00FC00007F80000F8000
00FE00007FC0000F0000
007E0000FFC0001F0000
007E0000F7C0001F0000
003F0000F7E0001E0000
003F0001E7E0003E0000
003F0001E3F0003C0000
001F8003E3F0003C0000
001F8003C3F0007C0000
000F8003C1F800780000
000FC007C1F800F80000
000FC00780F800F00000
0007E00F80FC00F00000
0007E00F00FC01F00000
0003E00F007E01E00000
0003F01F007E03E00000
0003F01E003E03E00000
0001F03E003F03C00000
0001F83E003F07C00000
0000F87C001F07800000
0000FC7C001F8F800000
0000FC78000F8F800000
00007CF8000FDF000000
00007EF8000FDF000000
00007FF00007DE000000
00003FF00007FE000000
00003FE00003FE000000
00001FE00003FC000000
00001FE00003FC000000
00001FC00001F8000000
00000800000100000000
ENDCHAR
STARTCHAR 0078
ENCODING 120
SWIDTH 528 0
DWIDTH 47 0
BBX 45 42 1 -1
BITMAP
200020100020
3FFFE01FFFE0
3FFF8007FFE0
07FE0001FE00
01FE0001F800
00FE0001F000
007E0003E000
007F0003E000
003F8007C000
001F80078000
000FC00F8000
000FE01F0000
0007E01E0000
0003F03C0000
0001F87C0000
0001FCF80000
0000FCF00000
00007FE00000
00003FE00000
00003FC00000
00001F800000
00003FC00000
00007FE00000
00007FF00000
0000FBF00000
0001F1F80000
0001E0FC0000
0003C07E0000
0007C07F0000
000F803F0000
000F001F8000
001E001FC000
003C000FE000
007C0007E000
00F80007F000
00F00003F800
01F00001FC00
03F00001FE00
0FF00001FF80
7FFE0007FFF0
FFFF001FFFF8
000000100008
ENDCHAR
STARTCHAR 0079
ENCODING 121
SWIDTH 517 0
DWIDTH 46 0
BBX 46 64 0 -23
BITMAP
800040040004
FFFFC007FFFC
FFFFC007FFFC
7FFE0001FFF8
0FFC00007FE0
07F800003FC0
07F800003F80
03F800003F00
03F800003F00
01F800003E00
01FC00007E00
00FC00007C00
00FC00007C00
00FE0000FC00
007E0000F800
007E0000F800
003F0001F000
003F0001F000
001F0001F000
001F8003E000
001F8003E000
000FC007C000
000FC007C000
0007C007C000
0007E00F8000
0007E00F8000
0003F01F0000
0003F01F0000
0001F01F0000
0001F83E0000
0001F83E0000
0000F87C0000
0000FC7C0000
00007CFC0000
00007EF80000
00007EF80000
00003FF00000
00003FF00000
00001FF00000
00001FE00000
00001FE00000
00000FC00000
00000FC00000
00000FC00000
00000F800000
00001F800000
00001F000000
00001F000000
00003F000000
00003E000000
00007E000000
00007C000000
0000FC000000
0000F8000000
0001F8000000
0001F0000000
0003F0000000
0007E0000000
000FC0000000
001F80000000
007E00000000
1FFC00000000
1FE000000000
1F8000000000
ENDCHAR
STARTCHAR 007A
ENCODING 122
SWIDTH 483 0
DWIDTH 43 0
BBX 37 41 3 0
BITMAP
00000000E0
3FFFFFFFF0
3FFFFFFFE0
3FFFFFFFE0
3F8000FFC0
3C0001FF80
380001FF00
380003FE00
300003FE00
700007FC00
300007F800
00000FF000
00000FF000
00001FE000
00003FC000
00003FC000
00007F8000
00007F0000
0000FF0000
0001FE0000
0001FC0000
0003FC0000
0007F80000
0007F00000
000FF00000
001FE00000
001FC00000
003FC00000
007F800000
00FF000000
00FF000038
01FE000038
03FE000030
07FC000070
07F8000070
0FF80000F0
1FF00003F0
3FFFFFFFF0
7FFFFFFFF0
FFFFFFFFE0
FFFFFFFFE0
ENDCHAR
STARTCHAR 007B
ENCODING 123
SWIDTH 258 0
DWIDTH 23 0
BBX 18 77 2 -9
BITMAP
0007C0
001F80
007C00
00F800
00F800
01F000
01F000
01F000
03F000
03F000
03F000
03F000
03F000
03F000
03F000
03F000
03F000
03F000
03F000
03F000
03F000
03F000
03F000
03F000
03F000
03F000
03F000
03E000
03E000
03E000
03E000
03E000
03C000
07C000
078000
0F8000
0F0000
3C0000
E00000
3C0000
0F0000
078000
078000
07C000
03C000
03E000
03E000
03E000
03E000
03E000
03F000
03F000
03F000
03F000
03F000
03F000
03F000
03F000
03F000
03F000
03F000
03F000
03F000
03F000
03F000
03F000
03F000
03F000
03F000
01F000
01F000
01F000
00F000
00F800
007C00
001F00
0007C0
ENDCHAR
STARTCHAR 007C
ENCODING 124
SWIDTH 236 0
DWIDTH 21 0
BBX 7 78 7 -10
BITMAP
FE
FE
FE
FE
FE
FE
7C
7C
7C
7C
7C
7C
7C
7C
7C
7C
7C
7C
7C
7C
7C
7C
7C
7C
7C
7C
7C
7C
7C
7C
7C
7C
7C
7C
7C
7C
7C
7C
7C
7C
7C
7C
7C
7C
7C
7C
7C
7C
7C
7C
7C
7C
7C
7C
7C
7C
7C
7C
7C
7C
7C
7C
7C
7C
7C
7C
7C
7C
7C
7C
7C
7C
7E
FE
FE
FE
FE
FE
ENDCHAR
STARTCHAR 007D
ENCODING 125
SWIDTH 258 0
DWIDTH 23 0
BBX 19 77 2 -9
BITMAP
F80000
3F0000
0F8000
07C000
03E000
03E000
01F000
01F000
01F000
01F000
01F000
01F000
01F000
01F000
01F000
01F000
01F000
01F000
01F000
01F000
01F000
01F000
01F000
01F000
01F000
01F000
01F000
01F000
01F000
01F000
00F000
00F800
00F800
007800
007C00
003C00
001E00
000F00
0001E0
000F00
001E00
003C00
007C00
007800
00F800
00F800
00F000
01F000
01F000
01F000
01F000
01F000
01F000
01F000
01F000
01F000
01F000
01F000
01F000
01F000
01F000
01F000
01F000
01F000
01F000
01F000
01F000
01F000
01F000
01F000
01F000
03E000
03E000
07C000
0F8000
1F0000
F80000
ENDCHAR
STARTCHAR 007E
ENCODING 126
SWIDTH 483 0
DWIDTH 43 0
BBX 31 9 6 17
BITMAP
00000004
0000000E
07FFFFFC
1FFFFFF8
3FFFFFF8
7FFFFFE0
FFFFFFC0
E0000000
80000000
ENDCHAR
STARTCHAR 00A0
ENCODING 160
SWIDTH 236 0
DWIDTH 21 0
BBX 0 0 0 0
BITMAP
ENDCHAR
STARTCHAR 00A1
ENCODING 161
SWIDTH 225 0
DWIDTH 20 0
BBX 8 61 6 -19
BITMAP
3C
7E
FF
FF
FF
FF
7E
3C
00
00
00
00
00
00
30
3C
3C
3C
3C
3C
3C
3C
3C
3C
3C
3C
3C
3C
3C
7C
7C
7C
7C
7C
7E
7E
7E
7E
7E
7E
7E
7E
7E
7E
7E
7E
7E
7E
7E
7E
7E
7E
FE
FF
FF
FF
FF
FF
FF
3F
07
ENDCHAR
STARTCHAR 00A2
ENCODING 162
SWIDTH 517 0
DWIDTH 46 0
BBX 38 63 4 -12
BITMAP
00003F8000
00003F8000
00003F8000
00003F8000
00003F0000
00003F0000
00003F0000
00003F0000
00001F0000
00001F0000
00001F0000
00001F0000
00001F0000
0003FFFF00
000FFFFFE0
007FFFFFF8
00FF9F0FF8
01FC1F03F0
07F81F00F0
0FE01F0070
0FC01F0070
1FC01F0070
3F801F0030
3F001F0000
7F001F0000
7E001F0000
7E001F0000
FE001F0000
FE001F0000
FE001F0000
FE001F0000
FE001F0000
FE001F0000
FE001F0000
FE001F0000
FE001F0000
FE001F0000
FF001F0000
7F001F0000
7F001F0000
3F801F0000
3FC01F0000
1FE01F0000
1FF01F0000
0FF81F001C
07FE1F0078
03FFDF07F8
01FFFFFFF0
007FFFFFC0
001FFFFF00
0007FFFC00
00007F8000
00001F0000
00001F0000
00003F0000
00003F0000
00003F0000
00003F0000
00003F0000
00003F8000
00003F8000
00003F8000
00003F8000
ENDCHAR
STARTCHAR 00A3
ENCODING 163
SWIDTH 528 0
DWIDTH 47 0
BBX 38 63 4 -4
BITMAP
00001FF000
0000FFFE00
0001FFFF80
0007FFFFC0
000FFFFFE0
000FF80FF0
001FE003F8
003FC001FC
003F8000FC
007F80007C
007F00007C
007F00007C
007F00003C
00FE00003C
00FE00003C
00FE000038
00FE000038
00FE000000
00FE000000
00FE000000
00FE000000
00FE000000
00FE000000
00FE000000
00FE000000
00FE000000
007F000000
007F000000
007F000000
007F000000
007F000000
007F000000
3FFFFFF800
7FFFFFF800
FFFFFFF000
003F000000
003F000000
003F000000
003F000000
003F000000
007F000000
007F000000
007F000000
007E000000
007E000000
00FE000000
00FE000000
01FC000000
01FC000000
03FC000004
07F8000018
07F0000038
0FE0000038
1FC0000038
7F80000070
FFFF0001F0
FFFFFFFFF0
FFFFFFFFF0
FFFFFFFFE0
00000FFFE0
0000003FE0
00000003C0
0000000040
ENDCHAR
STARTCHAR 00A4
ENCODING 164
SWIDTH 585 0
DWIDTH 52 0
BBX 42 41 5 0
BITMAP
200000000200
700000000700
F80000000F80
7C00FF801F80
3E03FFF03F00
1F0FFFFC7E00
0FFFFFFEFC00
07FF80FFF800
03FE001FF000
01F8000FE000
01F00003E000
03E00001F000
07C00001F000
07800000F800
0F8000007800
0F8000007C00
0F0000007C00
1F0000003C00
1F0000003C00
1F0000003C00
1F0000003C00
1F0000003C00
1F0000003C00
1F0000003C00
0F0000007C00
0F8000007C00
0F8000007800
07C00000F800
07C00001F800
03E00001F000
03F00003E000
01F80007E000
03FE001FF000
07FF80FFF800
0FFFFFFFFC00
1F8FFFFC7E00
3F03FFF03F00
7E007F801F80
F80000000FC0
700000000780
200000000300
ENDCHAR
STARTCHAR 00A5
ENCODING 165
SWIDTH 697 0
DWIDTH 62 0
BBX 56 58 3 0
BITMAP
FFFFFC003FFFFF
7FFFFC001FFFFF
07FF800001FFF0
01FF0000007FC0
01FF0000007F80
00FF0000007F00
007F800000FE00
003F800000FC00
003FC00000F800
001FC00001F800
000FE00001F000
000FF00003F000
0007F00003E000
0007F80007C000
0003F80007C000
0001FC000F8000
0001FC000F0000
0000FE001F0000
0000FE003E0000
00007F003C0000
00003F007C0000
00003F80780000
00001FC0F80000
00001FC0F00000
00000FE1F00000
000007E1E00000
000007F3C00000
003FFFF3FFFC00
003FFFFFFFFC00
003FFFFFFFFC00
000000FF000000
000000FF000000
000000FE000000
0000007E000000
0000007E000000
0000007E000000
003FFFFFFFFC00
003FFFFFFFFC00
003FFFFFFFFC00
0000007E000000
0000007E000000
0000007E000000
0000007E000000
0000007E000000
0000007E000000
0000007E000000
0000007E000000
0000007E000000
0000007E000000
0000007E000000
0000007E000000
000000FF000000
000000FF000000
000000FF000000
000001FF800000
000003FFC00000
00007FFFFE0000
00007FFFFE0000
ENDCHAR
STARTCHAR 00A6
ENCODING 166
SWIDTH 236 0
DWIDTH 21 0
BBX 7 78 7 -10
BITMAP
FE
FE
FE
7E
7E
7E
7E
7C
7C
7C
7C
7C
7C
7C
7C
7C
7C
7C
7C
7C
7C
7C
7C
7C
7C
7C
7C
7E
7E
7E
7E
FE
FE
FE
00
00
00
00
00
00
00
00
00
00
FE
FE
FE
7E
7E
7E
7E
7C
7C
7C
7C
7C
7C
7C
7C
7C
7C
7C
7C
7C
7C
7C
7C
7C
7C
7C
7C
7E
7E
7E
7E
FE
FE
FE
ENDCHAR
STARTCHAR 00A7
ENCODING 167
SWIDTH 427 0
DWIDTH 38 0
BBX 29 68 4 -5
BITMAP
0001FC00
000FFF00
001FFFC0
007FFFC0
00FFFF80
01F07F00
01C01F00
03800E00
07800600
07800400
07800000
0F800000
0F800000
0FC00000
0FC00000
0FE00000
0FF00000
0FF80000
07FC0000
07FE0000
07FF8000
07FFC000
07FFE000
0FFFF000
1E7FF800
1C3FFC00
381FFE00
7807FF00
7803FF80
7801FFC0
7800FFE0
FC003FE0
FE001FF0
FE000FF0
7F0007F8
7F8003F8
7FE001F8
7FF000F8
3FF800F8
3FFC00F8
1FFE0078
0FFF0078
07FF80F0
03FFE0F0
01FFF1E0
00FFF9C0
003FFFC0
001FFF80
0007FF00
0003FF00
0001FF00
0000FF00
00007F80
00003F80
00001F80
00000F00
00000F00
00000F00
01000F00
01800E00
03800E00
07C01E00
07F07C00
0FFFF800
0FFFF000
07FFE000
03FFC000
00FE0000
ENDCHAR
STARTCHAR 00A8
ENCODING 168
SWIDTH 225 0
DWIDTH 20 0
BBX 20 8 0 52
BITMAP
3803C0
7E07E0
FE0FE0
FE0FF0
FE0FF0
FE0FE0
7E07E0
3803C0
ENDCHAR
STARTCHAR 00A9
ENCODING 169
SWIDTH 731 0
DWIDTH 65 0
BBX 54 53 5 5
BITMAP
000003FF800000
00003FFFF00000
0000FFFFFE0000
0003FC007F8000
000FC0000FC000
001F000003F000
007C000000F800
00F80000007C00
01F00000001E00
03E00000000F00
03C00000000780
078001FF8003C0
0F000FFFF801C0
0E003FFFF801E0
1E007FEFF800E0
1C00FC00F800F0
3C01F800780070
3803F000380078
7803E000000038
7007E000000038
7007C00000003C
7007C00000001C
700FC00000001C
F00F800000001C
E00F800000001C
E00F800000001C
E00F800000001C
E00F800000001C
E00F800000001C
F00FC00000001C
7007C00000001C
7007C00000001C
7007E00000003C
7003E000000038
7803F000000038
3801F800080078
3C00FC001C0070
1C007F80F800F0
1E003FFFF800E0
0E001FFFF001E0
0F0003FF8001C0
078000000003C0
03C00000000780
03E00000000F00
01F00000001E00
00F80000007C00
007C000000F800
001F000003F000
000FC0000FC000
0003F8007F8000
0000FFFFFE0000
00003FFFF00000
000007FF000000
ENDCHAR
STARTCHAR 00AA
ENCODING 170
SWIDTH 360 0
DWIDTH 32 0
BBX 23 26 4 33
BITMAP
00FC00
07FF80
1FFFC0
1F07C0
1C03E0
1801E0
1801E0
0001E0
0001E0
0001E0
0001E0
007FE0
07FFE0
0F81E0
3E01E0
7801E0
7801E0
7801E0
F801E0
F803E0
7807E0
7C0FE0
7F7DE0
3FF9F0
1FF1FE
07C002
ENDCHAR
STARTCHAR 00AB
ENCODING 171
SWIDTH 461 0
DWIDTH 41 0
BBX 33 32 4 5
BITMAP
000FC03F80
001FC03F00
001F807E00
003F00FC00
007E01F800
00FC01F000
00F803E000
01F007E000
03E00FC000
07E00F8000
07C01F0000
0F803E0000
1F007E0000
3F007C0000
7E00F80000
7C01F80000
FC01F00000
7E00F80000
3E00FC0000
1F007E0000
0F803E0000
07C01F0000
07C00F8000
03E00FC000
01F007E000
00F803E000
00FC01F000
007E01F800
003F00FC00
001F807E00
001FC07F00
000FC03F80
ENDCHAR
STARTCHAR 00AC
ENCODING 172
SWIDTH 630 0
DWIDTH 56 0
BBX 43 20 7 11
BITMAP
FFFFFFFFFFE0
FFFFFFFFFFE0
FFFFFFFFFFE0
FFFFFFFFFFE0
FFFFFFFFFFE0
0000000003E0
0000000003E0
0000000003E0
0000000003E0
0000000003E0
0000000003E0
0000000003E0
0000000003E0
0000000003E0
0000000003E0
0000000003E0
0000000003E0
0000000003E0
0000000003E0
0000000003E0
ENDCHAR
STARTCHAR 00AD
ENCODING 173
SWIDTH 472 0
DWIDTH 42 0
BBX 30 5 6 19
BITMAP
7FFFFFFC
7FFFFFFC
FFFFFFFC
FFFFFFF8
FFFFFFF8
ENDCHAR
STARTCHAR 00AE
ENCODING 174
SWIDTH 731 0
DWIDTH 65 0
BBX 54 53 5 5
BITMAP
000003FF800000
00003FFFF00000
0000FFFFFE0000
0003FC007F8000
000FC0000FC000
001F000003F000
007C000000F800
00F80000007C00
01F00000001E00
03E00000000F00
03C1FFFC000780
0781FFFF8003C0
0F007FFFC001C0
0E003E03E001E0
1E003E01F000E0
1C001E00F000F0
3C001E00F80070
38001E00780078
78001E00780038
70001E00780038
70001E00F0003C
70001E00F0001C
70001E01E0001C
F0001E03E0001C
E0001FFF80001C
E0001FFF00001C
E0001FF800001C
E0001E3C00001C
E0001E3E00001C
F0001E1F00001C
70001E0F80001C
70001E0780001C
70001E07C0003C
70001E03E00038
78001E01F00038
38001E00F80078
3C003F007C0070
1C007F003F00F0
1E01FFC01FC0E0
0E0000200001E0
0F0000000001C0
078000000003C0
03C00000000780
03E00000000F00
01F00000001E00
00F80000007C00
007C000000F800
001F000003F000
000FC0000FC000
0003F8007F8000
0000FFFFFE0000
00003FFFF00000
000007FF000000
ENDCHAR
STARTCHAR 00B0
ENCODING 176
SWIDTH 337 0
DWIDTH 30 0
BBX 22 20 4 38
BITMAP
03FF00
0FFFC0
1FFFE0
3F03F0
3C00F8
780078
780078
F0003C
F0003C
F0003C
F0003C
F0003C
70003C
780078
780078
3C00F8
3F01F0
1FFFE0
07FF80
01FE00
ENDCHAR
STARTCHAR 00B1
ENCODING 177
SWIDTH 483 0
DWIDTH 43 0
BBX 29 34 7 6
BITMAP
000F8000
000F8000
000F8000
000F8000
000F8000
000F8000
000F8000
000F8000
000F8000
7FFFFFF8
7FFFFFF0
7FFFFFF0
FFFFFFF0
FFFFFFF0
000F8000
000F8000
000F8000
000F8000
000F8000
000F8000
000F8000
000F8000
000F8000
000F8000
00000000
00000000
00000000
00000000
00000000
7FFFFFF8
7FFFFFF0
7FFFFFF0
FFFFFFF0
FFFFFFF0
ENDCHAR
STARTCHAR 00B2
ENCODING 178
SWIDTH 360 0
DWIDTH 32 0
BBX 21 32 5 27
BITMAP
01FE00
07FF80
1FFFC0
3FDFE0
3C01F0
7801F0
7800F0
7000F0
7000F0
3000F0
0000F0
0001F0
0001E0
0003E0
0003C0
0007C0
000F80
000F00
001E00
003E00
007C00
00F800
01F000
03E000
03C008
078018
0F0018
1E0038
3E01F8
7FFFF8
FFFFF0
FFFFF0
ENDCHAR
STARTCHAR 00B3
ENCODING 179
SWIDTH 337 0
DWIDTH 30 0
BBX 21 33 5 26
BITMAP
03F800
0FFE00
1FFF80
3C0FC0
7803C0
7001E0
6001E0
6001E0
6001E0
0001E0
0001C0
0003C0
000780
000F00
007E00
007F80
0007C0
0001E0
0001F0
0000F0
0000F0
000078
000078
C00078
C00070
E000F0
E000F0
F001E0
7807E0
7FBFC0
3FFF80
0FFE00
03F800
ENDCHAR
STARTCHAR 00B4
ENCODING 180
SWIDTH 213 0
DWIDTH 19 0
BBX 19 12 0 48
BITMAP
0001C0
0003E0
000FE0
003FE0
00FFE0
03FF80
07FC00
1FF000
7F8000
FE0000
F00000
400000
ENDCHAR
STARTCHAR 00B5
ENCODING 181
SWIDTH 641 0
DWIDTH 57 0
BBX 50 53 4 -11
BITMAP
00080000002000
FFFC0003FFE000
FFF80003FFE000
0FF800003FE000
07F800000FE000
03F800000FE000
03F800000FE000
03F8000007E000
03F8000007E000
01F8000007E000
01F8000007E000
01F8000007E000
01F8000007E000
01F8000007E000
01F8000007E000
01F8000007E000
01F8000007E000
01F8000007E000
01F8000007E000
01F8000007E000
01F8000007E000
01F8000007E000
01F8000007E000
01F8000007E000
01F8000007E000
01F8000007E000
01F8000007E000
01F8000007E000
01F8000007E000
01F800000FE000
01FC00000FE000
01FC00001FE000
01FC00001FE000
03FE00003FE000
03FE00007FE000
03FF0000F7E000
03FF8003E7E000
03FFE00FCFF000
03FFFFFF8FF000
07EFFFFF0FF800
07E3FFFC0FFFC0
07E0FFF00FFFC0
07C00600000000
0FC00000000000
0FC00000000000
0FC00000000000
1FC00000000000
1FC00000000000
1FC00000000000
3F800000000000
3F800000000000
3F800000000000
0F800000000000
ENDCHAR
STARTCHAR 00B6
ENCODING 182
SWIDTH 528 0
DWIDTH 47 0
BBX 40 70 3 -11
BITMAP
000000007F
007FFFFFFF
01FFFFFFFC
03FFFFFFC0
0FFFFE03C0
0FFFFE0380
1FFFFE0380
3FFFFE0380
3FFFFE0380
7FFFFE0700
7FFFFE0700
7FFFFE0700
FFFFFE0700
FFFFFF0700
FFFFFF0700
FFFFFF0700
FFFFFF0700
FFFFFF0700
FFFFFF0700
7FFFFF0700
7FFFFF0700
7FFFFF0700
7FFFFF0700
3FFFFF0700
3FFFFF0700
1FFFFF0700
0FFFFF0700
0FFFFF0700
07FFFF0700
03FFFF0700
00FFFF0700
003FFF0700
0007FF0700
00001F0700
00000F0700
00000F0700
00000F0700
00000F0700
00000F0700
00000F0700
00000F0700
00000F0700
00000F0700
00000F0700
00000F0700
00000F0700
00000F0700
00000F0700
00000F0700
00000F0700
00000F0700
00000F0700
00000F0700
00000F0700
00000F0700
00000F0700
00000F0700
00000F0700
00000E0700
00000E0700
00000E0700
00000E0380
00000E0380
00000E0380
00001E0380
00001E03C0
00003FFFE0
0003FFFFFE
000FFFFFFF
000C000003
ENDCHAR
STARTCHAR 00B7
ENCODING 183
SWIDTH 225 0
DWIDTH 20 0
BBX 8 8 6 17
BITMAP
3C
7E
FF
FF
FF
FF
7E
3C
ENDCHAR
STARTCHAR 00B8
ENCODING 184
SWIDTH 202 0
DWIDTH 18 0
BBX 18 18 0 -18
BITMAP
01E000
01C000
038000
070000
0FFC00
0FFF00
1FFF80
081F80
000FC0
0007C0
0007C0
0007C0
000FC0
400F80
7EFF00
FFFE00
7FFC00
0FF000
ENDCHAR
STARTCHAR 00B9
ENCODING 185
SWIDTH 270 0
DWIDTH 24 0
BBX 15 32 5 27
BITMAP
00C0
01C0
07C0
0FC0
3FC0
FBC0
83C0
03C0
03C0
03C0
03C0
03C0
03C0
03C0
03C0
03C0
03C0
03C0
03C0
03C0
03C0
03C0
03C0
03C0
03C0
03C0
03C0
03C0
03C0
07C0
0FF0
7FFE
ENDCHAR
STARTCHAR 00BA
ENCODING 186
SWIDTH 371 0
DWIDTH 33 0
BBX 25 26 4 33
BITMAP
007F0000
01FFE000
07FFF000
0FF7F800
1F00FC00
3E003E00
3C001E00
78001F00
78000F00
78000F80
F0000780
F0000780
F0000780
F0000780
F0000780
F0000780
78000780
78000F00
78000F00
3C001F00
3E001E00
1F003C00
0F80FC00
07FFF000
03FFE000
007F0000
ENDCHAR
STARTCHAR 00BB
ENCODING 187
SWIDTH 461 0
DWIDTH 41 0
BBX 32 32 5 5
BITMAP
FC03F000
FE01F800
7E00FC00
3F00FC00
1F807E00
0F803F00
07C01F80
03E00F80
03F007C0
01F003E0
00F803F0
007C01F0
007E00F8
003F007C
001F007E
000F803F
000FC03F
001F807E
003F007C
003E00F8
007C01F8
00F803F0
01F803E0
03F007C0
03E00F80
07C01F80
0F803F00
1F807E00
3F007C00
7E00FC00
FE01F800
FC03F000
ENDCHAR
STARTCHAR 00BC
ENCODING 188
SWIDTH 675 0
DWIDTH 60 0
BBX 51 60 5 -1
BITMAP
00600000003F80
00E00000007F00
03E00000007E00
07E0000000FC00
1FE0000000FC00
7DE0000001F800
61E0000003F000
01E0000003E000
01E0000007C000
01C000000F8000
01C000000F8000
01C000001F0000
01C000003E0000
01C000007C0000
01C000007C0000
01C00000F80000
01C00001F00000
01C00001E00000
01C00003E00000
01C00007C00000
01E0000F800000
01C0000F800000
01C0001F000000
01E0003E000000
01E0007C000000
01E0007C000000
01E000F8000000
01E001F0000000
01E003E0007E00
03E003E000FE00
03E007C000FE00
07F00F8001FE00
3FFE1F0001FE00
00001F0003BE00
00003E00079E00
00007C00071E00
00007C000F1E00
0000F8001E1E00
0001F0001C1E00
0003E0003C1E00
0003E000381E00
0007C000701E00
000F8000F01E00
001F0000E01E00
001F0001E01E00
003E0003C01E00
007C0003FFFFE0
00FC0007FFFFE0
01F80003FFFFC0
01F00000001E00
03F00000001E00
07E00000001E00
0FC00000001E00
1FC00000001E00
1F800000003E00
3F800000003E00
7F000000003E00
FE000000003E00
00000000007F00
0000000003FFE0
ENDCHAR
STARTCHAR 00BD
ENCODING 189
SWIDTH 697 0
DWIDTH 62 0
BBX 52 60 6 0
BITMAP
00000000003F80
00800000007F00
03C0000000FE00
07C0000000FC00
1FC0000001F800
3F80000001F000
FF80000003F000
8380000007E000
0380000007C000
038000000F8000
038000001F0000
038000003F0000
038000003E0000
038000007C0000
03800000F80000
03800000F80000
03800001F00000
03800003E00000
03800007C00000
03800007C00000
0380000F800000
0380001F000000
0380003E000000
0380003E000000
0380007C000000
038000F8000000
038000F0000000
038001F0000000
07C003E003FC00
07C007C01FFF00
07C007C03FFF80
0FE00F807FBFC0
7FF81F00F807C0
80043E00F003E0
00003E00E001E0
00007C00E001E0
0000F800C001E0
0001F000C001E0
0001F0000003E0
0003E0000003C0
0007C0000003C0
000FC0000007C0
000F8000000F80
001F0000000F00
003E0000001F00
007E0000003E00
007C0000007C00
00F80000007800
01F8000000F000
03F0000001E000
07E0000003E000
07E0000007C000
0FC000000F0030
1F8000001E0030
3F8000003E0020
7F0000007C0060
FE000000F803E0
FE000000FFFFE0
00000001FFFFE0
00000001FFFFE0
ENDCHAR
STARTCHAR 00BE
ENCODING 190
SWIDTH 720 0
DWIDTH 64 0
BBX 55 60 5 -1
BITMAP
03F800000003F8
0FFE00000007F0
1FFF0000000FE0
3C0F8000000FC0
7803C000001F80
7003C000001F00
6001E000003E00
6001E000007E00
6001E000007C00
6001E00000F800
0001E00001F000
0003C00003F000
0003C00003E000
0007800007C000
000F00000F8000
007C00000F8000
007F80001F0000
0007C0003E0000
0001E0007C0000
0000F0007C0000
0000F000F80000
00007001F00000
00007801E00000
00007803E00000
C0007007C00000
C000F00F800000
E000F00F800000
E001E01F000000
F003E03E0007C0
7C0FC07C000FC0
3FFF807C001FC0
1FFF00F8001FC0
07FC01F0003FC0
000003E0007BC0
000003E00073C0
000007C000F3C0
00000F8000E3C0
00001F0001E3C0
00001F0003C3C0
00003E000383C0
00007C000783C0
0000FC000F03C0
0000F8000E03C0
0001F0001E03C0
0003E0001C03C0
0007E0003C03C0
0007C0007FFFFE
000F80007FFFFC
001F80007FFFFC
003F00000003C0
003E00000003C0
007E00000003C0
00FC00000003C0
01F800000003C0
03F800000003C0
07F000000003C0
07E000000003E0
0FE000000007E0
00000000000FF0
00000000007FFE
ENDCHAR
STARTCHAR 00BF
ENCODING 191
SWIDTH 416 0
DWIDTH 37 0
BBX 29 61 4 -19
BITMAP
0003C000
000FE000
000FF000
001FF000
000FF000
000FF000
000FE000
0003C000
00000000
00000000
00000000
00000000
00000000
00000000
0000C000
0003C000
0003C000
0003C000
0007C000
0007C000
0007C000
0007C000
0007C000
0007C000
000FC000
000FC000
001FC000
003F8000
003F8000
007F0000
00FF0000
00FE0000
01FE0000
03FC0000
07F80000
07F00000
0FF00000
1FE00000
1FC00000
3FC00000
3F800000
7F000000
7F000000
7E000000
FE000000
FE000000
FC000000
FC000000
FC000030
FC000030
FC000030
7E000078
7E000078
7E0000F8
3F0001F8
3F8003F8
1FC007F8
0FF01FF0
07FFFFE0
01FFFF80
007FFC00
ENDCHAR
STARTCHAR 00C0
ENCODING 192
SWIDTH 675 0
DWIDTH 60 0
BBX 63 76 -2 -1
BITMAP
0000004000000000
000001E000000000
000003F800000000
000003FE00000000
000003FF80000000
000000FFE0000000
0000003FF0000000
00000007FC000000
00000000FF000000
000000003F800000
0000000007800000
0000000000800000
0000000000000000
0000000000000000
0000000000000000
0000000000000000
0000000060000000
00000001F0000000
00000007F0000000
00000007F0000000
0000000FF8000000
0000000FF8000000
0000001FF8000000
0000001FFC000000
0000003FFC000000
0000003DFE000000
0000003CFE000000
0000007CFE000000
000000787F000000
000000F87F000000
000000F07F000000
000000F03F800000
000001F03F800000
000001E03F800000
000003E01FC00000
000003E01FC00000
000003C01FE00000
000007C00FE00000
000007800FE00000
00000F8007F00000
00000F8007F00000
00000F0007F00000
00001F0003F80000
00001F0003F80000
00001E0003F80000
00003E0001FC0000
00003C0001FC0000
00007FFFFFFE0000
00007FFFFFFE0000
00007FFFFFFE0000
0000F800007F0000
0000F000007F0000
0001F000007F0000
0001F000003F8000
0001E000003F8000
0003E000001F8000
0003E000001FC000
0007C000001FC000
0007C000000FE000
00078000000FE000
000F8000000FE000
000F80000007F000
001F00000007F000
001F00000003F000
001F00000003F800
003E00000003F800
003E00000001FC00
007E00000001FC00
007C00000001FE00
00FC00000001FE00
01FE00000001FF00
03FE00000001FF80
07FF00000007FFE0
FFFFF000007FFFFE
FFFFF800007FFFFE
C000000000000006
ENDCHAR
STARTCHAR 00C1
ENCODING 193
SWIDTH 675 0
DWIDTH 60 0
BBX 63 76 -2 -1
BITMAP
0000000002000000
000000000F800000
000000003F800000
000000007F800000
00000001FF800000
00000007FF000000
0000001FF8000000
0000007FC0000000
000001FF00000000
000003F800000000
000003C000000000
0000010000000000
0000000000000000
0000000000000000
0000000000000000
0000000000000000
0000000060000000
00000001F0000000
00000007F0000000
00000007F0000000
0000000FF8000000
0000000FF8000000
0000001FF8000000
0000001FFC000000
0000003FFC000000
0000003DFE000000
0000003CFE000000
0000007CFE000000
000000787F000000
000000F87F000000
000000F07F000000
000000F03F800000
000001F03F800000
000001E03F800000
000003E01FC00000
000003E01FC00000
000003C01FE00000
000007C00FE00000
000007800FE00000
00000F8007F00000
00000F8007F00000
00000F0007F00000
00001F0003F80000
00001F0003F80000
00001E0003F80000
00003E0001FC0000
00003C0001FC0000
00007FFFFFFE0000
00007FFFFFFE0000
00007FFFFFFE0000
0000F800007F0000
0000F000007F0000
0001F000007F0000
0001F000003F8000
0001E000003F8000
0003E000001F8000
0003E000001FC000
0007C000001FC000
0007C000000FE000
00078000000FE000
000F8000000FE000
000F80000007F000
001F00000007F000
001F00000003F000
001F00000003F800
003E00000003F800
003E00000001FC00
007E00000001FC00
007C00000001FE00
00FC00000001FE00
01FE00000001FF00
03FE00000001FF80
07FF00000007FFE0
FFFFF000007FFFFE
FFFFF800007FFFFE
C000000000000006
ENDCHAR
STARTCHAR 00C2
ENCODING 194
SWIDTH 675 0
DWIDTH 60 0
BBX 63 75 -2 -1
BITMAP
0000000180000000
00000003C0000000
00000007E0000000
0000001FF0000000
0000003FF8000000
0000007FFE000000
000000FE7F000000
000001F81F800000
000003E007C00000
0000078003C00000
0000030000C00000
0000000000000000
0000000000000000
0000000000000000
0000000000000000
0000000060000000
00000001F0000000
00000007F0000000
00000007F0000000
0000000FF8000000
0000000FF8000000
0000001FF8000000
0000001FFC000000
0000003FFC000000
0000003DFE000000
0000003CFE000000
0000007CFE000000
000000787F000000
000000F87F000000
000000F07F000000
000000F03F800000
000001F03F800000
000001E03F800000
000003E01FC00000
000003E01FC00000
000003C01FE00000
000007C00FE00000
000007800FE00000
00000F8007F00000
00000F8007F00000
00000F0007F00000
00001F0003F80000
00001F0003F80000
00001E0003F80000
00003E0001FC0000
00003C0001FC0000
00007FFFFFFE0000
00007FFFFFFE0000
00007FFFFFFE0000
0000F800007F0000
0000F000007F0000
0001F000007F0000
0001F000003F8000
0001E000003F8000
0003E000001F8000
0003E000001FC000
0007C000001FC000
0007C000000FE000
00078000000FE000
000F8000000FE000
000F80000007F000
001F00000007F000
001F00000003F000
001F00000003F800
003E00000003F800
003E00000001FC00
007E00000001FC00
007C00000001FE00
00FC00000001FE00
01FE00000001FF00
03FE00000001FF80
07FF00000007FFE0
FFFFF000007FFFFE
FFFFF800007FFFFE
C000000000000006
ENDCHAR
STARTCHAR 00C3
ENCODING 195
SWIDTH 675 0
DWIDTH 60 0
BBX 63 75 -2 -1
BITMAP
00000000000C0000
000001FE00180000
000007FFE0380000
00000FFFFFF80000
00001FFFFFF00000
00001FFFFFE00000
0000380FFFC00000
000030007F000000
0000200000000000
0000000000000000
0000000000000000
0000000000000000
0000000000000000
0000000000000000
0000000000000000
0000000060000000
00000001F0000000
00000007F0000000
00000007F0000000
0000000FF8000000
0000000FF8000000
0000001FF8000000
0000001FFC000000
0000003FFC000000
0000003DFE000000
0000003CFE000000
0000007CFE000000
000000787F000000
000000F87F000000
000000F07F000000
000000F03F800000
000001F03F800000
000001E03F800000
000003E01FC00000
000003E01FC00000
000003C01FE00000
000007C00FE00000
000007800FE00000
00000F8007F00000
00000F8007F00000
00000F0007F00000
00001F0003F80000
00001F0003F80000
00001E0003F80000
00003E0001FC0000
00003C0001FC0000
00007FFFFFFE0000
00007FFFFFFE0000
00007FFFFFFE0000
0000F800007F0000
0000F000007F0000
0001F000007F0000
0001F000003F8000
0001E000003F8000
0003E000001F8000
0003E000001FC000
0007C000001FC000
0007C000000FE000
00078000000FE000
000F8000000FE000
000F80000007F000
001F00000007F000
001F00000003F000
001F00000003F800
003E00000003F800
003E00000001FC00
007E00000001FC00
007C00000001FE00
00FC00000001FE00
01FE00000001FF00
03FE00000001FF80
07FF00000007FFE0
FFFFF000007FFFFE
FFFFF800007FFFFE
C000000000000006
ENDCHAR
STARTCHAR 00C4
ENCODING 196
SWIDTH 675 0
DWIDTH 60 0
BBX 63 75 -2 -1
BITMAP
000001C007000000
000003F00F800000
000007F01FC00000
000007F01FC00000
000007F01FC00000
000007F01FC00000
000003F00FC00000
000001C007000000
0000000000000000
0000000000000000
0000000000000000
0000000000000000
0000000000000000
0000000000000000
0000000000000000
0000000060000000
00000001F0000000
00000007F0000000
00000007F0000000
0000000FF8000000
0000000FF8000000
0000001FF8000000
0000001FFC000000
0000003FFC000000
0000003DFE000000
0000003CFE000000
0000007CFE000000
000000787F000000
000000F87F000000
000000F07F000000
000000F03F800000
000001F03F800000
000001E03F800000
000003E01FC00000
000003E01FC00000
000003C01FE00000
000007C00FE00000
000007800FE00000
00000F8007F00000
00000F8007F00000
00000F0007F00000
00001F0003F80000
00001F0003F80000
00001E0003F80000
00003E0001FC0000
00003C0001FC0000
00007FFFFFFE0000
00007FFFFFFE0000
00007FFFFFFE0000
0000F800007F0000
0000F000007F0000
0001F000007F0000
0001F000003F8000
0001E000003F8000
0003E000001F8000
0003E000001FC000
0007C000001FC000
0007C000000FE000
00078000000FE000
000F8000000FE000
000F80000007F000
001F00000007F000
001F00000003F000
001F00000003F800
003E00000003F800
003E00000001FC00
007E00000001FC00
007C00000001FE00
00FC00000001FE00
01FE00000001FF00
03FE00000001FF80
07FF00000007FFE0
FFFFF000007FFFFE
FFFFF800007FFFFE
C000000000000006
ENDCHAR
STARTCHAR 00C5
ENCODING 197
SWIDTH 675 0
DWIDTH 60 0
BBX 63 69 -2 -1
BITMAP
0000000FE0000000
0000001FF8000000
0000003C7C000000
000000781C000000
000000701E000000
000000F00E000000
000000F00E000000
000000F01E000000
000000701E000000
000000783C000000
0000003EFC000000
0000001FF0000000
00000007F0000000
00000007F0000000
0000000FF8000000
0000000FF8000000
0000001FF8000000
0000001FFC000000
0000003FFC000000
0000003CFE000000
0000003CFE000000
00000078FE000000
000000787F000000
000000F87F000000
000000F07F000000
000000F03F800000
000001E03F800000
000001E01FC00000
000003E01FC00000
000003C01FC00000
000003C00FE00000
000007C00FE00000
000007800FE00000
00000F8007F00000
00000F0007F00000
00000F0003F80000
00001F0003F80000
00001E0003F80000
00003E0001FC0000
00003E0001FC0000
00003FFFFFFC0000
00007FFFFFFE0000
00007FFFFFFE0000
0000F800007F0000
0000F000007F0000
0000F000007F0000
0001F000003F8000
0001E000003F8000
0003E000001F8000
0003E000001FC000
0003C000001FC000
0007C000000FC000
00078000000FE000
000F8000000FE000
000F80000007F000
001F00000007F000
001F00000003F000
001F00000003F800
003E00000003F800
003E00000001FC00
007E00000001FC00
007C00000001FE00
00FC00000001FE00
01FE00000001FF00
03FE00000001FF80
07FF00000007FFE0
FFFFF000007FFFFE
FFFFF800007FFFFE
C000000000000006
ENDCHAR
STARTCHAR 00C6
ENCODING 198
SWIDTH 866 0
DWIDTH 77 0
BBX 77 59 -3 -1
BITMAP
000000003FFFFFFFFFC0
000000003FFFFFFFFFC0
0000000007FFFFFFFFC0
0000000003FFFFFFFFC0
0000000003FFFFFFFFC0
0000000003FFC00007C0
0000000003EFC00003C0
0000000003EFC00001C0
0000000007CFC00001C0
000000000FCFC00001C0
000000000F8FC00001C0
000000001F0FC0000000
000000001F0FC0000000
000000003E0FC0000000
000000007E0FC0000000
000000007C0FC0000000
00000000F80FC0000000
00000000F80FC0000000
00000001F00FC0000000
00000003F00FC0000000
00000003E00FC0006000
00000007C00FC0006000
00000007C00FC0006000
0000000F800FC000E000
0000000F800FC000E000
0000001F000FC003E000
0000003FFFFFFFFFE000
0000003FFFFFFFFFE000
0000007FFFFFFFFFE000
000000F8000FC01FE000
000000F8000FC001E000
000001F0000FC000E000
000001F0000FC0006000
000003E0000FC0006000
000007C0000FC0006000
000007C0000FC0002000
00000F80000FC0000000
00000F80000FC0000000
00001F00000FC0000000
00003E00000FC0000000
00003E00000FC0000000
00007C00000FC0000000
0000FC00000FC0000000
0000F800000FC0000000
0001F000000FC0000000
0001F000000FC0000008
0003E000000FC0000030
0007E000000FC0000030
0007C000000FC0000070
000FC000001FC0000070
001F8000001FC00000F0
001F8000001FC00001F0
003F0000001FE0000FF0
007F0000001FFFFFFFE0
00FF8000003FFFFFFFE0
07FFC00000FFFFFFFFE0
FFFFFC000FFFFFFFFFE0
FFFFFC000FFFFFFFFFE0
C0000000000000000000
ENDCHAR
STARTCHAR 00C7
ENCODING 199
SWIDTH 652 0
DWIDTH 58 0
BBX 49 76 5 -17
BITMAP
000001FFFE0000
00001FFFFFE000
00007FFFFFFC00
0003FFFFFFFF00
0007FFFFFFFF00
001FFF001FFF00
003FF00001FF00
007FC000007F00
00FF0000003F00
01FE0000001E00
03FC0000000E00
07F80000000E00
07F00000000000
0FE00000000000
1FE00000000000
1FC00000000000
3FC00000000000
3F800000000000
3F800000000000
7F000000000000
7F000000000000
7F000000000000
7F000000000000
FF000000000000
FE000000000000
FE000000000000
FE000000000000
FE000000000000
FE000000000000
FE000000000000
FE000000000000
FE000000000000
FE000000000000
FE000000000000
FE000000000000
FE000000000000
FF000000000000
7F000000000000
7F000000000000
7F000000000000
7F800000000000
3F800000000000
3FC00000000000
1FC00000000000
1FE00000000000
0FF00000000000
0FF00000000000
07F80000000000
07FC0000000000
03FE0000000000
01FF8000000180
00FFC000000780
007FF000001F80
003FFE0000FF00
000FFFFFFFFF00
0007FFFFFFFC00
0001FFFFFFF000
00007FFFFFC000
00000FFFFC0000
0000003E000000
00000038000000
00000078000000
000000F0000000
000000FFC00000
000001FFF00000
000001FFF00000
00000001F80000
00000000F80000
00000000FC0000
00000000FC0000
00000000F80000
00000000F80000
00000E03F00000
00000FFFF00000
00000FFFC00000
000003FF800000
ENDCHAR
STARTCHAR 00C8
ENCODING 200
SWIDTH 573 0
DWIDTH 51 0
BBX 43 75 4 0
BITMAP
000700000000
000FC0000000
000FF0000000
000FF8000000
000FFE000000
0001FF800000
00003FE00000
00000FF80000
000001FE0000
0000003E0000
0000000E0000
000000000000
000000000000
000000000000
000000000000
000000000000
FFFFFFFFFF80
FFFFFFFFFF80
0FFFFFFFFF80
03FFFFFFFF80
03FFFFFFFF80
01FC00001F80
01FC00000780
01FC00000780
00FC00000380
00FC00000380
00FC00000380
00FC00000000
00FC00000000
00FC00000000
00FC00000000
00FC00000000
00FC00000000
00FC00000000
00FC00000000
00FC00000000
00FC00000000
00FC0000C000
00FC0000C000
00FC0001C000
00FC0001C000
00FC0003C000
00FC007FC000
00FFFFFFC000
00FFFFFFC000
00FFFFFFC000
00FC0007C000
00FC0003C000
00FC0001C000
00FC0001C000
00FC0000C000
00FC0000C000
00FC00000000
00FC00000000
00FC00000000
00FC00000000
00FC00000000
00FC00000000
00FC00000000
00FC00000000
00FC00000000
00FC00000000
00FC00000000
00FC000000E0
00FC000000E0
01FC000000E0
01FC000001E0
01FC000001C0
01FC000003C0
01FE00003FC0
03FFFFFFFFC0
03FFFFFFFFC0
0FFFFFFFFFC0
FFFFFFFFFFC0
FFFFFFFFFF80
ENDCHAR
STARTCHAR 00C9
ENCODING 201
SWIDTH 573 0
DWIDTH 51 0
BBX 43 75 4 0
BITMAP
0000001C0000
0000007E0000
000001FE0000
000007FE0000
00001FFE0000
00003FF00000
0000FF800000
0003FE000000
000FF0000000
000F80000000
000C00000000
000000000000
000000000000
000000000000
000000000000
000000000000
FFFFFFFFFF80
FFFFFFFFFF80
0FFFFFFFFF80
03FFFFFFFF80
03FFFFFFFF80
01FC00001F80
01FC00000780
01FC00000780
00FC00000380
00FC00000380
00FC00000380
00FC00000000
00FC00000000
00FC00000000
00FC00000000
00FC00000000
00FC00000000
00FC00000000
00FC00000000
00FC00000000
00FC00000000
00FC0000C000
00FC0000C000
00FC0001C000
00FC0001C000
00FC0003C000
00FC007FC000
00FFFFFFC000
00FFFFFFC000
00FFFFFFC000
00FC0007C000
00FC0003C000
00FC0001C000
00FC0001C000
00FC0000C000
00FC0000C000
00FC00000000
00FC00000000
00FC00000000
00FC00000000
00FC00000000
00FC00000000
00FC00000000
00FC00000000
00FC00000000
00FC00000000
00FC00000000
00FC000000E0
00FC000000E0
01FC000000E0
01FC000001E0
01FC000001C0
01FC000003C0
01FE00003FC0
03FFFFFFFFC0
03FFFFFFFFC0
0FFFFFFFFFC0
FFFFFFFFFFC0
FFFFFFFFFF80
ENDCHAR
STARTCHAR 00CA
ENCODING 202
SWIDTH 573 0
DWIDTH 51 0
BBX 43 75 4 0
BITMAP
000002000000
000007000000
00000F800000
00003FC00000
00007FE00000
0000FFF00000
0001FDFC0000
0003F0FE0000
0007C03F0000
000F800F8000
000E00030000
000800010000
000000000000
000000000000
000000000000
000000000000
FFFFFFFFFF80
FFFFFFFFFF80
0FFFFFFFFF80
03FFFFFFFF80
03FFFFFFFF80
01FC00001F80
01FC00000780
01FC00000780
00FC00000380
00FC00000380
00FC00000380
00FC00000000
00FC00000000
00FC00000000
00FC00000000
00FC00000000
00FC00000000
00FC00000000
00FC00000000
00FC00000000
00FC00000000
00FC0000C000
00FC0000C000
00FC0001C000
00FC0001C000
00FC0003C000
00FC007FC000
00FFFFFFC000
00FFFFFFC000
00FFFFFFC000
00FC0007C000
00FC0003C000
00FC0001C000
00FC0001C000
00FC0000C000
00FC0000C000
00FC00000000
00FC00000000
00FC00000000
00FC00000000
00FC00000000
00FC00000000
00FC00000000
00FC00000000
00FC00000000
00FC00000000
00FC00000000
00FC000000E0
00FC000000E0
01FC000000E0
01FC000001E0
01FC000001C0
01FC000003C0
01FE00003FC0
03FFFFFFFFC0
03FFFFFFFFC0
0FFFFFFFFFC0
FFFFFFFFFFC0
FFFFFFFFFF80
ENDCHAR
STARTCHAR 00CB
ENCODING 203
SWIDTH 573 0
DWIDTH 51 0
BBX 43 75 4 0
BITMAP
0007001C0000
000F803E0000
001FC07F0000
001FC07F0000
001FC07F0000
001FC07F0000
000F807E0000
0007001C0000
000000000000
000000000000
000000000000
000000000000
000000000000
000000000000
000000000000
000000000000
FFFFFFFFFF80
FFFFFFFFFF80
0FFFFFFFFF80
03FFFFFFFF80
03FFFFFFFF80
01FC00001F80
01FC00000780
01FC00000780
00FC00000380
00FC00000380
00FC00000380
00FC00000000
00FC00000000
00FC00000000
00FC00000000
00FC00000000
00FC00000000
00FC00000000
00FC00000000
00FC00000000
00FC00000000
00FC0000C000
00FC0000C000
00FC0001C000
00FC0001C000
00FC0003C000
00FC007FC000
00FFFFFFC000
00FFFFFFC000
00FFFFFFC000
00FC0007C000
00FC0003C000
00FC0001C000
00FC0001C000
00FC0000C000
00FC0000C000
00FC00000000
00FC00000000
00FC00000000
00FC00000000
00FC00000000
00FC00000000
00FC00000000
00FC00000000
00FC00000000
00FC00000000
00FC00000000
00FC000000E0
00FC000000E0
01FC000000E0
01FC000001E0
01FC000001C0
01FC000003C0
01FE00003FC0
03FFFFFFFFC0
03FFFFFFFFC0
0FFFFFFFFFC0
FFFFFFFFFFC0
FFFFFFFFFF80
ENDCHAR
STARTCHAR 00CC
ENCODING 204
SWIDTH 337 0
DWIDTH 30 0
BBX 22 75 4 0
BITMAP
380000
7E0000
7F8000
7FE000
7FF000
0FFC00
03FF00
007FC0
001FF0
0003F8
000070
000010
000000
000000
000000
000000
000000
FFFFFC
FFFFFC
07FF80
03FF00
01FE00
01FE00
01FC00
01FC00
01FC00
01FC00
00FC00
00FC00
00FC00
00FC00
00FC00
00FC00
00FC00
00FC00
00FC00
00FC00
00FC00
00FC00
00FC00
00FC00
00FC00
00FC00
00FC00
00FC00
00FC00
00FC00
00FC00
00FC00
00FC00
00FC00
00FC00
00FC00
00FC00
00FC00
00FC00
00FC00
00FC00
00FC00
00FC00
00FC00
00FC00
00FC00
00FC00
00FC00
00FC00
01FC00
01FC00
01FC00
01FE00
01FE00
03FF00
0FFF80
FFFFFC
FFFFFC
ENDCHAR
STARTCHAR 00CD
ENCODING 205
SWIDTH 337 0
DWIDTH 30 0
BBX 22 75 4 0
BITMAP
000060
0001F0
0007F8
001FF8
007FF0
01FFC0
03FE00
0FF800
3FC000
7F0000
780000
200000
000000
000000
000000
000000
000000
FFFFFC
FFFFFC
07FF80
03FF00
01FE00
01FE00
01FC00
01FC00
01FC00
01FC00
00FC00
00FC00
00FC00
00FC00
00FC00
00FC00
00FC00
00FC00
00FC00
00FC00
00FC00
00FC00
00FC00
00FC00
00FC00
00FC00
00FC00
00FC00
00FC00
00FC00
00FC00
00FC00
00FC00
00FC00
00FC00
00FC00
00FC00
00FC00
00FC00
00FC00
00FC00
00FC00
00FC00
00FC00
00FC00
00FC00
00FC00
00FC00
00FC00
01FC00
01FC00
01FC00
01FE00
01FE00
03FF00
0FFF80
FFFFFC
FFFFFC
ENDCHAR
STARTCHAR 00CE
ENCODING 206
SWIDTH 337 0
DWIDTH 30 0
BBX 22 75 4 0
BITMAP
002000
007000
00F800
01FE00
03FF00
07FF80
0FFFC0
1F8FE0
3F03F0
7C00F8
F00078
600018
000000
000000
000000
000000
000000
FFFFFC
FFFFFC
07FF80
03FF00
01FE00
01FE00
01FC00
01FC00
01FC00
01FC00
00FC00
00FC00
00FC00
00FC00
00FC00
00FC00
00FC00
00FC00
00FC00
00FC00
00FC00
00FC00
00FC00
00FC00
00FC00
00FC00
00FC00
00FC00
00FC00
00FC00
00FC00
00FC00
00FC00
00FC00
00FC00
00FC00
00FC00
00FC00
00FC00
00FC00
00FC00
00FC00
00FC00
00FC00
00FC00
00FC00
00FC00
00FC00
00FC00
01FC00
01FC00
01FC00
01FE00
01FE00
03FF00
0FFF80
FFFFFC
FFFFFC
ENDCHAR
STARTCHAR 00CF
ENCODING 207
SWIDTH 337 0
DWIDTH 30 0
BBX 22 75 4 0
BITMAP
3C00F0
7E01F8
7F01FC
7F01FC
7F01FC
7F01FC
7E01F8
3C00F0
000000
000000
000000
000000
000000
000000
000000
000000
000000
FFFFFC
FFFFFC
07FF80
03FF00
01FE00
01FE00
01FC00
01FC00
01FC00
01FC00
00FC00
00FC00
00FC00
00FC00
00FC00
00FC00
00FC00
00FC00
00FC00
00FC00
00FC00
00FC00
00FC00
00FC00
00FC00
00FC00
00FC00
00FC00
00FC00
00FC00
00FC00
00FC00
00FC00
00FC00
00FC00
00FC00
00FC00
00FC00
00FC00
00FC00
00FC00
00FC00
00FC00
00FC00
00FC00
00FC00
00FC00
00FC00
00FC00
01FC00
01FC00
01FC00
01FE00
01FE00
03FF00
0FFF80
FFFFFC
FFFFFC
ENDCHAR
STARTCHAR 00D0
ENCODING 208
SWIDTH 731 0
DWIDTH 65 0
BBX 57 59 4 0
BITMAP
C000000000000000
FFFFFFFF80000000
FFFFFFFFF8000000
07FFFFFFFF000000
03FFFFFFFFC00000
01FC0000FFF00000
01FC00001FF80000
01FC000003FE0000
00FC000001FF0000
00FC0000007F8000
00FC0000003FC000
00FC0000001FC000
00FC0000000FE000
00FC00000007F000
00FC00000007F000
00FC00000003F800
00FC00000003FC00
00FC00000001FC00
00FC00000001FC00
00FC00000000FE00
00FC00000000FE00
00FC00000000FE00
00FC000000007F00
00FC000000007F00
00FC000000007F00
00FC000000007F00
7FFFFFFC00007F00
FFFFFFFC00007F00
FFFFFFF800007F00
00FC000000007F80
00FC000000007F80
00FC000000007F00
00FC000000007F00
00FC000000007F00
00FC000000007F00
00FC000000007F00
00FC000000007F00
00FC00000000FF00
00FC00000000FE00
00FC00000000FE00
00FC00000001FE00
00FC00000001FC00
00FC00000003FC00
00FC00000003FC00
00FC00000007F800
00FC00000007F000
00FC0000000FF000
00FC0000001FE000
00FC0000003FC000
00FC0000007FC000
00FC000001FF8000
01FC000003FF0000
01FE00000FFE0000
01FF0000FFF80000
03FFFFFFFFF00000
03FFFFFFFFC00000
0FFFFFFFFF000000
FFFFFFFFF8000000
FFFFFFFF80000000
ENDCHAR
STARTCHAR 00D1
ENCODING 209
SWIDTH 742 0
DWIDTH 66 0
BBX 59 75 4 -1
BITMAP
0000000000400000
00000FFC01C00000
00003FFFFFC00000
00007FFFFF800000
0000FFFFFF800000
0000FFFFFE000000
0001C01FFC000000
0001000000000000
0000000000000000
0000000000000000
0000000000000000
0000000000000000
0000000000000000
0000000000000000
0000000000000000
F001000003C00060
FFFF000003FFFFE0
FFFF800003FFFFE0
07FF8000001FFC00
03FFC000000FF800
01FFC0000007F000
01FFE0000007F000
01FFF0000007F000
01FFF0000007F000
00FFF8000003F000
00FFF8000003F000
00FFFC000003E000
00FBFC000003E000
00FBFE000003E000
00F9FF000003E000
00F8FF000003E000
00F8FF800003E000
00F87F800003E000
00F83FC00003E000
00F83FE00003E000
00F81FE00003E000
00F80FF00003E000
00F80FF80003E000
00F807F80003E000
00F803FC0003E000
00F803FE0003E000
00F801FE0003E000
00F800FF0003E000
00F800FF0003E000
00F8007F8003E000
00F8003FC003E000
00F8003FC003E000
00F8001FE003E000
00F8000FF003E000
00F8000FF003E000
00F80007F803E000
00F80003FC03E000
00F80003FE03E000
00F80001FE03E000
00F80000FF03E000
00F80000FF83E000
00F800007FC3E000
00F800003FC3E000
00F800003FE3E000
00F800001FF3E000
00F800000FF3E000
00F8000007FBE000
00F8000007FFE000
00F8000003FFE000
00F8000001FFE000
00F8000001FFE000
01F8000000FFE000
01FC0000007FF000
01FC0000007FF000
01FC0000003FF000
03FE0000001FF000
0FFF0000001FF000
FFFFF800000FF000
FFFFF8000007F000
000000000007F000
ENDCHAR
STARTCHAR 00D2
ENCODING 210
SWIDTH 765 0
DWIDTH 68 0
BBX 58 77 5 -1
BITMAP
0000100000000000
00007C0000000000
00007E0000000000
00007F8000000000
00007FE000000000
00003FF800000000
00000FFC00000000
000001FF00000000
0000007FC0000000
0000000FF0000000
00000001F0000000
0000000070000000
0000000000000000
0000000000000000
0000000000000000
0000000000000000
0000000000000000
000001FFE0000000
00001FFFFE000000
0000FFFFFFC00000
0003FFFFFFF00000
0007FFFFFFF80000
001FFE003FFE0000
003FF00007FF0000
007FC00001FF8000
00FF0000007FC000
01FE0000003FE000
03FC0000000FF000
07F800000007F800
07F000000003F800
0FE000000003FC00
0FE000000001FC00
1FC000000000FE00
1FC000000000FE00
3F80000000007F00
3F80000000007F00
7F00000000003F80
7F00000000003F80
7F00000000003F80
7F00000000003F80
FE00000000001FC0
FE00000000001FC0
FE00000000001FC0
FE00000000001FC0
FE00000000001FC0
FE00000000001FC0
FE00000000001FC0
FE00000000001FC0
FE00000000001FC0
FE00000000001FC0
FE00000000001FC0
FE00000000001FC0
FE00000000001FC0
FE00000000003F80
7F00000000003F80
7F00000000003F80
7F00000000003F80
7F80000000007F00
3F80000000007F00
3F8000000000FF00
3FC000000000FE00
1FE000000001FE00
1FE000000001FC00
0FF000000003F800
07F800000007F800
07FC0000000FF000
03FE0000001FE000
01FF0000003FC000
00FFC00000FF8000
007FE00003FF0000
003FFC000FFE0000
001FFFFFFFFC0000
0007FFFFFFF00000
0001FFFFFFC00000
00007FFFFF000000
00000FFFF8000000
0000001800000000
ENDCHAR
STARTCHAR 00D3
ENCODING 211
SWIDTH 765 0
DWIDTH 68 0
BBX 58 77 5 -1
BITMAP
0000000002000000
000000000F000000
000000001F800000
000000007F800000
00000001FF800000
00000007FF000000
0000001FFC000000
0000003FE0000000
000000FF80000000
000003FC00000000
000003E000000000
0000038000000000
0000000000000000
0000000000000000
0000000000000000
0000000000000000
0000000000000000
000001FFE0000000
00001FFFFE000000
0000FFFFFFC00000
0003FFFFFFF00000
0007FFFFFFF80000
001FFE003FFE0000
003FF00007FF0000
007FC00001FF8000
00FF0000007FC000
01FE0000003FE000
03FC0000000FF000
07F800000007F800
07F000000003F800
0FE000000003FC00
0FE000000001FC00
1FC000000000FE00
1FC000000000FE00
3F80000000007F00
3F80000000007F00
7F00000000003F80
7F00000000003F80
7F00000000003F80
7F00000000003F80
FE00000000001FC0
FE00000000001FC0
FE00000000001FC0
FE00000000001FC0
FE00000000001FC0
FE00000000001FC0
FE00000000001FC0
FE00000000001FC0
FE00000000001FC0
FE00000000001FC0
FE00000000001FC0
FE00000000001FC0
FE00000000001FC0
FE00000000003F80
7F00000000003F80
7F00000000003F80
7F00000000003F80
7F80000000007F00
3F80000000007F00
3F8000000000FF00
3FC000000000FE00
1FE000000001FE00
1FE000000001FC00
0FF000000003F800
07F800000007F800
07FC0000000FF000
03FE0000001FE000
01FF0000003FC000
00FFC00000FF8000
007FE00003FF0000
003FFC000FFE0000
001FFFFFFFFC0000
0007FFFFFFF00000
0001FFFFFFC00000
00007FFFFF000000
00000FFFF8000000
0000001800000000
ENDCHAR
STARTCHAR 00D4
ENCODING 212
SWIDTH 765 0
DWIDTH 68 0
BBX 58 76 5 -1
BITMAP
0000000600000000
0000000F00000000
0000001F80000000
0000003FC0000000
0000007FE0000000
000000FFF0000000
000003FBF8000000
000007F0FC000000
00000FC03F000000
00001F001F000000
00000E0007000000
0000080001000000
0000000000000000
0000000000000000
0000000000000000
0000000000000000
000001FFE0000000
00001FFFFE000000
0000FFFFFFC00000
0003FFFFFFF00000
0007FFFFFFF80000
001FFE003FFE0000
003FF00007FF0000
007FC00001FF8000
00FF0000007FC000
01FE0000003FE000
03FC0000000FF000
07F800000007F800
07F000000003F800
0FE000000003FC00
0FE000000001FC00
1FC000000000FE00
1FC000000000FE00
3F80000000007F00
3F80000000007F00
7F00000000003F80
7F00000000003F80
7F00000000003F80
7F00000000003F80
FE00000000001FC0
FE00000000001FC0
FE00000000001FC0
FE00000000001FC0
FE00000000001FC0
FE00000000001FC0
FE00000000001FC0
FE00000000001FC0
FE00000000001FC0
FE00000000001FC0
FE00000000001FC0
FE00000000001FC0
FE00000000001FC0
FE00000000003F80
7F00000000003F80
7F00000000003F80
7F00000000003F80
7F80000000007F00
3F80000000007F00
3F8000000000FF00
3FC000000000FE00
1FE000000001FE00
1FE000000001FC00
0FF000000003F800
07F800000007F800
07FC0000000FF000
03FE0000001FE000
01FF0000003FC000
00FFC00000FF8000
007FE00003FF0000
003FFC000FFE0000
001FFFFFFFFC0000
0007FFFFFFF00000
0001FFFFFFC00000
00007FFFFF000000
00000FFFF8000000
0000001800000000
ENDCHAR
STARTCHAR 00D5
ENCODING 213
SWIDTH 765 0
DWIDTH 68 0
BBX 58 76 5 -1
BITMAP
0000000000200000
000007F000600000
00001FFF01C00000
00003FFFFFC00000
00007FFFFF800000
0000FFFFFF800000
0000E03FFF000000
0000C003FC000000
0001800000000000
0000000000000000
0000000000000000
0000000000000000
0000000000000000
0000000000000000
0000000000000000
0000000000000000
000001FFE0000000
00001FFFFE000000
0000FFFFFFC00000
0003FFFFFFF00000
0007FFFFFFF80000
001FFE003FFE0000
003FF00007FF0000
007FC00001FF8000
00FF0000007FC000
01FE0000003FE000
03FC0000000FF000
07F800000007F800
07F000000003F800
0FE000000003FC00
0FE000000001FC00
1FC000000000FE00
1FC000000000FE00
3F80000000007F00
3F80000000007F00
7F00000000003F80
7F00000000003F80
7F00000000003F80
7F00000000003F80
FE00000000001FC0
FE00000000001FC0
FE00000000001FC0
FE00000000001FC0
FE00000000001FC0
FE00000000001FC0
FE00000000001FC0
FE00000000001FC0
FE00000000001FC0
FE00000000001FC0
FE00000000001FC0
FE00000000001FC0
FE00000000001FC0
FE00000000003F80
7F00000000003F80
7F00000000003F80
7F00000000003F80
7F80000000007F00
3F80000000007F00
3F8000000000FF00
3FC000000000FE00
1FE000000001FE00
1FE000000001FC00
0FF000000003F800
07F800000007F800
07FC0000000FF000
03FE0000001FE000
01FF0000003FC000
00FFC00000FF8000
007FE00003FF0000
003FFC000FFE0000
001FFFFFFFFC0000
0007FFFFFFF00000
0001FFFFFFC00000
00007FFFFF000000
00000FFFF8000000
0000001800000000
ENDCHAR
STARTCHAR 00D6
ENCODING 214
SWIDTH 765 0
DWIDTH 68 0
BBX 58 76 5 -1
BITMAP
00000F003C000000
00001F807E000000
00001FC07E000000
00003FC0FF000000
00003FC0FF000000
00001FC07F000000
00001F807E000000
00000F003C000000
0000000000000000
0000000000000000
0000000000000000
0000000000000000
0000000000000000
0000000000000000
0000000000000000
0000000000000000
000001FFE0000000
00001FFFFE000000
0000FFFFFFC00000
0003FFFFFFF00000
0007FFFFFFF80000
001FFE003FFE0000
003FF00007FF0000
007FC00001FF8000
00FF0000007FC000
01FE0000003FE000
03FC0000000FF000
07F800000007F800
07F000000003F800
0FE000000003FC00
0FE000000001FC00
1FC000000000FE00
1FC000000000FE00
3F80000000007F00
3F80000000007F00
7F00000000003F80
7F00000000003F80
7F00000000003F80
7F00000000003F80
FE00000000001FC0
FE00000000001FC0
FE00000000001FC0
FE00000000001FC0
FE00000000001FC0
FE00000000001FC0
FE00000000001FC0
FE00000000001FC0
FE00000000001FC0
FE00000000001FC0
FE00000000001FC0
FE00000000001FC0
FE00000000001FC0
FE00000000003F80
7F00000000003F80
7F00000000003F80
7F00000000003F80
7F80000000007F00
3F80000000007F00
3F8000000000FF00
3FC000000000FE00
1FE000000001FE00
1FE000000001FC00
0FF000000003F800
07F800000007F800
07FC0000000FF000
03FE0000001FE000
01FF0000003FC000
00FFC00000FF8000
007FE00003FF0000
003FFC000FFE0000
001FFFFFFFFC0000
0007FFFFFFF00000
0001FFFFFFC00000
00007FFFFF000000
00000FFFF8000000
0000001800000000
ENDCHAR
STARTCHAR 00D7
ENCODING 215
SWIDTH 461 0
DWIDTH 41 0
BBX 29 28 6 7
BITMAP
180000C0
3C0001E0
7E0003F8
FF0007F0
3F800FE0
1FC01FC0
0FE03F80
07F07F00
03F8FE00
01FDFC00
00FFF800
007FF000
003FE000
001FC000
003FE000
007FF000
00FFF800
01FDFC00
03F8FE00
07F07F00
0FE03F80
1FC01FC0
3F800FE0
7F0007F0
FE0003F8
7C0001F0
380000E0
10000040
ENDCHAR
STARTCHAR 00D8
ENCODING 216
SWIDTH 765 0
DWIDTH 68 0
BBX 59 62 4 -1
BITMAP
00000000000007E0
0000000000000FC0
000000FFF0000FC0
00000FFFFE001F80
00007FFFFFC03F00
0001FFFFFFF07E00
0003FFFFFFF87E00
000FFF003FFEFC00
001FF80007FFF800
003FE00001FFF000
007F8000007FF000
00FF0000001FE000
01FE0000000FF000
03FC0000001FF800
03F80000003FFC00
07F00000007FFC00
07F0000000FCFE00
0FE0000001F8FF00
0FE0000003F87F00
1FC0000007F07F80
1FC0000007E03F80
3F8000000FC03F80
3F8000001F801FC0
3F8000003F001FC0
3F8000007E001FC0
7F000000FC000FE0
7F000001F8000FE0
7F000003F8000FE0
7F000007F0000FE0
7F00000FE0000FE0
7F00000FC0000FE0
7F00001F80000FE0
7F00003F00000FE0
7F00007E00000FE0
7F0000FC00000FE0
7F0001F800000FE0
7F0003F000000FE0
7F0007F000000FE0
7F800FE000000FE0
3F800FC000001FC0
3F801F8000001FC0
3F803F0000001FC0
3FC07E0000003F80
1FC0FC0000003F80
1FC1F80000003F80
0FE3F00000007F00
0FF7E0000000FF00
07FFE0000000FE00
07FFC0000001FE00
03FF80000003FC00
03FF00000007F800
01FF0000000FF800
00FF8000001FF000
01FFC000007FE000
03FFF00000FFC000
07FFFE0007FF0000
0FCFFFFFFFFE0000
1FC3FFFFFFF80000
1F80FFFFFFE00000
3F003FFFFF800000
7E0007FFFC000000
FC00000C00000000
ENDCHAR
STARTCHAR 00D9
ENCODING 217
SWIDTH 720 0
DWIDTH 64 0
BBX 60 77 2 -1
BITMAP
0000020000000000
00000F8000000000
00000FC000000000
00000FF000000000
00000FFC00000000
000007FF00000000
000000FFC0000000
0000003FF0000000
00000007F8000000
00000001FE000000
000000003E000000
0000000006000000
0000000000000000
0000000000000000
0000000000000000
0000000000000000
0000000000000000
FFFFFC0001FFFFF0
7FFFFC0001FFFFF0
07FFC000000FFE00
03FF00000007FC00
01FF00000003F800
00FE00000003F800
00FE00000001F800
00FE00000001F800
00FE00000001F000
00FE00000001F000
00FE00000001F000
00FE00000001F000
00FE00000001F000
00FC00000001F000
00FC00000001F000
00FC00000001F000
00FC00000001F000
00FC00000001F000
00FC00000001F000
00FC00000001F000
00FC00000001F000
00FC00000001F000
00FC00000001F000
00FC00000001F000
00FC00000001F000
00FC00000001F000
00FC00000001F000
00FC00000001F000
00FC00000001F000
00FC00000001F000
00FC00000001F000
00FC00000001F000
00FC00000001F000
00FC00000001F000
00FC00000001F000
00FC00000001F000
00FC00000001F000
00FC00000001F000
00FE00000001F000
00FE00000001F000
00FE00000001F000
00FE00000001F000
00FE00000001F000
007E00000003F000
007E00000003F000
007F00000003E000
007F00000007E000
003F80000007E000
003F8000000FC000
003FC000001FC000
001FE000001F8000
000FF000007F8000
000FFC0000FF0000
0007FF0007FE0000
0003FFFFFFFC0000
0000FFFFFFF80000
00007FFFFFE00000
00001FFFFF800000
000003FFFC000000
0000000700000000
ENDCHAR
STARTCHAR 00DA
ENCODING 218
SWIDTH 720 0
DWIDTH 64 0
BBX 60 77 2 -1
BITMAP
0000000002000000
0000000007800000
000000001F800000
000000007FC00000
00000001FF800000
00000007FF000000
0000000FFC000000
0000003FE0000000
000000FF00000000
000003FC00000000
000003E000000000
0000018000000000
0000000000000000
0000000000000000
0000000000000000
0000000000000000
0000000000000000
FFFFFC0001FFFFF0
7FFFFC0001FFFFF0
07FFC000000FFE00
03FF00000007FC00
01FF00000003F800
00FE00000003F800
00FE00000001F800
00FE00000001F800
00FE00000001F000
00FE00000001F000
00FE00000001F000
00FE00000001F000
00FE00000001F000
00FC00000001F000
00FC00000001F000
00FC00000001F000
00FC00000001F000
00FC00000001F000
00FC00000001F000
00FC00000001F000
00FC00000001F000
00FC00000001F000
00FC00000001F000
00FC00000001F000
00FC00000001F000
00FC00000001F000
00FC00000001F000
00FC00000001F000
00FC00000001F000
00FC00000001F000
00FC00000001F000
00FC00000001F000
00FC00000001F000
00FC00000001F000
00FC00000001F000
00FC00000001F000
00FC00000001F000
00FC00000001F000
00FE00000001F000
00FE00000001F000
00FE00000001F000
00FE00000001F000
00FE00000001F000
007E00000003F000
007E00000003F000
007F00000003E000
007F00000007E000
003F80000007E000
003F8000000FC000
003FC000001FC000
001FE000001F8000
000FF000007F8000
000FFC0000FF0000
0007FF0007FE0000
0003FFFFFFFC0000
0000FFFFFFF80000
00007FFFFFE00000
00001FFFFF800000
000003FFFC000000
0000000700000000
ENDCHAR
STARTCHAR 00DB
ENCODING 219
SWIDTH 720 0
DWIDTH 64 0
BBX 60 76 2 -1
BITMAP
0000000600000000
0000000F00000000
0000001F80000000
0000003FE0000000
0000007FF0000000
000000FFF8000000
000001F9FC000000
000007F07E000000
00000FC01F000000
00000F000F800000
00000E0003000000
0000000000000000
0000000000000000
0000000000000000
0000000000000000
0000000000000000
FFFFFC0001FFFFF0
7FFFFC0001FFFFF0
07FFC000000FFE00
03FF00000007FC00
01FF00000003F800
00FE00000003F800
00FE00000001F800
00FE00000001F800
00FE00000001F000
00FE00000001F000
00FE00000001F000
00FE00000001F000
00FE00000001F000
00FC00000001F000
00FC00000001F000
00FC00000001F000
00FC00000001F000
00FC00000001F000
00FC00000001F000
00FC00000001F000
00FC00000001F000
00FC00000001F000
00FC00000001F000
00FC00000001F000
00FC00000001F000
00FC00000001F000
00FC00000001F000
00FC00000001F000
00FC00000001F000
00FC00000001F000
00FC00000001F000
00FC00000001F000
00FC00000001F000
00FC00000001F000
00FC00000001F000
00FC00000001F000
00FC00000001F000
00FC00000001F000
00FE00000001F000
00FE00000001F000
00FE00000001F000
00FE00000001F000
00FE00000001F000
007E00000003F000
007E00000003F000
007F00000003E000
007F00000007E000
003F80000007E000
003F8000000FC000
003FC000001FC000
001FE000001F8000
000FF000007F8000
000FFC0000FF0000
0007FF0007FE0000
0003FFFFFFFC0000
0000FFFFFFF80000
00007FFFFFE00000
00001FFFFF800000
000003FFFC000000
0000000700000000
ENDCHAR
STARTCHAR 00DC
ENCODING 220
SWIDTH 720 0
DWIDTH 64 0
BBX 60 76 2 -1
BITMAP
000001C007000000
000003E00F800000
000007F01FC00000
000007F01FC00000
000007F01FC00000
000007F01FC00000
000003F00FC00000
000001C007000000
0000000000000000
0000000000000000
0000000000000000
0000000000000000
0000000000000000
0000000000000000
0000000000000000
0000000000000000
FFFFFC0001FFFFF0
7FFFFC0001FFFFF0
07FFC000000FFE00
03FF00000007FC00
01FF00000003F800
00FE00000003F800
00FE00000001F800
00FE00000001F800
00FE00000001F000
00FE00000001F000
00FE00000001F000
00FE00000001F000
00FE00000001F000
00FC00000001F000
00FC00000001F000
00FC00000001F000
00FC00000001F000
00FC00000001F000
00FC00000001F000
00FC00000001F000
00FC00000001F000
00FC00000001F000
00FC00000001F000
00FC00000001F000
00FC00000001F000
00FC00000001F000
00FC00000001F000
00FC00000001F000
00FC00000001F000
00FC00000001F000
00FC00000001F000
00FC00000001F000
00FC00000001F000
00FC00000001F000
00FC00000001F000
00FC00000001F000
00FC00000001F000
00FC00000001F000
00FE00000001F000
00FE00000001F000
00FE00000001F000
00FE00000001F000
00FE00000001F000
007E00000003F000
007E00000003F000
007F00000003E000
007F00000007E000
003F80000007E000
003F8000000FC000
003FC000001FC000
001FE000001F8000
000FF000007F8000
000FFC0000FF0000
0007FF0007FE0000
0003FFFFFFFC0000
0000FFFFFFF80000
00007FFFFFE00000
00001FFFFF800000
000003FFFC000000
0000000700000000
ENDCHAR
STARTCHAR 00DD
ENCODING 221
SWIDTH 607 0
DWIDTH 54 0
BBX 57 75 -1 0
BITMAP
0000000007000000
000000000F800000
000000003FC00000
00000000FF800000
00000003FF800000
0000000FFE000000
0000001FF0000000
0000007FC0000000
000001FE00000000
000003F800000000
000003C000000000
0000010000000000
0000000000000000
0000000000000000
0000000000000000
0000000000000000
0000000000000000
FFFFFE003FFFFF80
7FFFFC001FFFFF00
07FF800000FFF000
01FF0000007FC000
00FF0000007F8000
007F8000007F0000
007F8000007E0000
003FC00000FC0000
001FC00000FC0000
001FE00001F80000
000FE00001F00000
0007F00003F00000
0007F00003E00000
0003F80007C00000
0003F80007C00000
0001FC000F800000
0000FE000F000000
0000FE001F000000
00007F001E000000
00003F003E000000
00003F803C000000
00001F8078000000
00001FC078000000
00000FC0F0000000
000007E1F0000000
000007F1E0000000
000003F3E0000000
000003FBC0000000
000001FF80000000
000001FF80000000
000000FF00000000
000000FF00000000
0000007F00000000
0000007E00000000
0000007E00000000
0000007E00000000
0000007E00000000
0000007E00000000
0000007E00000000
0000007E00000000
0000007E00000000
0000007E00000000
0000007E00000000
0000007E00000000
0000007E00000000
0000007E00000000
0000007E00000000
0000007E00000000
0000007F00000000
0000007F00000000
0000007F00000000
0000007F00000000
000000FF00000000
000000FF00000000
000001FF80000000
000003FFE0000000
00007FFFFE000000
00007FFFFE000000
ENDCHAR
STARTCHAR 00DE
ENCODING 222
SWIDTH 540 0
DWIDTH 48 0
BBX 40 58 4 0
BITMAP
FFFFFC0000
FFFFFC0000
07FF800000
03FF000000
01FE000000
01FE000000
01FC000000
01FC000000
00FC000000
00FC000000
00FC000000
00FC000000
00FFFFC000
00FFFFFC00
00FFFFFF80
00FFFFFFC0
00FC007FF0
00FC000FF8
00FC0003FC
00FC0001FC
00FC0000FE
00FC00007E
00FC00007F
00FC00003F
00FC00003F
00FC00003F
00FC00003F
00FC00003F
00FC00003F
00FC00003F
00FC00003F
00FC00003F
00FC00003F
00FC00007E
00FC00007E
00FC0000FC
00FC0000FC
00FC0001F8
00FC0007F0
00FC001FE0
00FC07FF80
00FFFFFE00
00FFFFF800
00FFFF0000
00FC000000
00FC000000
00FC000000
00FC000000
00FC000000
01FC000000
01FC000000
01FC000000
01FE000000
01FE000000
03FF000000
0FFF800000
FFFFFC0000
FFFFFC0000
ENDCHAR
STARTCHAR 00DF
ENCODING 223
SWIDTH 573 0
DWIDTH 51 0
BBX 45 66 3 -1
BITMAP
00001FE00000
0000FFFC0000
0003FFFF0000
0007FFFF8000
000FE07FC000
001F800FE000
003F0007E000
003E0003F000
007E0003F000
007C0001F800
00FC0001F800
00FC0001F800
00F80001F800
00F80001F800
01F80001F000
01F80003F000
01F80003E000
01F80007E000
01F80007C000
01F8000F8000
01F8001F8000
01F8003F0000
01F8003E0000
01F8007C0000
01F800F80000
3FF800F00000
FFF801F00000
FFF801E00000
01F801E00000
01F803E00000
01F803F00000
01F803F00000
01F803F80000
01F803FC0000
01F801FE0000
01F801FF8000
01F801FFC000
01F800FFF000
01F8007FF800
01F8003FFC00
01F8000FFF00
01F80007FF80
01F80001FF80
01F800007FC0
01F800003FE0
01F800001FE0
01F800000FF0
01F8000007F0
01F8000003F0
01F8000003F8
01F8000003F8
01F8000001F8
01F8000001F8
01F8010001F8
01F8030001F8
01F8038001F0
01F8038003F0
01F8038003F0
03F803C003E0
03F803C007E0
03F803E00FC0
03FC03F83F80
07FF03FFFF00
FFFFE0FFFE00
FFFFF03FF800
000000010000
ENDCHAR
STARTCHAR 00E0
ENCODING 224
SWIDTH 495 0
DWIDTH 44 0
BBX 40 62 3 -1
BITMAP
0040000000
00F0000000
01F8000000
01FE000000
01FF800000
01FFE00000
003FF00000
0007FC0000
0001FF0000
00003FC000
00000FC000
000001C000
0000000000
0000000000
0000000000
0000000000
0000000000
0000000000
0000000000
0007FE0000
00FFFFC000
07FFFFF000
0FFFBFF800
0FE003FC00
0F8000FE00
0F00007F00
0F00003F00
0600003F80
0600001F80
0000001F80
0000001F80
0000001F80
0000001F80
0000001F80
0000001F80
0000001F80
0003FFFF80
001FFFFF80
00FFFFFF80
03FFE01F80
07FC001F80
0FF0001F80
1FC0001F80
3F80001F80
7F00001F80
7E00001F80
7E00001F80
FE00001F80
FE00001F80
FE00003F80
FE00003F80
FE00007F80
7E0000FF80
7F0003DF80
7F8007BF80
3FC03F3F80
3FFFFE3F80
1FFFFC3FC0
0FFFF83FE0
07FFE03FFF
01FF803FFF
0010000000
ENDCHAR
STARTCHAR 00E1
ENCODING 225
SWIDTH 495 0
DWIDTH 44 0
BBX 40 61 3 -1
BITMAP
0000001C00
0000007E00
000001FE00
000003FE00
00000FFE00
00003FF800
0000FFC000
0003FF0000
0007F80000
000FC00000
000F000000
0008000000
0000000000
0000000000
0000000000
0000000000
0000000000
0000000000
0007FE0000
00FFFFC000
07FFFFF000
0FFFBFF800
0FE003FC00
0F8000FE00
0F00007F00
0F00003F00
0600003F80
0600001F80
0000001F80
0000001F80
0000001F80
0000001F80
0000001F80
0000001F80
0000001F80
0003FFFF80
001FFFFF80
00FFFFFF80
03FFE01F80
07FC001F80
0FF0001F80
1FC0001F80
3F80001F80
7F00001F80
7E00001F80
7E00001F80
FE00001F80
FE00001F80
FE00003F80
FE00003F80
FE00007F80
7E0000FF80
7F0003DF80
7F8007BF80
3FC03F3F80
3FFFFE3F80
1FFFFC3FC0
0FFFF83FE0
07FFE03FFF
01FF803FFF
0010000000
ENDCHAR
STARTCHAR 00E2
ENCODING 226
SWIDTH 495 0
DWIDTH 44 0
BBX 40 61 3 -1
BITMAP
0000600000
0000F00000
0001F80000
0003FC0000
0007FE0000
000FFF0000
001FBF8000
007F0FC000
00FC03E000
01F001F000
00E0007000
0080001000
0000000000
0000000000
0000000000
0000000000
0000000000
0000000000
0007FE0000
00FFFFC000
07FFFFF000
0FFFBFF800
0FE003FC00
0F8000FE00
0F00007F00
0F00003F00
0600003F80
0600001F80
0000001F80
0000001F80
0000001F80
0000001F80
0000001F80
0000001F80
0000001F80
0003FFFF80
001FFFFF80
00FFFFFF80
03FFE01F80
07FC001F80
0FF0001F80
1FC0001F80
3F80001F80
7F00001F80
7E00001F80
7E00001F80
FE00001F80
FE00001F80
FE00003F80
FE00003F80
FE00007F80
7E0000FF80
7F0003DF80
7F8007BF80
3FC03F3F80
3FFFFE3F80
1FFFFC3FC0
0FFFF83FE0
07FFE03FFF
01FF803FFF
0010000000
ENDCHAR
STARTCHAR 00E3
ENCODING 227
SWIDTH 495 0
DWIDTH 44 0
BBX 40 61 3 -1
BITMAP
0000000300
003FC00700
00FFFFFF00
01FFFFFE00
03FFFFFC00
07FFFFF800
07FFFFE000
0E00000000
0400000000
0000000000
0000000000
0000000000
0000000000
0000000000
0000000000
0000000000
0000000000
0000000000
0007FE0000
00FFFFC000
07FFFFF000
0FFFBFF800
0FE003FC00
0F8000FE00
0F00007F00
0F00003F00
0600003F80
0600001F80
0000001F80
0000001F80
0000001F80
0000001F80
0000001F80
0000001F80
0000001F80
0003FFFF80
001FFFFF80
00FFFFFF80
03FFE01F80
07FC001F80
0FF0001F80
1FC0001F80
3F80001F80
7F00001F80
7E00001F80
7E00001F80
FE00001F80
FE00001F80
FE00003F80
FE00003F80
FE00007F80
7E0000FF80
7F0003DF80
7F8007BF80
3FC03F3F80
3FFFFE3F80
1FFFFC3FC0
0FFFF83FE0
07FFE03FFF
01FF803FFF
0010000000
ENDCHAR
STARTCHAR 00E4
ENCODING 228
SWIDTH 495 0
DWIDTH 44 0
BBX 40 61 3 -1
BITMAP
003801E000
007C03F000
00FE03F800
00FE03F800
00FE03F800
00FE03F800
00FC03F000
007801E000
0000000000
0000000000
0000000000
0000000000
0000000000
0000000000
0000000000
0000000000
0000000000
0000000000
0007FE0000
00FFFFC000
07FFFFF000
0FFFBFF800
0FE003FC00
0F8000FE00
0F00007F00
0F00003F00
0600003F80
0600001F80
0000001F80
0000001F80
0000001F80
0000001F80
0000001F80
0000001F80
0000001F80
0003FFFF80
001FFFFF80
00FFFFFF80
03FFE01F80
07FC001F80
0FF0001F80
1FC0001F80
3F80001F80
7F00001F80
7E00001F80
7E00001F80
FE00001F80
FE00001F80
FE00003F80
FE00003F80
FE00007F80
7E0000FF80
7F0003DF80
7F8007BF80
3FC03F3F80
3FFFFE3F80
1FFFFC3FC0
0FFFF83FE0
07FFE03FFF
01FF803FFF
0010000000
ENDCHAR
STARTCHAR 00E5
ENCODING 229
SWIDTH 495 0
DWIDTH 44 0
BBX 40 62 3 -1
BITMAP
00007E0000
0001FF8000
0003C3C000
000781C000
000701E000
000700E000
000700E000
000700E000
000700E000
000781E000
0003C3C000
0001FF8000
00007E0000
0000000000
0000000000
0000000000
0000000000
0000000000
0000000000
0007FE0000
00FFFFC000
07FFFFF000
0FFFBFF800
0FE003FC00
0F8000FE00
0F00007F00
0F00003F00
0600003F80
0600001F80
0000001F80
0000001F80
0000001F80
0000001F80
0000001F80
0000001F80
0000001F80
0003FFFF80
001FFFFF80
00FFFFFF80
03FFE01F80
07FC001F80
0FF0001F80
1FC0001F80
3F80001F80
7F00001F80
7E00001F80
7E00001F80
FE00001F80
FE00001F80
FE00003F80
FE00003F80
FE00007F80
7E0000FF80
7F0003DF80
7F8007BF80
3FC03F3F80
3FFFFE3F80
1FFFFC3FC0
0FFFF83FE0
07FFE03FFF
01FF803FFF
0010000000
ENDCHAR
STARTCHAR 00E6
ENCODING 230
SWIDTH 810 0
DWIDTH 72 0
BBX 66 43 3 -1
BITMAP
0007FE00001FF00000
00FFFFC001FFFE0000
03FFFFF007FFFFC000
0FFFBFF81FFEFFE000
0FE003FC3FC007F000
0FC000FE7F0003F800
0F80007FFE0001FC00
0F00003FFC0000FE00
0600003FF800007F00
0600001FF000007F00
0600001FF000003F00
0000001FE000003F80
0000001FE000003F80
0000001FC000003F80
0000001FC000003FC0
0000001FFFFFFFFFC0
0000001FFFFFFFFFC0
0003FFFFFFFFFFFF80
001FFFFF8000000000
00FFFFFF8000000000
03FFE01F8000000000
07FC001F8000000000
0FF0001F8000000000
1FC0001FC000000000
3F80001FC000000000
7F00001FC000000000
7E00001FC000000000
7E00001FC000000000
FE00001FE000000000
FE00001FE000000000
FE00003FF000000000
FE00003FF800000000
FE00007FF800000000
7E0000FFFC00000000
7F0003F9FF00000000
7F8007F0FF80000700
3FC03FE0FFF0001F00
3FFFFFC03FFFFFFE00
1FFFFF801FFFFFFC00
0FFFFE000FFFFFF000
07FFF80003FFFFC000
01FFE000007FFE0000
001000000001800000
ENDCHAR
STARTCHAR 00E7
ENCODING 231
SWIDTH 506 0
DWIDTH 45 0
BBX 38 59 4 -17
BITMAP
00003FF800
0003FFFF80
000FFFFFF0
003FFDFFF8
00FF0007F8
01FC0001F8
03F80000F0
07F0000070
0FE0000070
0FC0000030
1F80000000
3F80000000
3F00000000
7F00000000
7F00000000
7E00000000
FE00000000
FE00000000
FE00000000
FE00000000
FE00000000
FE00000000
FE00000000
FE00000000
FE00000000
FE00000000
7F00000000
7F00000000
7F00000000
3F80000000
3FC0000000
3FC0000000
1FE0000000
0FF0000000
0FF8000008
07FE00003C
03FF8001F8
01FFFFFFF8
007FFFFFF0
003FFFFFC0
000FFFFF00
0001FFF000
00001E0000
0000380000
0000780000
0000700000
0000FFC000
0001FFF000
0001FFF800
000001F800
000000F800
000000FC00
000000FC00
000000F800
000000F800
000603F000
000FFFF000
000FFFC000
0003FF8000
ENDCHAR
STARTCHAR 00E8
ENCODING 232
SWIDTH 528 0
DWIDTH 47 0
BBX 39 62 4 -1
BITMAP
0010000000
0078000000
007E000000
007F800000
007FE00000
007FF00000
000FFC0000
0003FF0000
00007FC000
00001FE000
000003F000
0000007000
0000000000
0000000000
0000000000
0000000000
0000000000
0000000000
0000000000
0000FF8000
0007FFF800
001FFFFE00
007FF3FF00
00FF003FC0
01FC000FE0
03F00007E0
07E00003F0
0FC00003F8
1FC00001F8
1F800001FC
3F000001FC
3F000000FE
7F000000FE
7E000001FE
7FFFFFFFFE
7FFFFFFFFE
FFFFFFFFFE
FE00000000
FE00000000
FE00000000
FE00000000
FE00000000
FE00000000
FE00000000
FE00000000
7F00000000
7F00000000
7F00000000
7F80000000
3F80000000
3FC0000000
1FE0000000
1FF0000000
0FF8000000
07FE000018
03FF8000F8
01FFFFFFF0
00FFFFFFE0
003FFFFFC0
000FFFFF00
0003FFF800
00000C0000
ENDCHAR
STARTCHAR 00E9
ENCODING 233
SWIDTH 528 0
DWIDTH 47 0
BBX 39 62 4 -1
BITMAP
0000000400
0000000F00
0000003F00
000000FF80
000003FF80
000007FF00
00001FF800
00007FE000
0001FF0000
0003FC0000
0007E00000
0003800000
0000000000
0000000000
0000000000
0000000000
0000000000
0000000000
0000000000
0000FF8000
0007FFF800
001FFFFE00
007FF3FF00
00FF003FC0
01FC000FE0
03F00007E0
07E00003F0
0FC00003F8
1FC00001F8
1F800001FC
3F000001FC
3F000000FE
7F000000FE
7E000001FE
7FFFFFFFFE
7FFFFFFFFE
FFFFFFFFFE
FE00000000
FE00000000
FE00000000
FE00000000
FE00000000
FE00000000
FE00000000
FE00000000
7F00000000
7F00000000
7F00000000
7F80000000
3F80000000
3FC0000000
1FE0000000
1FF0000000
0FF8000000
07FE000018
03FF8000F8
01FFFFFFF0
00FFFFFFE0
003FFFFFC0
000FFFFF00
0003FFF800
00000C0000
ENDCHAR
STARTCHAR 00EA
ENCODING 234
SWIDTH 528 0
DWIDTH 47 0
BBX 39 61 4 -1
BITMAP
0000080000
00001C0000
00007F0000
0000FF8000
0001FFC000
0003FFE000
0007F7F000
000FC1F800
001F80FC00
003E003E00
0038000E00
0010000400
0000000000
0000000000
0000000000
0000000000
0000000000
0000000000
0000FF8000
0007FFF800
001FFFFE00
007FF3FF00
00FF003FC0
01FC000FE0
03F00007E0
07E00003F0
0FC00003F8
1FC00001F8
1F800001FC
3F000001FC
3F000000FE
7F000000FE
7E000001FE
7FFFFFFFFE
7FFFFFFFFE
FFFFFFFFFE
FE00000000
FE00000000
FE00000000
FE00000000
FE00000000
FE00000000
FE00000000
FE00000000
7F00000000
7F00000000
7F00000000
7F80000000
3F80000000
3FC0000000
1FE0000000
1FF0000000
0FF8000000
07FE000018
03FF8000F8
01FFFFFFF0
00FFFFFFE0
003FFFFFC0
000FFFFF00
0003FFF800
00000C0000
ENDCHAR
STARTCHAR 00EB
ENCODING 235
SWIDTH 528 0
DWIDTH 47 0
BBX 39 61 4 -1
BITMAP
000E003800
001F007C00
003F80FE00
003F80FE00
003F80FE00
003F80FE00
003F00FC00
000E007800
0000000000
0000000000
0000000000
0000000000
0000000000
0000000000
0000000000
0000000000
0000000000
0000000000
0000FF8000
0007FFF800
001FFFFE00
007FF3FF00
00FF003FC0
01FC000FE0
03F00007E0
07E00003F0
0FC00003F8
1FC00001F8
1F800001FC
3F000001FC
3F000000FE
7F000000FE
7E000001FE
7FFFFFFFFE
7FFFFFFFFE
FFFFFFFFFE
FE00000000
FE00000000
FE00000000
FE00000000
FE00000000
FE00000000
FE00000000
FE00000000
7F00000000
7F00000000
7F00000000
7F80000000
3F80000000
3FC0000000
1FE0000000
1FF0000000
0FF8000000
07FE000018
03FF8000F8
01FFFFFFF0
00FFFFFFE0
003FFFFFC0
000FFFFF00
0003FFF800
00000C0000
ENDCHAR
STARTCHAR 00EC
ENCODING 236
SWIDTH 281 0
DWIDTH 25 0
BBX 24 61 -1 0
BITMAP
200000
F80000
FE0000
FF0000
FFC000
7FF000
0FFC00
03FF00
007F80
001FE0
0003E0
000060
000000
000000
000000
000000
000000
000000
000000
000080
0FFF80
0FFF80
00FF80
007F80
003F80
003F80
001F80
001F80
001F80
001F80
001F80
001F80
001F80
001F80
001F80
001F80
001F80
001F80
001F80
001F80
001F80
001F80
001F80
001F80
001F80
001F80
001F80
001F80
001F80
001F80
001F80
001F80
001F80
001F80
003F80
003F80
003F80
003FC0
007FE0
0FFFFE
0FFFFF
ENDCHAR
STARTCHAR 00ED
ENCODING 237
SWIDTH 281 0
DWIDTH 25 0
BBX 20 61 3 0
BITMAP
000080
0001E0
0007F0
001FF0
003FF0
00FFE0
03FF00
0FFC00
3FE000
7F0000
7C0000
600000
000000
000000
000000
000000
000000
000000
000000
000800
FFF800
FFF800
0FF800
07F800
03F800
03F800
01F800
01F800
01F800
01F800
01F800
01F800
01F800
01F800
01F800
01F800
01F800
01F800
01F800
01F800
01F800
01F800
01F800
01F800
01F800
01F800
01F800
01F800
01F800
01F800
01F800
01F800
01F800
01F800
03F800
03F800
03F800
03FC00
07FE00
FFFFE0
FFFFF0
ENDCHAR
STARTCHAR 00EE
ENCODING 238
SWIDTH 281 0
DWIDTH 25 0
BBX 22 60 1 0
BITMAP
003000
007800
00FC00
01FE00
07FF00
0FFF80
1FCFC0
3F07F0
7E01F8
F80078
600018
000000
000000
000000
000000
000000
000000
000000
000200
3FFE00
3FFE00
03FE00
01FE00
00FE00
00FE00
007E00
007E00
007E00
007E00
007E00
007E00
007E00
007E00
007E00
007E00
007E00
007E00
007E00
007E00
007E00
007E00
007E00
007E00
007E00
007E00
007E00
007E00
007E00
007E00
007E00
007E00
007E00
007E00
00FE00
00FE00
00FE00
00FF00
01FF80
3FFFF8
3FFFFC
ENDCHAR
STARTCHAR 00EF
ENCODING 239
SWIDTH 281 0
DWIDTH 25 0
BBX 22 60 1 0
BITMAP
3C00F0
7E01F8
FE03F8
FE03F8
FF03FC
FE03F8
7E01F8
3C00F0
000000
000000
000000
000000
000000
000000
000000
000000
000000
000000
000200
3FFE00
3FFE00
03FE00
01FE00
00FE00
00FE00
007E00
007E00
007E00
007E00
007E00
007E00
007E00
007E00
007E00
007E00
007E00
007E00
007E00
007E00
007E00
007E00
007E00
007E00
007E00
007E00
007E00
007E00
007E00
007E00
007E00
007E00
007E00
007E00
00FE00
00FE00
00FE00
00FF00
01FF80
3FFFF8
3FFFFC
ENDCHAR
STARTCHAR 00F0
ENCODING 240
SWIDTH 585 0
DWIDTH 52 0
BBX 43 66 4 -1
BITMAP
000007000000
00000FC00000
000007F00000
000001F80000
000000FC00C0
0000007E07E0
0000003F1FE0
0000001FFFC0
0000000FFE00
0000001FF800
000000FFE000
000003FFF000
00001FFBF000
00003FC1F800
00001F01F800
00000800FC00
00000000FC00
000000007E00
000000007E00
000000007E00
000000003F00
000000003F00
000000003F00
0000FFC01F80
0007FFF81F80
001FFFFE1F80
007FFBFF1F80
00FE001FDF80
03FC0007FFC0
07F00003FFC0
07E00001FFC0
0FC00000FFC0
1FC000007FC0
1F8000003FC0
3F8000003FC0
3F0000003FC0
7F0000001FC0
7F0000001FC0
7E0000001FC0
7E0000001FC0
FE0000000FC0
FE0000000FC0
FE0000000FC0
FE0000000FC0
FE0000000FC0
FE0000000FC0
FE0000000FC0
FE0000001FC0
FE0000001F80
7E0000001F80
7F0000001F80
7F0000001F80
7F0000003F00
3F8000003F00
3F8000007E00
1FC000007E00
1FE00000FC00
0FF00001FC00
07F00003F800
03FC0007F000
01FE000FE000
00FFC07FC000
003FFFFF8000
001FFFFE0000
0003FFF80000
00000C000000
ENDCHAR
STARTCHAR 00F1
ENCODING 241
SWIDTH 607 0
DWIDTH 54 0
BBX 50 60 3 0
BITMAP
000000000C0000
0001FE000C0000
0003FFE0380000
0007FFFFF80000
000FFFFFF00000
001FFFFFF00000
001C07FFE00000
0030007F800000
00300000000000
00000000000000
00000000000000
00000000000000
00000000000000
00000000000000
00000000000000
00000000000000
00000000000000
00000000000000
000000FF000000
FFF807FFE00000
FFF81FFFF80000
0FF83FFFFC0000
07F8FFFFFE0000
03F9FE03FF0000
03F9F000FF8000
01FBE0007F8000
01FF80003FC000
01FF00001FC000
01FE00001FC000
01FE00000FE000
01FC00000FE000
01F800000FE000
01F8000007E000
01F8000007E000
01F8000007E000
01F8000007E000
01F8000007E000
01F8000007E000
01F8000007E000
01F8000007E000
01F8000007E000
01F8000007E000
01F8000007E000
01F8000007E000
01F8000007E000
01F8000007E000
01F8000007E000
01F8000007E000
01F8000007E000
01F8000007E000
01F8000007E000
01F8000007E000
01F8000007E000
03F8000007E000
03F8000007E000
03F800000FF000
03FC00000FF000
07FE00000FF800
FFFFE0000FFFC0
FFFFF0000FFFC0
ENDCHAR
STARTCHAR 00F2
ENCODING 242
SWIDTH 585 0
DWIDTH 52 0
BBX 44 62 4 -1
BITMAP
000800000000
003C00000000
007F00000000
007F80000000
007FE0000000
003FF8000000
000FFE000000
0001FF000000
00007FC00000
00000FF00000
000001F00000
000000700000
000000000000
000000000000
000000000000
000000000000
000000000000
000000000000
000000000000
00007FE00000
0007FFFE0000
001FFFFF8000
007FFBFFC000
00FF001FF000
01FC0007F800
03F80003FC00
07F00001FE00
0FE00000FF00
1FC000007F00
1F8000003F80
3F8000003FC0
3F0000001FC0
7F0000001FC0
7F0000000FE0
7E0000000FE0
FE0000000FE0
FE00000007E0
FE00000007F0
FE00000007F0
FE00000007F0
FE00000007F0
FE00000007F0
FE00000007F0
FE00000007F0
FE00000007F0
7E0000000FE0
7F0000000FE0
7F0000000FE0
7F8000000FE0
3F8000001FC0
3FC000001FC0
1FC000003F80
0FE000007F80
0FF000007F00
07F80000FE00
03FC0003FC00
01FF0007F800
00FFC03FF000
003FFFFFC000
000FFFFF0000
0003FFFC0000
000006000000
ENDCHAR
STARTCHAR 00F3
ENCODING 243
SWIDTH 585 0
DWIDTH 52 0
BBX 44 62 4 -1
BITMAP
000000020000
000000078000
0000001FC000
0000003FC000
000000FFC000
000003FF8000
00000FFE0000
00001FF00000
00007FC00000
0001FE000000
0001F8000000
0001C0000000
000000000000
000000000000
000000000000
000000000000
000000000000
000000000000
000000000000
00007FE00000
0007FFFE0000
001FFFFF8000
007FFBFFC000
00FF001FF000
01FC0007F800
03F80003FC00
07F00001FE00
0FE00000FF00
1FC000007F00
1F8000003F80
3F8000003FC0
3F0000001FC0
7F0000001FC0
7F0000000FE0
7E0000000FE0
FE0000000FE0
FE00000007E0
FE00000007F0
FE00000007F0
FE00000007F0
FE00000007F0
FE00000007F0
FE00000007F0
FE00000007F0
FE00000007F0
7E0000000FE0
7F0000000FE0
7F0000000FE0
7F8000000FE0
3F8000001FC0
3FC000001FC0
1FC000003F80
0FE000007F80
0FF000007F00
07F80000FE00
03FC0003FC00
01FF0007F800
00FFC03FF000
003FFFFFC000
000FFFFF0000
0003FFFC0000
000006000000
ENDCHAR
STARTCHAR 00F4
ENCODING 244
SWIDTH 585 0
DWIDTH 52 0
BBX 44 61 4 -1
BITMAP
000002000000
000007800000
00000FC00000
00003FE00000
00007FF00000
0000FFF80000
0001FDFC0000
0003F07E0000
0007E03F0000
000F800F8000
000E00038000
000400010000
000000000000
000000000000
000000000000
000000000000
000000000000
000000000000
00007FE00000
0007FFFE0000
001FFFFF8000
007FFBFFC000
00FF001FF000
01FC0007F800
03F80003FC00
07F00001FE00
0FE00000FF00
1FC000007F00
1F8000003F80
3F8000003FC0
3F0000001FC0
7F0000001FC0
7F0000000FE0
7E0000000FE0
FE0000000FE0
FE00000007E0
FE00000007F0
FE00000007F0
FE00000007F0
FE00000007F0
FE00000007F0
FE00000007F0
FE00000007F0
FE00000007F0
7E0000000FE0
7F0000000FE0
7F0000000FE0
7F8000000FE0
3F8000001FC0
3FC000001FC0
1FC000003F80
0FE000007F80
0FF000007F00
07F80000FE00
03FC0003FC00
01FF0007F800
00FFC03FF000
003FFFFFC000
000FFFFF0000
0003FFFC0000
000006000000
ENDCHAR
STARTCHAR 00F5
ENCODING 245
SWIDTH 585 0
DWIDTH 52 0
BBX 44 61 4 -1
BITMAP
000000006000
000FF0006000
001FFF01C000
003FFFFFC000
007FFFFF8000
00FFFFFF8000
00E03FFF0000
018003FC0000
008000000000
000000000000
000000000000
000000000000
000000000000
000000000000
000000000000
000000000000
000000000000
000000000000
00007FE00000
0007FFFE0000
001FFFFF8000
007FFBFFC000
00FF001FF000
01FC0007F800
03F80003FC00
07F00001FE00
0FE00000FF00
1FC000007F00
1F8000003F80
3F8000003FC0
3F0000001FC0
7F0000001FC0
7F0000000FE0
7E0000000FE0
FE0000000FE0
FE00000007E0
FE00000007F0
FE00000007F0
FE00000007F0
FE00000007F0
FE00000007F0
FE00000007F0
FE00000007F0
FE00000007F0
7E0000000FE0
7F0000000FE0
7F0000000FE0
7F8000000FE0
3F8000001FC0
3FC000001FC0
1FC000003F80
0FE000007F80
0FF000007F00
07F80000FE00
03FC0003FC00
01FF0007F800
00FFC03FF000
003FFFFFC000
000FFFFF0000
0003FFFC0000
000006000000
ENDCHAR
STARTCHAR 00F6
ENCODING 246
SWIDTH 585 0
DWIDTH 52 0
BBX 44 61 4 -1
BITMAP
0007801E0000
000FC03F0000
001FC07F0000
001FE07F8000
001FE07F8000
001FC07F0000
000FC03F0000
0007801E0000
000000000000
000000000000
000000000000
000000000000
000000000000
000000000000
000000000000
000000000000
000000000000
000000000000
00007FE00000
0007FFFE0000
001FFFFF8000
007FFBFFC000
00FF001FF000
01FC0007F800
03F80003FC00
07F00001FE00
0FE00000FF00
1FC000007F00
1F8000003F80
3F8000003FC0
3F0000001FC0
7F0000001FC0
7F0000000FE0
7E0000000FE0
FE0000000FE0
FE00000007E0
FE00000007F0
FE00000007F0
FE00000007F0
FE00000007F0
FE00000007F0
FE00000007F0
FE00000007F0
FE00000007F0
7E0000000FE0
7F0000000FE0
7F0000000FE0
7F8000000FE0
3F8000001FC0
3FC000001FC0
1FC000003F80
0FE000007F80
0FF000007F00
07F80000FE00
03FC0003FC00
01FF0007F800
00FFC03FF000
003FFFFFC000
000FFFFF0000
0003FFFC0000
000006000000
ENDCHAR
STARTCHAR 00F7
ENCODING 247
SWIDTH 562 0
DWIDTH 50 0
BBX 37 36 7 3
BITMAP
0000780000
0000FC0000
0001FE0000
0001FE0000
0001FE0000
0001FE0000
0000FC0000
0000780000
0000000000
0000000000
0000000000
0000000000
0000000000
0000000000
0000000000
7FFFFFFFF8
FFFFFFFFF0
FFFFFFFFF0
FFFFFFFFF0
FFFFFFFFF0
0000000000
0000000000
0000000000
0000000000
0000000000
0000000000
0000000000
0000000000
0000780000
0000FC0000
0001FE0000
0001FE0000
0001FE0000
0001FE0000
0000FC0000
0000780000
ENDCHAR
STARTCHAR 00F8
ENCODING 248
SWIDTH 585 0
DWIDTH 52 0
BBX 44 43 4 -1
BITMAP
00007FE003F0
0007FFFC07E0
001FFFFF8FC0
007FFBFFDF80
00FF001FFF00
01FC0007FF00
03F80003FE00
07F00001FE00
0FE00001FF00
1FC00003FF00
1F800007FF80
3F80000FFF80
3F00001FDFC0
7F00003F9FC0
7F00007F0FE0
7E00007E0FE0
FE0000FC0FE0
FE0001F807E0
FE0003F007F0
FE0007E007F0
FE000FC007F0
FE001FC007F0
FE003F8007F0
FE003F0007F0
FE007E0007F0
FE00FC0007F0
7E01F80007E0
7F03F0000FE0
7F07E0000FE0
7F0FE0000FE0
3F9FC0001FC0
3F9F80001FC0
1FFF00003F80
1FFE00007F80
0FFC00007F00
07F80000FE00
03FC0003FC00
07FF0007F800
0FFFC03FF000
1FFFFFFFC000
3F8FFFFF0000
3F01FFFC0000
FE0006000000
ENDCHAR
STARTCHAR 00F9
ENCODING 249
SWIDTH 596 0
DWIDTH 53 0
BBX 49 62 2 -1
BITMAP
00020000000000
000F0000000000
001FC000000000
001FF000000000
001FFC00000000
000FFF00000000
0001FF80000000
00003FE0000000
00000FF8000000
000001FE000000
0000003E000000
0000000C000000
00000000000000
00000000000000
00000000000000
00000000000000
00000000000000
00000000000000
00000000000000
00080000002000
FFF80003FFE000
FFF80003FFE000
0FF800003FE000
07F800001FE000
03F800000FE000
03F800000FE000
03F800000FE000
03F000000FC000
03F000000FC000
03F000000FC000
03F000000FC000
03F000000FC000
03F000000FC000
03F000000FC000
03F000000FC000
03F000000FC000
03F000000FC000
03F000000FC000
03F000000FC000
03F000000FC000
03F000000FC000
03F000000FC000
03F000000FC000
03F000000FC000
03F000000FC000
03F000000FC000
03F000000FC000
03F800000FC000
03F800000FC000
01F800001FC000
01F800001FC000
01FC00003FE000
01FC00007FE000
00FE0000FFE000
00FF0001EFE000
007F8003CFE000
007FC00FCFE000
003FFFFF0FE000
001FFFFE0FF000
0007FFFC0FFF80
0001FFE01FFF80
00000C00000000
ENDCHAR
STARTCHAR 00FA
ENCODING 250
SWIDTH 596 0
DWIDTH 53 0
BBX 49 62 2 -1
BITMAP
00000001000000
00000007800000
0000001FC00000
0000003FC00000
000000FFC00000
000003FF800000
00000FFC000000
00003FF0000000
00007F80000000
0001FC00000000
0001F000000000
00018000000000
00000000000000
00000000000000
00000000000000
00000000000000
00000000000000
00000000000000
00000000000000
00080000002000
FFF80003FFE000
FFF80003FFE000
0FF800003FE000
07F800001FE000
03F800000FE000
03F800000FE000
03F800000FE000
03F000000FC000
03F000000FC000
03F000000FC000
03F000000FC000
03F000000FC000
03F000000FC000
03F000000FC000
03F000000FC000
03F000000FC000
03F000000FC000
03F000000FC000
03F000000FC000
03F000000FC000
03F000000FC000
03F000000FC000
03F000000FC000
03F000000FC000
03F000000FC000
03F000000FC000
03F000000FC000
03F800000FC000
03F800000FC000
01F800001FC000
01F800001FC000
01FC00003FE000
01FC00007FE000
00FE0000FFE000
00FF0001EFE000
007F8003CFE000
007FC00FCFE000
003FFFFF0FE000
001FFFFE0FF000
0007FFFC0FFF80
0001FFE01FFF80
00000C00000000
ENDCHAR
STARTCHAR 00FB
ENCODING 251
SWIDTH 596 0
DWIDTH 53 0
BBX 49 61 2 -1
BITMAP
00000180000000
000003C0000000
000007E0000000
00001FF0000000
00003FF8000000
00007FFC000000
0000FE7E000000
0001F83F000000
0003E00FC00000
0007C003C00000
00030001C00000
00000000000000
00000000000000
00000000000000
00000000000000
00000000000000
00000000000000
00000000000000
00080000002000
FFF80003FFE000
FFF80003FFE000
0FF800003FE000
07F800001FE000
03F800000FE000
03F800000FE000
03F800000FE000
03F000000FC000
03F000000FC000
03F000000FC000
03F000000FC000
03F000000FC000
03F000000FC000
03F000000FC000
03F000000FC000
03F000000FC000
03F000000FC000
03F000000FC000
03F000000FC000
03F000000FC000
03F000000FC000
03F000000FC000
03F000000FC000
03F000000FC000
03F000000FC000
03F000000FC000
03F000000FC000
03F800000FC000
03F800000FC000
01F800001FC000
01F800001FC000
01FC00003FE000
01FC00007FE000
00FE0000FFE000
00FF0001EFE000
007F8003CFE000
007FC00FCFE000
003FFFFF0FE000
001FFFFE0FF000
0007FFFC0FFF80
0001FFE01FFF80
00000C00000000
ENDCHAR
STARTCHAR 00FC
ENCODING 252
SWIDTH 596 0
DWIDTH 53 0
BBX 49 61 2 -1
BITMAP
0001C007000000
0003E00F800000
0007F01FC00000
0007F01FC00000
0007F01FC00000
0007F01FC00000
0003F00FC00000
0001C007000000
00000000000000
00000000000000
00000000000000
00000000000000
00000000000000
00000000000000
00000000000000
00000000000000
00000000000000
00000000000000
00080000002000
FFF80003FFE000
FFF80003FFE000
0FF800003FE000
07F800001FE000
03F800000FE000
03F800000FE000
03F800000FE000
03F000000FC000
03F000000FC000
03F000000FC000
03F000000FC000
03F000000FC000
03F000000FC000
03F000000FC000
03F000000FC000
03F000000FC000
03F000000FC000
03F000000FC000
03F000000FC000
03F000000FC000
03F000000FC000
03F000000FC000
03F000000FC000
03F000000FC000
03F000000FC000
03F000000FC000
03F000000FC000
03F800000FC000
03F800000FC000
01F800001FC000
01F800001FC000
01FC00003FE000
01FC00007FE000
00FE0000FFE000
00FF0001EFE000
007F8003CFE000
007FC00FCFE000
003FFFFF0FE000
001FFFFE0FF000
0007FFFC0FFF80
0001FFE01FFF80
00000C00000000
ENDCHAR
STARTCHAR 00FD
ENCODING 253
SWIDTH 517 0
DWIDTH 46 0
BBX 46 83 0 -23
BITMAP
000000007000
00000001F000
00000007F800
0000001FF800
0000003FF800
000000FFE000
000003FF0000
00000FF80000
00001FE00000
00007F000000
00003C000000
000020000000
000000000000
000000000000
000000000000
000000000000
000000000000
000000000000
000000000000
800040040004
FFFFC007FFFC
FFFFC007FFFC
7FFE0001FFF8
0FFC00007FE0
07F800003FC0
07F800003F80
03F800003F00
03F800003F00
01F800003E00
01FC00007E00
00FC00007C00
00FC00007C00
00FE0000FC00
007E0000F800
007E0000F800
003F0001F000
003F0001F000
001F0001F000
001F8003E000
001F8003E000
000FC007C000
000FC007C000
0007C007C000
0007E00F8000
0007E00F8000
0003F01F0000
0003F01F0000
0001F01F0000
0001F83E0000
0001F83E0000
0000F87C0000
0000FC7C0000
00007CFC0000
00007EF80000
00007EF80000
00003FF00000
00003FF00000
00001FF00000
00001FE00000
00001FE00000
00000FC00000
00000FC00000
00000FC00000
00000F800000
00001F800000
00001F000000
00001F000000
00003F000000
00003E000000
00007E000000
00007C000000
0000FC000000
0000F8000000
0001F8000000
0001F0000000
0003F0000000
0007E0000000
000FC0000000
001F80000000
007E00000000
1FFC00000000
1FE000000000
1F8000000000
ENDCHAR
STARTCHAR 00FE
ENCODING 254
SWIDTH 585 0
DWIDTH 52 0
BBX 48 89 0 -23
BITMAP
000400000000
7FFC00000000
7FFC00000000
0FFC00000000
03FC00000000
03FC00000000
01FC00000000
01FC00000000
01FC00000000
01FC00000000
01FC00000000
01FC00000000
01FC00000000
01FC00000000
01FC00000000
01FC00000000
01FC00000000
01FC00000000
01FC00000000
01FC00000000
01F800000000
01F800000000
01F800000000
01F800000000
01F800FF8000
01F807FFF000
01F81FFFFC00
01F83FFFFF00
01F87FFFFF80
01F8FF01FFC0
01F9F8003FE0
01FBE0001FF0
01FFC0000FF0
01FF800007F8
01FF000003F8
01FE000001FC
01FE000001FC
01FC000001FE
01FC000000FE
01F8000000FE
01F8000000FE
01F8000000FE
01F80000007E
01F80000007E
01F80000007F
01F80000007F
01F80000007E
01F80000007E
01F8000000FE
01F8000000FE
01F8000000FE
01FC000000FE
01FC000001FE
01FC000001FC
01FE000001FC
01FF000003F8
01FF000007F8
01FF800007F0
01FBE0000FF0
01FBF0003FE0
01F9FC00FFC0
01F8FFFFFF80
01F87FFFFF00
01F83FFFFC00
01F80FFFF800
01F803FFC000
01F800180000
01F800000000
01F800000000
01F800000000
01F800000000
01F800000000
01F800000000
01F800000000
01F800000000
01F800000000
01F800000000
01F800000000
01F800000000
01F800000000
01F800000000
01FC00000000
01FC00000000
01FC00000000
01FC00000000
03FC00000000
07FE00000000
FFFFF0000000
FFFFF0000000
ENDCHAR
STARTCHAR 00FF
ENCODING 255
SWIDTH 517 0
DWIDTH 46 0
BBX 46 82 0 -23
BITMAP
0003C00F0000
0007E01F8000
000FE03F8000
000FF03F8000
000FF03FC000
000FE03F8000
0007E01F8000
0003C00F0000
000000000000
000000000000
000000000000
000000000000
000000000000
000000000000
000000000000
000000000000
000000000000
000000000000
000000000000
FFFFC007FFFC
FFFFC007FFFC
7FFE0001FFF8
0FFC00007FE0
07F800003FC0
07F800003F80
03F800003F00
03F800003F00
01F800003E00
01FC00007E00
00FC00007C00
00FC00007C00
00FE0000FC00
007E0000F800
007E0000F800
003F0001F000
003F0001F000
001F0001F000
001F8003E000
001F8003E000
000FC007C000
000FC007C000
0007C007C000
0007E00F8000
0007E00F8000
0003F01F0000
0003F01F0000
0001F01F0000
0001F83E0000
0001F83E0000
0000F87C0000
0000FC7C0000
00007CFC0000
00007EF80000
00007EF80000
00003FF00000
00003FF00000
00001FF00000
00001FE00000
00001FE00000
00000FC00000
00000FC00000
00000FC00000
00000F800000
00001F800000
00001F000000
00001F000000
00003F000000
00003E000000
00007E000000
00007C000000
0000FC000000
0000F8000000
0001F8000000
0001F0000000
0003F0000000
0007E0000000
000FC0000000
001F80000000
007E00000000
1FFC00000000
1FE000000000
1F8000000000
ENDCHAR
STARTCHAR 010C
ENCODING 268
SWIDTH 652 0
DWIDTH 58 0
BBX 49 76 5 -1
BITMAP
00001000020000
00001C000E0000
00003F003E0000
00000F807C0000
000007E1F80000
000003FFF00000
000001FFE00000
000000FFC00000
0000007F800000
0000003F000000
0000001C000000
00000008000000
00000000000000
00000000000000
00000000000000
00000000000000
000001FFFE0000
00001FFFFFE000
0000FFFFFFFC00
0003FFFFFFFF00
0007FFFFFFFF00
001FFE001FFF00
003FF00001FF00
007FC000007F00
00FF0000003E00
01FE0000001E00
03FC0000000E00
07F80000000E00
07F00000000000
0FE00000000000
1FC00000000000
1FC00000000000
3FC00000000000
3F800000000000
3F800000000000
7F000000000000
7F000000000000
7F000000000000
7F000000000000
FE000000000000
FE000000000000
FE000000000000
FE000000000000
FE000000000000
FE000000000000
FE000000000000
FE000000000000
FE000000000000
FE000000000000
FE000000000000
FE000000000000
FE000000000000
FF000000000000
7F000000000000
7F000000000000
7F000000000000
7F800000000000
3F800000000000
3FC00000000000
1FC00000000000
1FE00000000000
0FE00000000000
0FF00000000000
07F80000000000
07FC0000000000
03FE0000000000
01FF8000000180
00FFC000000780
007FF000001F00
003FFE0001FF00
000FFFFFFFFE00
0007FFFFFFFC00
0001FFFFFFF000
00007FFFFF8000
000007FFFC0000
0000000C000000
ENDCHAR
STARTCHAR 010E
ENCODING 270
SWIDTH 731 0
DWIDTH 65 0
BBX 56 75 4 0
BITMAP
00002000080000
000070001C0000
00007C007C0000
00003F01F80000
00001FC7F00000
00000FEFE00000
000003FF800000
000001FF000000
000000FE000000
0000007C000000
00000038000000
00000010000000
00000000000000
00000000000000
00000000000000
00000000000000
C0000000000000
FFFFFFFF800000
FFFFFFFFF80000
07FFFFFFFF0000
03FFFFFFFFC000
01FC0000FFF000
01FC00001FF800
01FC000003FC00
01FC000001FF00
00FC0000007F80
00FC0000003F80
00FC0000001FC0
00FC0000000FE0
00FC00000007F0
00FC00000007F0
00FC00000003F8
00FC00000003F8
00FC00000001FC
00FC00000001FC
00FC00000000FE
00FC00000000FE
00FC00000000FE
00FC00000000FF
00FC000000007F
00FC000000007F
00FC000000007F
00FC000000007F
00FC000000007F
00FC000000007F
00FC000000007F
00FC000000007F
00FC000000007F
00FC000000007F
00FC000000007F
00FC000000007F
00FC000000007F
00FC00000000FF
00FC00000000FF
00FC00000000FE
00FC00000000FE
00FC00000001FE
00FC00000001FC
00FC00000003FC
00FC00000003F8
00FC00000007F8
00FC00000007F0
00FC0000000FF0
00FC0000001FE0
00FC0000003FC0
01FC0000007FC0
01FC000001FF80
01FC000003FF00
01FE00000FFC00
01FF0000FFF800
03FFFFFFFFF000
03FFFFFFFFC000
0FFFFFFFFF0000
FFFFFFFFF80000
FFFFFFFF800000
ENDCHAR
STARTCHAR 0110
ENCODING 272
SWIDTH 731 0
DWIDTH 65 0
BBX 57 59 4 0
BITMAP
C000000000000000
FFFFFFFF80000000
FFFFFFFFF8000000
07FFFFFFFF000000
03FFFFFFFFC00000
01FC0000FFF00000
01FC00001FF80000
01FC000003FE0000
00FC000001FF0000
00FC0000007F8000
00FC0000003FC000
00FC0000001FC000
00FC0000000FE000
00FC00000007F000
00FC00000007F000
00FC00000003F800
00FC00000003FC00
00FC00000001FC00
00FC00000001FC00
00FC00000000FE00
00FC00000000FE00
00FC00000000FE00
00FC000000007F00
00FC000000007F00
00FC000000007F00
00FC000000007F00
7FFFFFFC00007F00
FFFFFFFC00007F00
FFFFFFF800007F00
00FC000000007F80
00FC000000007F80
00FC000000007F00
00FC000000007F00
00FC000000007F00
00FC000000007F00
00FC000000007F00
00FC000000007F00
00FC00000000FF00
00FC00000000FE00
00FC00000000FE00
00FC00000001FE00
00FC00000001FC00
00FC00000003FC00
00FC00000003FC00
00FC00000007F800
00FC00000007F000
00FC0000000FF000
00FC0000001FE000
00FC0000003FC000
00FC0000007FC000
00FC000001FF8000
01FC000003FF0000
01FE00000FFE0000
01FF0000FFF80000
03FFFFFFFFF00000
03FFFFFFFFC00000
0FFFFFFFFF000000
FFFFFFFFF8000000
FFFFFFFF80000000
ENDCHAR
STARTCHAR 011A
ENCODING 282
SWIDTH 573 0
DWIDTH 51 0
BBX 43 75 4 0
BITMAP
001000020000
001C000E0000
001F003E0000
000F807C0000
0007E1F80000
0003FFF00000
0001FFE00000
0000FFC00000
00007F800000
00003F000000
00000C000000
000004000000
000000000000
000000000000
000000000000
000000000000
FFFFFFFFFF80
FFFFFFFFFF80
0FFFFFFFFF80
03FFFFFFFF80
03FFFFFFFF80
01FC00001F80
01FC00000780
01FC00000780
00FC00000380
00FC00000380
00FC00000380
00FC00000000
00FC00000000
00FC00000000
00FC00000000
00FC00000000
00FC00000000
00FC00000000
00FC00000000
00FC00000000
00FC00000000
00FC0000C000
00FC0000C000
00FC0001C000
00FC0001C000
00FC0003C000
00FC007FC000
00FFFFFFC000
00FFFFFFC000
00FFFFFFC000
00FC0007C000
00FC0003C000
00FC0001C000
00FC0001C000
00FC0000C000
00FC0000C000
00FC00000000
00FC00000000
00FC00000000
00FC00000000
00FC00000000
00FC00000000
00FC00000000
00FC00000000
00FC00000000
00FC00000000
00FC00000000
00FC000000E0
00FC000000E0
01FC000000E0
01FC000001E0
01FC000001C0
01FC000003C0
01FE00003FC0
03FFFFFFFFC0
03FFFFFFFFC0
0FFFFFFFFFC0
FFFFFFFFFFC0
FFFFFFFFFF80
ENDCHAR
STARTCHAR 0131
ENCODING 305
SWIDTH 281 0
DWIDTH 25 0
BBX 20 42 3 0
BITMAP
000800
FFF800
FFF800
0FF800
07F800
03F800
03F800
01F800
01F800
01F800
01F800
01F800
01F800
01F800
01F800
01F800
01F800
01F800
01F800
01F800
01F800
01F800
01F800
01F800
01F800
01F800
01F800
01F800
01F800
01F800
01F800
01F800
01F800
01F800
01F800
03F800
03F800
03F800
03FC00
07FE00
FFFFE0
FFFFF0
ENDCHAR
STARTCHAR 0132
ENCODING 306
SWIDTH 652 0
DWIDTH 58 0
BBX 51 72 4 -14
BITMAP
FFFFFC07FFFFE0
FFFFFC07FFFFE0
07FF80003FFC00
03FF00001FF800
01FE00000FF000
01FE00000FF000
01FC00000FF000
01FC000007E000
01FC000007E000
01FC000007E000
00FC000007E000
00FC000007E000
00FC000007E000
00FC000007E000
00FC000007E000
00FC000007E000
00FC000007E000
00FC000007E000
00FC000007E000
00FC000007E000
00FC000007E000
00FC000007E000
00FC000007E000
00FC000007E000
00FC000007E000
00FC000007E000
00FC000007E000
00FC000007E000
00FC000007E000
00FC000007E000
00FC000007E000
00FC000007E000
00FC000007E000
00FC000007E000
00FC000007E000
00FC000007E000
00FC000007E000
00FC000007E000
00FC000007E000
00FC000007E000
00FC000007E000
00FC000007E000
00FC000007E000
00FC000007E000
00FC000007E000
00FC000007E000
00FC000007E000
00FC000007E000
00FC000007E000
01FC000007E000
01FC000007E000
01FC000007E000
01FE000007E000
01FE000007E000
03FF000007E000
0FFF800007E000
FFFFFC000FE000
FFFFFC000FC000
000000000FC000
000000000FC000
000000000FC000
000000000F8000
000000000F8000
000000000F8000
000000001F0000
000000001F0000
000000003E0000
000000007C0000
00000000F80000
0000001FF00000
0000001FE00000
0000001F000000
ENDCHAR
STARTCHAR 0133
ENCODING 307
SWIDTH 528 0
DWIDTH 47 0
BBX 37 83 3 -23
BITMAP
01E00003C0
07F00007E0
07F8000FF0
0FF8000FF0
0FF8000FF0
07F8000FF0
07F00007E0
01E00003C0
0000000000
0000000000
0000000000
0000000000
0000000000
0000000000
0000000000
0000000000
0000000000
0000000000
0000000000
0018000030
FFF801FFF8
FFF801FFF0
0FF8001FF0
07F80007F0
03F80007F0
03F80003F0
01F80003F0
01F80003F0
01F80003F0
01F80003F0
01F80003F0
01F80003F0
01F80003F0
01F80003F0
01F80003F0
01F80003F0
01F80003F0
01F80003F0
01F80003F0
01F80003F0
01F80003F0
01F80003F0
01F80003F0
01F80003F0
01F80003F0
01F80003F0
01F80003F0
01F80003F0
01F80003F0
01F80003F0
01F80003F0
01F80003F0
01F80003F0
03F80003F0
03F80003F0
03F80003F0
03FC0003F0
07FE0003F0
FFFFE003F0
FFFFF003F0
00000003F0
00000003F0
00000003F0
00000003F0
00000003F0
00000003F0
00000003F0
00000003E0
00000003E0
00000003E0
00000003E0
00000007C0
00000007C0
00000007C0
0000000780
0000000780
0000000F00
0000000E00
0000001E00
0000003C00
000000F800
00000FE000
00000F8000
ENDCHAR
STARTCHAR 0143
ENCODING 323
SWIDTH 742 0
DWIDTH 66 0
BBX 59 76 4 -1
BITMAP
0000000000800000
0000000001E00000
0000000007F00000
000000001FF00000
000000007FF00000
00000001FFC00000
00000007FE000000
0000001FF0000000
0000007F80000000
000000FE00000000
0000007000000000
0000000000000000
0000000000000000
0000000000000000
0000000000000000
0000000000000000
F001000003C00060
FFFF000003FFFFE0
FFFF800003FFFFE0
07FF8000001FFC00
03FFC000000FF800
01FFC0000007F000
01FFE0000007F000
01FFF0000007F000
01FFF0000007F000
00FFF8000003F000
00FFF8000003F000
00FFFC000003E000
00FBFC000003E000
00FBFE000003E000
00F9FF000003E000
00F8FF000003E000
00F8FF800003E000
00F87F800003E000
00F83FC00003E000
00F83FE00003E000
00F81FE00003E000
00F80FF00003E000
00F80FF80003E000
00F807F80003E000
00F803FC0003E000
00F803FE0003E000
00F801FE0003E000
00F800FF0003E000
00F800FF0003E000
00F8007F8003E000
00F8003FC003E000
00F8003FC003E000
00F8001FE003E000
00F8000FF003E000
00F8000FF003E000
00F80007F803E000
00F80003FC03E000
00F80003FE03E000
00F80001FE03E000
00F80000FF03E000
00F80000FF83E000
00F800007FC3E000
00F800003FC3E000
00F800003FE3E000
00F800001FF3E000
00F800000FF3E000
00F8000007FBE000
00F8000007FFE000
00F8000003FFE000
00F8000001FFE000
00F8000001FFE000
01F8000000FFE000
01FC0000007FF000
01FC0000007FF000
01FC0000003FF000
03FE0000001FF000
0FFF0000001FF000
FFFFF800000FF000
FFFFF8000007F000
000000000007F000
ENDCHAR
STARTCHAR 0152
ENCODING 338
SWIDTH 967 0
DWIDTH 86 0
BBX 77 60 5 -1
BITMAP
000001FFFFFFFFFFFFE0
00003FFFFFFFFFFFFFE0
0000FFFFFFFFFFFFFFE0
0003FFFFFFFFFFFFFFE0
000FFFFFFFFFFFFFFFE0
001FFF001FFF800007E0
007FF00003FF800001E0
00FFC00001FF800001E0
01FF000000FF800000C0
03FC0000007F800000C0
03F80000007F800000C0
07F00000007F80000000
0FF00000003F80000000
0FE00000003F80000000
1FC00000003F80000000
1FC00000003F80000000
3F800000003F80000000
3F800000003F80000000
3F800000003F80000000
7F000000003F80000000
7F000000003F80003000
7F000000003F80007000
7F000000003F80007000
FE000000003F80007000
FE000000003F8000F000
FE000000003F8003F000
FE000000003FFFFFE000
FE000000003FFFFFE000
FE000000003FFFFFE000
FE000000003F801FE000
FE000000003F8000F000
FE000000003F8000F000
FE000000003F80007000
FE000000003F80007000
FE000000003F80007000
FE000000003F80003000
FF000000003F80000000
7F000000003F80000000
7F000000003F80000000
7F000000003F80000000
7F800000003F80000000
3F800000003F80000000
3F800000003F80000000
3FC00000003F80000000
1FC00000003F80000000
1FE00000003F80000000
0FE00000003F80000000
0FF00000003F80000038
07F80000003F80000038
03FC0000003F80000038
01FE0000003F80000070
00FF0000003F80000070
007FC000003F800000F0
003FF000007F800001F0
001FFE0003FFC0000FF0
0007FFFFFFFFFFFFFFF0
0001FFFFFFFFFFFFFFF0
00007FFFFFFFFFFFFFE0
00000FFFFFFFFFFFFFE0
00000007E00000000000
ENDCHAR
STARTCHAR 0153
ENCODING 339
SWIDTH 933 0
DWIDTH 83 0
BBX 76 43 4 -1
BITMAP
00007FE0000007FC0000
0007FFFE00007FFFC000
001FFFFF8001FFFFF000
007FFBFFE003FFBFF800
00FF001FF00FF001FC00
01FC0007F81FC000FE00
03F80003FC3F80003F00
07F00001FE7F00003F80
0FE00000FF7E00001FC0
1FC000007FFC00000FC0
1F8000003FFC00000FE0
3F8000003FF800000FE0
3F0000001FF800000FE0
7F0000001FF800000FF0
7F0000000FF000000FF0
7E0000000FFFFFFFFFF0
FE0000000FFFFFFFFFF0
FE00000007FFFFFFFFF0
FE00000007F000000000
FE00000007F000000000
FE00000007F000000000
FE00000007F000000000
FE00000007F000000000
FE00000007F000000000
FE00000007F000000000
FE00000007F000000000
7E0000000FF000000000
7F0000000FF800000000
7F0000000FF800000000
7F8000000FF800000000
3F8000001FFC00000000
3FC000001FFE00000000
1FC000003FFF00000000
0FE000007F7F80000000
0FF000007E7FC0000000
07F80000FC3FF00001C0
03FC0003F81FFC000FC0
01FF0007F00FFFFFFF80
00FFC03FE007FFFFFF00
003FFFFFC001FFFFFC00
000FFFFF00007FFFF000
0003FFF800001FFF8000
00000600000000600000
ENDCHAR
STARTCHAR 0160
ENCODING 352
SWIDTH 551 0
DWIDTH 49 0
BBX 40 76 5 -1
BITMAP
0020000C00
0078003C00
007E007C00
003F01F800
001FC7F000
0007FFE000
0003FFC000
0001FF8000
0000FE0000
00007C0000
0000380000
0000100000
0000000000
0000000000
0000000000
0000000000
0003FFE000
003FFFFF00
00FFFFFFE0
03FFFFFFF0
07FE007FF0
0FF0000FF0
1FE00007F0
1F800003F0
3F800001E0
3F000000E0
7F000000E0
7E000000E0
7E00000000
7E00000000
7E00000000
7E00000000
7F00000000
7F00000000
7F80000000
7F80000000
3FE0000000
3FF0000000
1FFC000000
1FFF800000
0FFFF00000
07FFFE0000
01FFFFC000
00FFFFF800
003FFFFE00
000FFFFF80
0001FFFFC0
00007FFFE0
00000FFFF0
000001FFF8
0000003FFC
0000000FFC
00000007FE
00000003FE
00000001FE
00000000FF
00000000FF
000000007F
000000007F
000000007F
000000007F
700000007F
700000007F
700000007E
78000000FE
78000000FE
7C000000FC
FC000001FC
FE000003F8
FF000007F0
FFC0001FE0
FFFC00FFC0
3FFFFFFF00
07FFFFFC00
007FFFE000
0000700000
ENDCHAR
STARTCHAR 0161
ENCODING 353
SWIDTH 438 0
DWIDTH 39 0
BBX 32 61 4 -1
BITMAP
02000040
038001C0
03E007C0
01F00F80
00FC3F00
007FFE00
003FFC00
001FF800
000FF000
0007E000
00018000
00010000
00000000
00000000
00000000
00000000
00000000
00000000
001FF800
01FFFF00
03FFFFE0
0FFEFFF8
1FC007F8
3F8001F8
3F0000F8
7F000070
7E000070
7E000030
7E000030
7E000000
7E000000
7F000000
7F800000
7FC00000
3FF00000
3FFF0000
1FFFF000
0FFFFF00
03FFFFC0
00FFFFE0
000FFFF8
0000FFFC
00000FFC
000003FE
000001FE
000000FE
0000007F
0000007F
3000007F
7000007E
7000007E
7800007E
780000FE
7C0000FC
7E0001F8
7F0007F8
FFC01FF0
7FFFFFC0
1FFFFF80
01FFFC00
00030000
ENDCHAR
STARTCHAR 0178
ENCODING 376
SWIDTH 607 0
DWIDTH 54 0
BBX 57 75 -1 0
BITMAP
00000E0038000000
00001F007C000000
00003F80FE000000
00003F80FE000000
00003F80FE000000
00003F80FE000000
00001F007C000000
00000E0038000000
0000000000000000
0000000000000000
0000000000000000
0000000000000000
0000000000000000
0000000000000000
0000000000000000
0000000000000000
F8007E003FFFFF80
FFFFFE003FFFFF80
3FFFF8000FFFFE00
03FF800000FFF000
01FF0000007FC000
00FF0000007F8000
007F8000007F0000
007F8000007E0000
003FC00000FC0000
001FC00000FC0000
001FE00001F80000
000FE00001F00000
0007F00003F00000
0007F00003E00000
0003F80007C00000
0001F80007C00000
0001FC000F800000
0000FE000F000000
0000FE001F000000
00007F001E000000
00003F003E000000
00003F803C000000
00001F8078000000
00001FC0F8000000
00000FC0F0000000
000007E1F0000000
000007F1E0000000
000003F3C0000000
000003FBC0000000
000001FF80000000
000001FF80000000
000000FF00000000
000000FF00000000
0000007F00000000
0000007E00000000
0000007E00000000
0000007E00000000
0000007E00000000
0000007E00000000
0000007E00000000
0000007E00000000
0000007E00000000
0000007E00000000
0000007E00000000
0000007E00000000
0000007E00000000
0000007E00000000
0000007E00000000
0000007E00000000
0000007F00000000
0000007F00000000
0000007F00000000
0000007F00000000
000000FF00000000
000000FF00000000
000001FF80000000
000003FFE0000000
00007FFFFE000000
00007FFFFE000000
ENDCHAR
STARTCHAR 017D
ENCODING 381
SWIDTH 618 0
DWIDTH 55 0
BBX 48 75 3 0
BITMAP
00030000C000
00038001C000
0003E007C000
0001F81F8000
0000FC3F0000
00007FFE0000
00003FFC0000
00001FF80000
00000FF00000
000007E00000
000003800000
000001000000
000000000000
000000000000
000000000000
000000000000
0FFFFFFFFFFE
1FFFFFFFFFFE
1FFFFFFFFFFC
1FFFFFFFFFFC
1FFFFFFFFFF8
1F8000003FF0
1E0000003FE0
3C0000007FE0
380000007FC0
38000000FF80
30000000FF00
00000001FE00
00000001FE00
00000003FC00
00000007F800
00000007F800
0000000FF000
0000000FE000
0000001FC000
0000003FC000
0000003F8000
0000007F0000
0000007E0000
000000FE0000
000001FC0000
000001F80000
000003F80000
000007F00000
000007E00000
00000FE00000
00001FC00000
00001F800000
00003F800000
00007F000000
00007E000000
0000FE000000
0001FC000000
0001F8000000
0003F8000000
0007F0000000
000FE0000000
000FE0000000
001FC0000000
003FC0000000
003F80000000
007F00000000
00FF00000000
01FE00000007
01FE0000000E
03FC0000000E
07F80000000E
0FF80000001E
1FF00000007E
1FF0000003FE
3FFFFFFFFFFE
7FFFFFFFFFFE
FFFFFFFFFFFC
FFFFFFFFFFFC
FFFFFFFFFFFC
ENDCHAR
STARTCHAR 017E
ENCODING 382
SWIDTH 483 0
DWIDTH 43 0
BBX 37 60 3 0
BITMAP
0040001000
00E0007800
00F800F800
007E03F000
003F8FE000
001FDFC000
000FFF0000
0003FE0000
0001FC0000
0000F80000
0000700000
0000200000
0000000000
0000000000
0000000000
0000000000
0000000000
0000000000
0000000000
00000000E0
3FFFFFFFF0
3FFFFFFFE0
3FFFFFFFE0
3F8000FFC0
3C0001FF80
380001FF00
380003FE00
300003FE00
700007FC00
300007F800
00000FF000
00000FF000
00001FE000
00003FC000
00003FC000
00007F8000
00007F0000
0000FF0000
0001FE0000
0001FC0000
0003FC0000
0007F80000
0007F00000
000FF00000
001FE00000
001FC00000
003FC00000
007F800000
00FF000000
00FF000038
01FE000038
03FE000030
07FC000070
07F8000070
0FF80000F0
1FF00003F0
3FFFFFFFF0
7FFFFFFFF0
FFFFFFFFE0
FFFFFFFFE0
ENDCHAR
STARTCHAR 0192
ENCODING 402
SWIDTH 652 0
DWIDTH 58 0
BBX 53 88 2 -23
BITMAP
0000000000FF00
0000000007FFE0
000000000FFFF8
000000003FFFF8
000000007E07F8
00000000F801F0
00000001F001F0
00000001F000F0
00000003E000E0
00000007E000E0
00000007C00000
0000000FC00000
0000000FC00000
0000000F800000
0000001F800000
0000001F800000
0000003F800000
0000003F800000
0000003F000000
0000003F000000
0000007F000000
0000007F000000
0000007E000000
0000007E000000
0000007E000000
00007FFFFFE000
00007FFFFFC000
00007FFFFFC000
000000FC000000
000001FC000000
000001FC000000
000001F8000000
000001F8000000
000001F8000000
000003F8000000
000003F8000000
000003F0000000
000003F0000000
000003F0000000
000007F0000000
000007F0000000
000007E0000000
000007E0000000
000007E0000000
00000FE0000000
00000FC0000000
00000FC0000000
00000FC0000000
00000FC0000000
00001FC0000000
00001F80000000
00001F80000000
00001F80000000
00001F80000000
00003F00000000
00003F00000000
00003F00000000
00003F00000000
00003F00000000
00007E00000000
00007E00000000
00007E00000000
00007E00000000
00007E00000000
0000FC00000000
0000FC00000000
0000FC00000000
0000FC00000000
0000F800000000
0001F800000000
0001F800000000
0001F000000000
0003F000000000
0003E000000000
0003E000000000
0007E000000000
0007C000000000
000F8000000000
000F8000000000
001F0000000000
003F0000000000
007E0000000000
30FC0000000000
3FF80000000000
7FF00000000000
7FE00000000000
7F800000000000
FE000000000000
ENDCHAR
STARTCHAR 0237
ENCODING 567
SWIDTH 247 0
DWIDTH 22 0
BBX 16 64 -1 -23
BITMAP
0003
1FFF
1FFF
01FF
00FF
007F
007F
007F
003F
003F
003F
003F
003F
003F
003F
003F
003F
003F
003F
003F
003F
003F
003F
003F
003F
003F
003F
003F
003F
003F
003F
003F
003F
003F
003F
003F
003F
003F
003F
003F
003F
003F
003F
003F
003F
003F
003E
007E
007E
007E
007E
007C
007C
007C
0078
0078
00F0
00F0
01E0
03C0
07C0
0F80
FE00
F800
ENDCHAR
STARTCHAR 0259
ENCODING 601
SWIDTH 528 0
DWIDTH 47 0
BBX 40 43 3 -1
BITMAP
0007FE0000
003FFFE000
01FFFFF800
07FFFFFE00
0FFFFFFF00
1FC00FFF80
1C0000FFC0
1000003FE0
0000001FF0
0000000FF8
00000007F8
00000003FC
00000001FC
00000001FC
00000000FE
00000000FE
00000000FE
00000000FE
000000007E
000000007F
000000007F
000000007F
000000007F
000000007F
7FFFFFFFFE
7FFFFFFFFE
FFFFFFFFFE
7F800000FE
7F000000FC
7F000000FC
7F000001FC
3F000001F8
3F800003F8
1F800003F0
1FC00007E0
0FE0000FE0
07F0001FC0
03F8007F80
01FE01FE00
00FFFFFC00
003FFFF000
000FFF8000
0000300000
ENDCHAR
STARTCHAR 02C6
ENCODING 710
SWIDTH 236 0
DWIDTH 21 0
BBX 21 11 0 49
BITMAP
006000
00F000
01FC00
03FE00
07FF00
0FFF80
1F9FC0
3F07E0
7C01F0
F00078
E00030
ENDCHAR
STARTCHAR 02C7
ENCODING 711
SWIDTH 236 0
DWIDTH 21 0
BBX 21 11 0 48
BITMAP
E00030
F00078
7C01F0
3F07E0
1F8FC0
0FFF80
07FF00
03FE00
01FC00
00F000
006000
ENDCHAR
STARTCHAR 02DA
ENCODING 730
SWIDTH 168 0
DWIDTH 15 0
BBX 15 13 0 48
BITMAP
0FC0
3FF0
7878
703C
F01C
E01C
E01E
E01E
F01C
703C
7C78
1FF0
0FE0
ENDCHAR
STARTCHAR 02DC
ENCODING 732
SWIDTH 315 0
DWIDTH 28 0
BBX 28 8 0 51
BITMAP
00000030
07FE00E0
1FFFFFE0
3FFFFFE0
7FFFFFC0
7FFFFF80
E00FFE00
C0000000
ENDCHAR
STARTCHAR 03BC
ENCODING 956
SWIDTH 607 0
DWIDTH 54 0
BBX 50 53 2 -11
BITMAP
00080000002000
FFFC0003FFF000
FFFC0003FFF000
0FF800003FE000
03F800000FE000
03F800000FE000
01F8000007E000
01F8000007E000
01F8000007E000
01F8000007E000
01F8000007E000
01F8000007E000
01F8000007E000
01F8000007E000
01F8000007E000
01F8000007E000
01F8000007E000
01F8000007E000
01F8000007E000
01F8000007E000
01F8000007E000
01F8000007E000
01F8000007E000
01F8000007E000
01F8000007E000
01F8000007E000
01F8000007E000
01F8000007E000
01F8000007E000
01FC000007E000
01FC00000FE000
01FC00000FE000
01FC00001FE000
01FE00003FE000
01FF00007FE000
03FF0000F7E000
03FF8001E7F000
03FFE007C7F000
03EFFFFF87F000
03EFFFFF0FF800
07E3FFFE0FFFC0
07E0FFF00FFFC0
07E00600000000
07E00000000000
0FC00000000000
0FC00000000000
0FC00000000000
1FC00000000000
1FC00000000000
3FC00000000000
3FC00000000000
1F800000000000
0F800000000000
ENDCHAR
STARTCHAR 2013
ENCODING 8211
SWIDTH 551 0
DWIDTH 49 0
BBX 37 5 6 19
BITMAP
7FFFFFFFF8
7FFFFFFFF8
FFFFFFFFF0
FFFFFFFFF0
FFFFFFFFF0
ENDCHAR
STARTCHAR 2014
ENCODING 8212
SWIDTH 787 0
DWIDTH 70 0
BBX 58 5 6 19
BITMAP
7FFFFFFFFFFFFFC0
7FFFFFFFFFFFFFC0
FFFFFFFFFFFFFFC0
FFFFFFFFFFFFFF80
FFFFFFFFFFFFFF80
ENDCHAR
STARTCHAR 2018
ENCODING 8216
SWIDTH 191 0
DWIDTH 17 0
BBX 8 16 5 49
BITMAP
03
07
0F
1E
1E
3E
7E
7C
FC
FC
FE
FE
FE
FE
FE
78
ENDCHAR
STARTCHAR 2019
ENCODING 8217
SWIDTH 180 0
DWIDTH 16 0
BBX 9 16 5 49
BITMAP
1F00
3F00
7F00
7F80
7F80
3F00
3F00
3F00
3E00
3E00
3C00
7C00
7800
7000
E000
C000
ENDCHAR
STARTCHAR 201A
ENCODING 8218
SWIDTH 213 0
DWIDTH 19 0
BBX 8 16 5 -9
BITMAP
1E
7F
7F
7F
7F
7F
3F
3E
7E
7C
7C
78
70
F0
E0
80
ENDCHAR
STARTCHAR 201C
ENCODING 8220
SWIDTH 337 0
DWIDTH 30 0
BBX 22 16 5 49
BITMAP
03000C
07001C
0F0038
1E0078
1E00F0
3E00F0
7E01F0
7C03F0
FC03F0
FC03F0
FE07F0
FE07F8
FE07F8
FE07F8
FE03F0
7803E0
ENDCHAR
STARTCHAR 201D
ENCODING 8221
SWIDTH 326 0
DWIDTH 29 0
BBX 22 16 5 49
BITMAP
1F0078
3F01FC
7F01FC
7F81FC
7F81FC
3F01FC
3F01FC
3F00F8
3E01F8
3E01F0
3C01F0
7C01E0
7801C0
7003C0
E00380
C00200
ENDCHAR
STARTCHAR 201E
ENCODING 8222
SWIDTH 371 0
DWIDTH 33 0
BBX 22 16 5 -9
BITMAP
1E0078
7F00FC
7F01FC
7F01FC
7F01FC
7F01FC
3F00FC
3E00FC
7E00F8
7C00F8
7C01F0
7801F0
7001E0
F001C0
E00380
800300
ENDCHAR
STARTCHAR 2020
ENCODING 8224
SWIDTH 472 0
DWIDTH 42 0
BBX 35 52 4 9
BITMAP
0007F80000
0007F80000
0007F80000
0007F80000
0003F80000
0003F00000
0003F00000
0003F00000
0003F00000
0003F00000
0003F00000
0003F00000
0003F00000
0003F00000
0003F00000
0003F00000
0003F00000
E003F001E0
FFFFFFFFE0
FFFFFFFFE0
FFFFFFFFE0
FFFFFFFFE0
FFFFFFFFE0
F003F003E0
0003F00000
0003F00000
0003F00000
0003F00000
0003F00000
0003F00000
0003F00000
0003F00000
0003F00000
0003F00000
0003F00000
0003F00000
0003F00000
0003F00000
0003F00000
0003F00000
0003F00000
0003F00000
0003F00000
0003F00000
0003F00000
0003F80000
0003F80000
0007F80000
0007F80000
0007F80000
0007F80000
0007F80000
ENDCHAR
STARTCHAR 2021
ENCODING 8225
SWIDTH 506 0
DWIDTH 45 0
BBX 35 68 5 -7
BITMAP
0003FC0000
0003FC0000
0003F80000
0003F80000
0003F80000
0003F80000
0003F80000
0003F80000
0003F80000
0003F80000
0003F80000
0001F80000
0001F80000
0001F80000
0001F80000
0001F80000
0001F80000
F001F800E0
FFFFFFFFE0
FFFFFFFFE0
FFFFFFFFE0
FFFFFFFFE0
FFFFFFFFE0
E001F800E0
0001F80000
0001F80000
0001F80000
0001F80000
0001F80000
0001F80000
0001F80000
0001F80000
0001F80000
0001F80000
0001F80000
0001F80000
0001F80000
0001F80000
0001F80000
0001F80000
0001F80000
0001F80000
0001F80000
F001F800E0
FFFFFFFFE0
FFFFFFFFE0
FFFFFFFFE0
FFFFFFFFE0
FFFFFFFFE0
F801F801E0
0001F80000
0001F80000
0001F80000
0001F80000
0003F80000
0003F80000
0003F80000
0003F80000
0003F80000
0003F80000
0003F80000
0003F80000
0003F80000
0003F80000
0003F80000
0003F80000
0003FC0000
0003FC0000
ENDCHAR
STARTCHAR 2022
ENCODING 8226
SWIDTH 326 0
DWIDTH 29 0
BBX 13 12 8 16
BITMAP
0F80
1FC0
3FE0
7FF0
7FF0
FFF8
FFF8
7FF0
7FF0
7FE0
3FC0
0F80
ENDCHAR
STARTCHAR 2026
ENCODING 8230
SWIDTH 596 0
DWIDTH 53 0
BBX 42 9 6 -1
BITMAP
100008000400
7C003E001F00
FE007F003F80
FF00FF807F80
FF00FF807FC0
FF00FF807F80
FE007F003F80
7C003E001F00
100008000400
ENDCHAR
STARTCHAR 2030
ENCODING 8240
SWIDTH 1136 0
DWIDTH 101 0
BBX 94 61 4 -1
BITMAP
0000000000007F0000000000
003F80000000FE0000000000
01FFE0000000FC0000000000
03FFF0000001F80000000000
07FFF8000001F80000000000
0F807C000003F00000000000
1F003E000007E00000000000
1E001F000007C00000000000
3C000F00000F800000000000
3C000F80001F000000000000
7C000F80001F000000000000
78000780003E000000000000
780007C0007C000000000000
F80007C000FC000000000000
F80007C000F8000000000000
F80003C001F0000000000000
F80003C003E0000000000000
F80003C003E0000000000000
F80003C007C0000000000000
F80007C00F80000000000000
F80007C01F00000000000000
F80007C01F00000000000000
780007803E00000000000000
780007807C00000000000000
7C000F80F800000000000000
3C000F00F800000000000000
3E001F01F000000000000000
1F003E03E000000000000000
1F807E03E003F8000007F000
0FC0FC07C00FFE00001FFC00
07FFF80F803FFF80007FFF00
03FFE01F007FBFC000FF7F80
00FFC01F00F807E001F80FC0
0000003E01F003E001E003E0
0000007C01E001F003E003E0
000000F803E000F803C001F0
000000F803C000F807C000F0
000001F003C00078078000F8
000003E007C0007C078000F8
000007E00780007C0F800078
000007C00780003C0F000078
00000F800780003C0F000078
00001F000780003C0F000078
00001F000F80003C0F00007C
00003E000F80003C0F00007C
00007C000780003C0F00007C
0000FC000780003C0F000078
0001F8000780003C0F000078
0001F0000780007C0F800078
0003F0000780007C0F800078
0007E00007C00078078000F8
000FC00003C00078078000F0
001FC00003E000F807C001F0
001F800003E000F003C001E0
003F000001F001F003E003E0
007F000001F803E001F007C0
00FE000000FE0FC000FC1F80
01FC0000007FFF8000FFFF00
00000000003FFF00003FFE00
00000000000FFC00001FF800
000000000000C00000008000
ENDCHAR
STARTCHAR 2039
ENCODING 8249
SWIDTH 303 0
DWIDTH 27 0
BBX 18 32 4 5
BITMAP
000FC0
001FC0
001F80
003F00
007E00
00FC00
00F800
01F000
03E000
07E000
07C000
0F8000
1F0000
3F0000
7E0000
7C0000
FC0000
7E0000
3E0000
1F0000
0F8000
07C000
07C000
03E000
01F000
00F800
00FC00
007E00
003F00
001F80
001FC0
000FC0
ENDCHAR
STARTCHAR 203A
ENCODING 8250
SWIDTH 303 0
DWIDTH 27 0
BBX 18 32 5 5
BITMAP
FC0000
FE0000
7E0000
3F0000
1F8000
0F8000
07C000
03E000
03F000
01F000
00F800
007C00
007E00
003F00
001F00
000F80
000FC0
001F80
003F00
003E00
007C00
00F800
01F800
03F000
03E000
07C000
0F8000
1F8000
3F0000
7E0000
FE0000
FC0000
ENDCHAR
STARTCHAR 2044
ENCODING 8260
SWIDTH 551 0
DWIDTH 49 0
BBX 49 58 0 2
BITMAP
00000000003F80
00000000007F00
00000000007E00
0000000000FC00
0000000000FC00
0000000001F800
0000000003F000
0000000003E000
0000000007C000
000000000F8000
000000000F8000
000000001F0000
000000003E0000
000000003E0000
000000007C0000
00000000F80000
00000001F00000
00000001F00000
00000003E00000
00000007C00000
0000000F800000
0000000F800000
0000001F000000
0000003E000000
0000003C000000
0000007C000000
000000F8000000
000001F0000000
000001F0000000
000003E0000000
000007C0000000
00000F80000000
00000F80000000
00001F00000000
00003E00000000
00007C00000000
00007C00000000
0000F800000000
0001F000000000
0003F000000000
0003E000000000
0007C000000000
000F8000000000
000F8000000000
001F0000000000
003E0000000000
007E0000000000
00FC0000000000
00F80000000000
01F80000000000
03F00000000000
07E00000000000
07E00000000000
0FC00000000000
1F800000000000
3F800000000000
7F000000000000
FE000000000000
ENDCHAR
STARTCHAR 2070
ENCODING 8304
SWIDTH 382 0
DWIDTH 34 0
BBX 26 32 4 27
BITMAP
003F8000
01FFE000
03FFF000
07FFFC00
0F807C00
1F003E00
1E001F00
3E000F00
3C000F80
7C000780
78000780
780007C0
780007C0
780003C0
F80003C0
F80003C0
F80003C0
F80003C0
F80003C0
780003C0
780007C0
780007C0
7C000780
7C000F80
3C000F80
3E001F00
1F001E00
1F803E00
0FE0FC00
07FFF800
03FFF000
00FFC000
ENDCHAR
STARTCHAR 2074
ENCODING 8308
SWIDTH 326 0
DWIDTH 29 0
BBX 22 33 3 27
BITMAP
000F80
001F80
003F80
003F80
007780
007780
00E780
01E780
01C780
03C780
038780
070780
0F0780
0E0780
1E0780
1C0780
380780
780780
700780
FFFFF0
FFFFF0
FFFFF0
000780
000780
000780
000780
000780
000780
000780
000780
000FC0
001FE0
00FFFC
ENDCHAR
STARTCHAR 2080
ENCODING 8320
SWIDTH 405 0
DWIDTH 36 0
BBX 26 32 5 -1
BITMAP
00FFC000
03FFE000
07FFF800
0FC1FC00
1F007C00
1E003E00
3E001F00
3C000F00
7C000F80
78000F80
78000780
F8000780
F80007C0
F00007C0
F00007C0
F00007C0
F00007C0
F00007C0
F00007C0
F8000780
F8000780
78000780
78000F80
7C000F00
3C001F00
3E001E00
1F003E00
1F807C00
0FFFF800
07FFF000
01FFE000
007F0000
ENDCHAR
STARTCHAR 2081
ENCODING 8321
SWIDTH 247 0
DWIDTH 22 0
BBX 15 33 4 0
BITMAP
0080
01C0
03C0
0FC0
1FC0
7FC0
E3C0
03C0
03C0
03C0
03C0
03C0
03C0
03C0
03C0
03C0
03C0
03C0
03C0
03C0
03C0
03C0
03C0
03C0
03C0
03C0
03C0
03C0
03C0
03C0
07E0
0FF0
7FFE
ENDCHAR
STARTCHAR 2082
ENCODING 8322
SWIDTH 337 0
DWIDTH 30 0
BBX 21 32 4 0
BITMAP
01FE00
07FF80
1FFFE0
3FDFE0
3C01F0
7800F0
7800F0
7000F0
7000F0
3000F0
0000F0
0000F0
0001E0
0003E0
0003C0
0007C0
000F80
000F00
001E00
003E00
007C00
00F800
01F000
03E000
03C008
078008
0F0018
1F0038
3E01F8
7FFFF8
FFFFF0
FFFFF0
ENDCHAR
STARTCHAR 2083
ENCODING 8323
SWIDTH 348 0
DWIDTH 31 0
BBX 20 33 5 -1
BITMAP
03F000
0FFE00
1FFF00
3C0F80
7807C0
7003C0
6001E0
6001E0
6001E0
0001E0
0001C0
0003C0
000780
000F00
007E00
007F80
0007C0
0003E0
0001F0
0000F0
0000F0
000070
000070
C00070
C000F0
C000F0
E000E0
F001E0
F807C0
7FFF80
3FFF00
1FFE00
03F800
ENDCHAR
STARTCHAR 2084
ENCODING 8324
SWIDTH 315 0
DWIDTH 28 0
BBX 22 33 2 0
BITMAP
0000C0
000FC0
001FC0
001FC0
003BC0
007BC0
0073C0
00F3C0
00E3C0
01E3C0
03C3C0
0383C0
0783C0
0703C0
0F03C0
1E03C0
1C03C0
3C03C0
7803C0
7FFFF8
FFFFF8
7FFFF0
0003C0
0003C0
0003C0
0003C0
0003C0
0003C0
0007C0
0007C0
0007C0
000FE0
007FFC
ENDCHAR
STARTCHAR 20AC
ENCODING 8364
SWIDTH 630 0
DWIDTH 56 0
BBX 48 60 3 -1
BITMAP
0000001FFC00
000000FFFFE0
000003FFFFFC
00000FFFFFFE
00003FFFFFFE
00007FE007FE
0000FF0000FE
0001FE00007C
0003F800003C
0007F000003C
0007F000001C
000FE000001C
001FC0000000
001FC0000000
003F80000000
003F80000000
003F00000000
007F00000000
007F00000000
007E00000000
00FE00000000
00FE00000000
00FE00000000
7FFFFFFFFE00
7FFFFFFFFE00
7FFFFFFFFE00
81FC00000000
01FC00000000
01FC00000000
01FC00000000
01FC00000000
01FC00000400
7FFFFFFFF800
7FFFFFFFF800
FFFFFFFFF800
00FE00000000
00FE00000000
00FE00000000
00FE00000000
00FE00000000
007F00000000
007F00000000
007F00000000
003F80000000
003F80000000
001FC0000000
001FC0000000
000FE0000000
000FF0000000
0007F8000000
0003FC000001
0003FE000007
0001FF80001F
0000FFE000FE
00003FFFFFFE
00001FFFFFF8
00000FFFFFF0
000003FFFFC0
0000007FFE00
000000018000
ENDCHAR
STARTCHAR 2122
ENCODING 8482
SWIDTH 787 0
DWIDTH 70 0
BBX 55 26 8 33
BITMAP
80002200000000
FFFFE1FE0007FC
FFFFE07E0007E0
F1E1E07F000FE0
81E0607F000FC0
81E06077000FC0
01E00077801DC0
01E00077801DC0
01E000738019E0
01E00073C039E0
01E00073C039E0
01E00071C031E0
01E00071E071E0
01E00071E060E0
01E00070E0E0E0
01E00070F0E0E0
01E00060F1C0E0
01E0006071C0E0
01E000607980E0
01E000E07B80E0
01E000E03F80E0
01E000E03F00F0
01E000E03F00F0
03F001F01F01F0
0FFE07FC1E07FE
0FFE07FC0007FE
ENDCHAR
STARTCHAR 2212
ENCODING 8722
SWIDTH 562 0
DWIDTH 50 0
BBX 37 5 7 19
BITMAP
7FFFFFFFF8
FFFFFFFFF0
FFFFFFFFF0
FFFFFFFFF0
FFFFFFFFF0
ENDCHAR
STARTCHAR 2215
ENCODING 8725
SWIDTH 517 0
DWIDTH 46 0
BBX 49 58 -1 2
BITMAP
00000000007F80
00000000007F00
0000000000FE00
0000000000FC00
0000000001F800
0000000003F000
0000000003E000
0000000007E000
0000000007C000
000000000F8000
000000001F0000
000000003F0000
000000003E0000
000000007C0000
00000000F80000
00000000F80000
00000001F00000
00000003E00000
00000007C00000
00000007C00000
0000000F800000
0000001F000000
0000001E000000
0000003E000000
0000007C000000
000000F8000000
000000F8000000
000001F0000000
000003E0000000
000007C0000000
000007C0000000
00000F80000000
00001F00000000
00003E00000000
00003E00000000
00007C00000000
0000F800000000
0000F800000000
0001F000000000
0003E000000000
0007C000000000
0007C000000000
000F8000000000
001F0000000000
003F0000000000
003E0000000000
007C0000000000
00FC0000000000
01F80000000000
01F00000000000
03F00000000000
07E00000000000
0FC00000000000
1FC00000000000
1F800000000000
3F000000000000
7F000000000000
FE000000000000
ENDCHAR
STARTCHAR 2219
ENCODING 8729
SWIDTH 225 0
DWIDTH 20 0
BBX 8 8 6 18
BITMAP
3C
7E
FF
FF
FF
FF
7F
7E
ENDCHAR
STARTCHAR FB01
ENCODING 64257
SWIDTH 607 0
DWIDTH 54 0
BBX 49 65 3 0
BITMAP
00000FFC000000
00007FFFC00000
0001FFFFF00000
0007FFFFFC0000
000FE00FFC0000
001F8001FC0000
001F00007C0000
003E00003C0000
003C00003C0000
007C00001C0000
007C0000180000
00F80000000000
00F80000000000
00F80000000000
00F80000000000
01F80000000000
01F80000000000
01F80000000000
01F80000000000
01F80000000000
01F80000000000
01F80000000000
01F80000000000
01F80000000000
01F800007FE000
1FFFFFFFFFE000
FFFFFFFFFFE000
FFFFFFFFFFE000
01F800001FE000
01F800000FE000
01F800000FE000
01F800000FE000
01F800000FE000
01F800000FC000
01F800000FC000
01F800000FC000
01F8000007C000
01F8000007C000
01F8000007C000
01F8000007C000
01F8000007C000
01F8000007C000
01F8000007C000
01F8000007C000
01F8000007C000
01F8000007C000
01F8000007C000
01F8000007C000
01F8000007C000
01F8000007C000
01F800000FC000
01F800000FC000
01F800000FC000
01F800000FC000
01F800000FE000
01F800000FE000
01F800000FE000
01F800000FE000
01F800000FE000
01F800000FE000
03FC00000FE000
03FC00001FF000
07FE00003FF800
FFFFF803FFFF80
FFFFF803FFFF80
ENDCHAR
STARTCHAR FB02
ENCODING 64258
SWIDTH 607 0
DWIDTH 54 0
BBX 49 65 3 0
BITMAP
00000FFF002000
00007FFFFFE000
0001FFFFFFC000
0003FFFFFFC000
000FF003FFC000
000FC000FFC000
001F00003FC000
003E00001FC000
003E00001FC000
007C00000FC000
007C00000FC000
00F800000FC000
00F800000FC000
00F800000FC000
00F800000FC000
01F800000FC000
01F800000FC000
01F800000FC000
01F800000FC000
01F800000FC000
01F800000FC000
01F800000FC000
01F800000FC000
01F800000FC000
01F800000FC000
1FFFFF800FC000
FFFFFF800FC000
FFFFFF800FC000
01F800000FC000
01F800000FC000
01F800000FC000
01F800000FC000
01F800000FC000
01F800000FC000
01F800000FC000
01F800000FC000
01F800000FC000
01F800000FC000
01F800000FC000
01F800000FC000
01F800000FC000
01F800000FC000
01F800000FC000
01F800000FC000
01F800000FC000
01F800000FC000
01F800000FC000
01F800000FC000
01F800000FC000
01F800000FC000
01F800000FC000
01F800000FC000
01F800000FC000
01F800000FC000
01F800000FC000
01F800000FC000
01F800000FC000
01F800000FC000
01F800000FC000
01F800000FC000
03FC00001FE000
03FC00001FE000
07FE00003FF000
FFFFF807FFFF00
FFFFF807FFFF80
ENDCHAR
ENDFONT
